<svg preserveAspectRatio="none" width="100%" height="100%" overflow="visible" style="display: block;" viewBox="0 0 24 24" fill="none" xmlns="http://www.w3.org/2000/svg">
<g id="_2445223629216">
<path id="Vector" fill-rule="evenodd" clip-rule="evenodd" d="M4.27778 15.75V8.25C4.27778 7.27778 4.88889 6.55556 5.72222 6.55556H18.2778C18.7222 6.55556 19.1111 6.80556 19.3333 7.05556C19.6111 7.38889 19.7222 7.66667 19.7222 8.25V15.75C19.7222 16.7222 19.1111 17.4444 18.2778 17.4444H5.72222C4.88889 17.4444 4.27778 16.7222 4.27778 15.75ZM11.6111 0H12.4444C13.3056 0.0277778 14.1389 0.138889 14.9722 0.361111C16.0278 0.638889 17.1389 1.08333 18.0556 1.63889C18.9167 2.16667 19.3889 2.5 20.1111 3.16667C20.7778 3.77778 20.9167 3.94444 21.5278 4.69444C22.9167 6.41667 24 9.16667 24 11.5833C24 13.8333 23.7778 15.0833 22.8611 17.1111C22.6111 17.6944 21.9167 18.8611 21.4722 19.3611C20.4444 20.6389 19.4722 21.5556 18.0278 22.3889C17.7222 22.5556 17.4167 22.75 17.0833 22.8889C16.3611 23.1944 15.75 23.4444 14.9444 23.6667C13.6111 24 12.9722 24 11.6389 24H11.5833C9.91667 24 8 23.4167 6.88889 22.8611C5.66667 22.2778 5.25 21.9444 4.25 21.1667C3.80556 20.8333 3.5 20.4444 3.16667 20.0833L2.63889 19.5278C2.58333 19.4444 2.52778 19.3889 2.47222 19.3056C2.41667 19.2222 2.38889 19.1944 2.30556 19.1111C1.94444 18.6111 1.33333 17.6111 1.11111 17.0833C0.222222 14.9722 0 13.9167 0 11.5833C0 9.91667 0.583333 8 1.11111 6.88889C1.44444 6.22222 1.80556 5.63889 2.19444 5.05556C2.30556 4.91667 2.38889 4.77778 2.52778 4.63889C3.25 3.72222 3.77778 3.19444 4.69444 2.47222C6.61111 0.944444 9.08333 0.0833333 11.6111 0Z" fill="var(--fill-0, #1F1F1F)"/>
<path id="Vector_2" fill-rule="evenodd" clip-rule="evenodd" d="M5.72224 16.2222H18.2778C18.5556 16.2222 18.5278 15.7778 18.5278 15.4722V8.44446C18.2778 8.50001 13.2222 12.5556 12.5833 13.0833C12.1667 13.4445 11.8889 13.4722 11.4445 13.1111L7.11112 9.66668C6.86112 9.50001 5.72224 8.50001 5.47224 8.44446V15.4167C5.47224 15.7222 5.41668 16.2222 5.72224 16.2222Z" fill="var(--fill-0, #1F1F1F)"/>
<path id="Vector_3" fill-rule="evenodd" clip-rule="evenodd" d="M12 11.9998C12.0833 11.9443 12.1944 11.8331 12.3056 11.7498C12.4444 11.6387 12.5278 11.5831 12.6389 11.472C12.75 11.3887 12.8611 11.3331 12.9722 11.222C13.0833 11.1387 13.1944 11.0554 13.3056 10.972L17.3056 7.77759H6.69445L11.6667 11.722C11.7778 11.8054 11.8889 11.9443 12 11.9998Z" fill="var(--fill-0, #1F1F1F)"/>
</g>
</svg>
