<svg preserveAspectRatio="none" width="100%" height="100%" overflow="visible" style="display: block;" viewBox="0 0 24 24" fill="none" xmlns="http://www.w3.org/2000/svg">
<g id="instagram">
<path id="Vector" d="M12.0025 7.07671C9.27834 7.07671 7.08099 9.27406 7.08099 11.9982C7.08099 14.7224 9.27834 16.9198 12.0025 16.9198C14.7267 16.9198 16.9241 14.7224 16.9241 11.9982C16.9241 9.27406 14.7267 7.07671 12.0025 7.07671ZM12.0025 15.1979C10.2421 15.1979 8.80289 13.763 8.80289 11.9982C8.80289 10.2335 10.2378 8.79861 12.0025 8.79861C13.7673 8.79861 15.2022 10.2335 15.2022 11.9982C15.2022 13.763 13.763 15.1979 12.0025 15.1979V15.1979ZM18.2733 6.87539C18.2733 7.51361 17.7593 8.02332 17.1254 8.02332C16.4872 8.02332 15.9775 7.50933 15.9775 6.87539C15.9775 6.24146 16.4915 5.72746 17.1254 5.72746C17.7593 5.72746 18.2733 6.24146 18.2733 6.87539ZM21.5329 8.04046C21.4601 6.50274 21.1089 5.14065 19.9824 4.01842C18.8601 2.89619 17.498 2.54495 15.9603 2.46785C14.3755 2.3779 9.62529 2.3779 8.04046 2.46785C6.50703 2.54067 5.14493 2.8919 4.01842 4.01413C2.8919 5.13636 2.54495 6.49846 2.46785 8.03617C2.3779 9.621 2.3779 14.3712 2.46785 15.956C2.54067 17.4938 2.8919 18.8559 4.01842 19.9781C5.14493 21.1003 6.50274 21.4515 8.04046 21.5286C9.62529 21.6186 14.3755 21.6186 15.9603 21.5286C17.498 21.4558 18.8601 21.1046 19.9824 19.9781C21.1046 18.8559 21.4558 17.4938 21.5329 15.956C21.6229 14.3712 21.6229 9.62529 21.5329 8.04046V8.04046ZM19.4855 17.6565C19.1514 18.4961 18.5046 19.1428 17.6608 19.4812C16.3972 19.9824 13.3989 19.8667 12.0025 19.8667C10.6062 19.8667 7.60356 19.9781 6.34426 19.4812C5.50473 19.1471 4.85795 18.5003 4.51957 17.6565C4.01842 16.3929 4.13407 13.3946 4.13407 11.9982C4.13407 10.6019 4.0227 7.59928 4.51957 6.33998C4.85366 5.50045 5.50045 4.85366 6.34426 4.51528C7.60784 4.01413 10.6062 4.12978 12.0025 4.12978C13.3989 4.12978 16.4015 4.01842 17.6608 4.51528C18.5003 4.84938 19.1471 5.49616 19.4855 6.33998C19.9866 7.60356 19.871 10.6019 19.871 11.9982C19.871 13.3946 19.9866 16.3972 19.4855 17.6565Z" fill="var(--fill-0, #1F1F1F)"/>
</g>
</svg>
