<svg preserveAspectRatio="none" width="100%" height="100%" overflow="visible" style="display: block;" viewBox="0 0 19.2 19.2" fill="none" xmlns="http://www.w3.org/2000/svg">
<g id="_x31_0.Linkedin">
<path id="Vector" d="M19.2 19.2V12.168C19.2 8.712 18.456 6.072 14.424 6.072C12.48 6.072 11.184 7.128 10.656 8.136H10.608V6.384H6.792V19.2H10.776V12.84C10.776 11.16 11.088 9.552 13.152 9.552C15.192 9.552 15.216 11.448 15.216 12.936V19.176H19.2V19.2Z" fill="var(--fill-0, #1F1F1F)"/>
<path id="Vector_2" d="M0.312 6.384H4.296V19.2H0.312V6.384Z" fill="var(--fill-0, #1F1F1F)"/>
<path id="Vector_3" d="M2.304 0C1.032 0 0 1.032 0 2.304C0 3.576 1.032 4.632 2.304 4.632C3.576 4.632 4.608 3.576 4.608 2.304C4.608 1.032 3.576 0 2.304 0Z" fill="var(--fill-0, #1F1F1F)"/>
</g>
</svg>
