<svg preserveAspectRatio="none" width="100%" height="100%" overflow="visible" style="display: block;" viewBox="0 0 24 24" fill="none" xmlns="http://www.w3.org/2000/svg">
<path id="Vector" fill-rule="evenodd" clip-rule="evenodd" d="M12 0C18.6389 0 24 5.36111 24 12C24 18.6389 18.6389 24 12 24C5.36111 24 0 18.6389 0 12C0 5.36111 5.36111 0 12 0ZM5.83333 6.30556C5.80556 6.38889 5.72222 6.47222 5.69444 6.58333C4.97222 8.08333 5.47222 9.97222 6.19444 11.3611C6.63889 12.2222 7.13889 13.0278 7.75 13.8056L8.66667 14.8889C8.88889 15.1667 9.41667 15.6944 9.69444 15.9444L11.25 17.3056C11.2778 17.3333 11.3056 17.3611 11.3611 17.3889C11.6667 17.6111 12 17.8611 12.3611 18.0556C12.6944 18.25 13.0278 18.4167 13.3611 18.5556C13.9444 18.8333 14.6389 19 15.2778 19.0556C15.6667 19.0556 16.0278 19.0556 16.3889 18.9722C16.5 18.9444 16.5833 18.9167 16.6944 18.8611C16.8611 18.8056 17.0556 18.7222 17.1944 18.5833C17.1667 18.4722 16.9722 18.3611 16.9167 18.25L16.6111 17.9444C16.5278 17.8611 16.5 17.8056 16.4167 17.7222C16.3611 17.6389 16.3056 17.5833 16.2222 17.5L15.9722 17.25C15.9722 17.25 15.9722 17.25 15.9722 17.2222C15.9444 17.2222 15.9444 17.1944 15.9167 17.1667L15.4444 16.6389C15.2222 16.4444 14.9167 16.0833 14.6944 15.8611C14.6667 15.8333 14.6667 15.8333 14.6667 15.8333L14.3333 15.4722C14.25 15.3611 14.1389 15.25 14.0556 15.1389C13.8333 15.25 13.8056 15.3333 13.5278 15.2778C13.1944 15.1944 12.8889 14.9722 12.6667 14.7778L11.3889 13.6389L10.0278 12.25C9.77778 11.9722 9.5 11.6389 9.30555 11.3056C9.22222 11.1667 9.13889 11.0278 9.05556 10.8611C8.72222 10.1667 9.05556 10 9.11111 9.80556C9.02778 9.75 8.97222 9.66667 8.88889 9.58333L8.27778 8.94444C8.19444 8.86111 8.16667 8.77778 8.08333 8.72222C7.86111 8.5 7.5 8.05556 7.25 7.83333L6.13889 6.61111C6.05556 6.52778 5.94444 6.36111 5.83333 6.30556ZM14.3333 14.8611C14.3611 14.8889 14.3333 14.8611 14.3611 14.9167L15.9167 16.5833C16 16.6667 16.0556 16.75 16.1111 16.8056L16.5278 17.25C16.6111 17.3333 17.4444 18.2778 17.5 18.3056L18.3611 17.4444C18.5 17.3056 18.7778 17.1111 18.6111 16.75C18.5278 16.6111 17.75 15.8056 17.6111 15.6667L16.3611 14.3056C16.3333 14.2778 16.3056 14.25 16.2778 14.2222L15.9444 13.8889C15.7778 13.7778 15.5556 13.7778 15.3889 13.8611C15.25 13.9167 14.8056 14.3889 14.6667 14.5278C14.5833 14.6111 14.3889 14.7778 14.3333 14.8611ZM6.22222 6C6.27778 6.08333 7.80555 7.75 7.94444 7.86111C8.19444 8.13889 9.11111 9.16667 9.25 9.30555C9.33333 9.38889 9.38889 9.47222 9.47222 9.52778L10.1667 8.86111C10.2778 8.75 10.4444 8.61111 10.5 8.5C10.5833 8.33333 10.5556 8.08333 10.4722 7.94444L9.80556 7.22222C9.75 7.13889 9.69444 7.11111 9.66667 7.02778L9.33333 6.66667C9.27778 6.61111 9.22222 6.52778 9.16667 6.47222L8.63889 5.88889C8.61111 5.88889 8.61111 5.86111 8.58333 5.86111C8.55555 5.80556 8.52778 5.80556 8.5 5.75L8.16667 5.38889C8.13889 5.33333 8.05556 5.27778 8.02778 5.22222C7.97222 5.16667 7.91667 5.08333 7.83333 5.05556C7.36111 4.77778 7.16667 5.08333 6.91667 5.30556C6.69444 5.52778 6.44444 5.77778 6.22222 6Z" fill="var(--fill-0, #1F1F1F)"/>
</svg>
