<svg preserveAspectRatio="none" width="100%" height="100%" overflow="visible" style="display: block;" viewBox="0 0 24 24" fill="none" xmlns="http://www.w3.org/2000/svg">
<g id="youtube" clip-path="url(#clip0_0_4)">
<path id="Vector" d="M23.8985 6.65992C23.6225 5.61292 22.8092 4.78833 21.7767 4.50849C19.905 4 12.4 4 12.4 4C12.4 4 4.89505 4 3.02338 4.50849C1.9908 4.78837 1.17755 5.61292 0.901528 6.65992C0.400024 8.55768 0.400024 12.5172 0.400024 12.5172C0.400024 12.5172 0.400024 16.4767 0.901528 18.3744C1.17755 19.4214 1.9908 20.2117 3.02338 20.4915C4.89505 21 12.4 21 12.4 21C12.4 21 19.905 21 21.7767 20.4915C22.8092 20.2117 23.6225 19.4214 23.8985 18.3744C24.4 16.4767 24.4 12.5172 24.4 12.5172C24.4 12.5172 24.4 8.55768 23.8985 6.65992V6.65992ZM9.94546 16.1121V8.92225L16.2182 12.5173L9.94546 16.1121V16.1121Z" fill="var(--fill-0, #1F1F1F)"/>
</g>
<defs>
<clipPath id="clip0_0_4">
<rect width="24" height="24" fill="white"/>
</clipPath>
</defs>
</svg>
