<svg preserveAspectRatio="none" width="100%" height="100%" overflow="visible" style="display: block;" viewBox="0 0 233 60" fill="none" xmlns="http://www.w3.org/2000/svg">
<g id="Isolation_Mode" clip-path="url(#clip0_0_19)">
<path id="Vector" d="M143.43 60C134.756 60 127.588 57.1055 121.913 51.3476C116.27 45.5711 113.445 38.4625 113.445 30.0031C113.445 21.5437 116.27 14.3542 121.913 8.60255C127.582 2.86959 134.75 0 143.43 0C148.651 0 153.467 1.20137 157.897 3.65391C162.321 6.10022 165.756 9.42421 168.238 13.5823L158.438 19.2717C156.988 16.6947 154.954 14.6716 152.334 13.2151C149.696 11.7585 146.728 11.0302 143.43 11.0302C137.836 11.0302 133.306 12.8042 129.884 16.3025C126.449 19.8195 124.738 24.3822 124.738 29.9907C124.738 35.5991 126.449 40.0747 129.884 43.5917C133.306 47.1086 137.836 48.864 143.43 48.864C146.728 48.864 149.702 48.1482 152.365 46.6729C155.035 45.2225 157.057 43.2306 158.444 40.7034L168.245 46.3928C165.762 50.5758 162.333 53.8749 157.94 56.315C153.548 58.7675 148.713 59.9938 143.436 59.9938" fill="var(--fill-0, #1F1F1F)"/>
<path id="Vector_2" d="M224.264 51.2916C218.446 57.1055 211.353 59.9938 203.04 59.9938C194.727 59.9938 187.627 57.0993 181.853 51.2916C176.054 45.5026 173.154 38.394 173.154 29.9969C173.154 21.5997 176.054 14.4787 181.853 8.6897C187.633 2.88827 194.714 -0.00622471 203.04 -0.00622471C211.365 -0.00622471 218.446 2.88204 224.264 8.6897C230.082 14.4725 233 21.5811 233 29.9969C233 38.4127 230.082 45.5026 224.264 51.2916ZM189.78 43.5543C193.352 47.0962 197.782 48.8764 203.033 48.8764C208.285 48.8764 212.69 47.0962 216.274 43.5543C219.852 40.0062 221.626 35.4809 221.626 30.0031C221.626 24.5254 219.846 19.9689 216.274 16.3959C212.697 12.8229 208.285 11.0364 203.033 11.0364C197.782 11.0364 193.352 12.8167 189.78 16.3959C186.215 19.9689 184.429 24.5005 184.429 30.0031C184.429 35.5058 186.215 40.0062 189.78 43.5543Z" fill="var(--fill-0, #1F1F1F)"/>
<path id="Vector_3" d="M40.0965 27.8431V27.8556C29.3692 27.9178 27.4092 37.9023 27.4092 37.9023H47.7872C46.7419 41.3134 44.7694 43.9963 41.9009 45.9508C39.0013 47.8867 35.3551 48.8764 30.9746 48.8764C25.0385 48.8764 20.2785 47.0962 16.682 43.5543C13.0855 40.0062 11.281 35.5182 11.281 30.0716C11.281 24.625 13.0544 20.0311 16.5949 16.4395C20.1353 12.8478 24.6589 11.0364 30.1408 11.0364C33.5568 11.0364 36.6555 11.7772 39.4058 13.2649C42.1872 14.7339 44.2716 16.676 45.6343 19.0352L55.3598 13.4205C52.8771 9.34952 49.4299 6.10644 44.9747 3.65391C40.5196 1.20137 35.6102 -0.00622471 30.2279 -0.00622471C21.6598 -0.00622471 14.4855 2.89449 8.6801 8.72082C2.91203 14.5596 0 21.6682 0 30.0716C0 38.4749 2.92448 45.5026 8.77343 51.2979C14.6286 57.1117 22.0207 60 30.9061 60C39.2378 60 46.0636 57.4416 51.3339 52.3312C56.6167 47.2331 59.2362 40.5415 59.2362 32.3249V27.8494H40.0965V27.8431Z" fill="var(--fill-0, #1F1F1F)"/>
<path id="Vector_4" d="M100.409 47.9676H77.8658V35.0265H105.791V24.32H77.8658V12.0448H100.011C106.7 11.7709 107.727 5.3408 107.863 2.48988V1.15157H66.4977V58.8422H108.249C108.249 58.8422 109.002 48.31 100.403 47.9676" fill="var(--fill-0, #1F1F1F)"/>
</g>
<defs>
<clipPath id="clip0_0_19">
<rect width="233" height="60" fill="white"/>
</clipPath>
</defs>
</svg>
