<svg width="24" height="24" viewBox="0 0 24 24" fill="none" xmlns="http://www.w3.org/2000/svg">
<path fill-rule="evenodd" clip-rule="evenodd" d="M23 12C23 5.92708 18.0729 1 12 1C5.92708 1 1 5.92708 1 12C1 18.0729 5.92708 23 12 23C18.0729 23 23 18.0729 23 12ZM12 1.61111C17.7419 1.61111 22.3889 6.2581 22.3889 12C22.3889 17.7419 17.7419 22.3889 12 22.3889C6.2581 22.3889 1.61111 17.7419 1.61111 12C1.61111 6.2581 6.2581 1.61111 12 1.61111Z" fill="#1F1F1F"/>
<path fill-rule="evenodd" clip-rule="evenodd" d="M15.1456 16.4688C15.0819 16.5833 14.3944 17.1944 14.2798 17.36C14.2034 17.4618 14.2162 17.5891 14.318 17.64C14.3817 17.6782 15.2983 17.8438 15.4257 17.8692L17.6409 18.3021C17.7682 18.3275 17.8828 18.353 18.0101 18.3785C18.1502 18.4039 18.2648 18.4421 18.3666 18.353C18.4557 18.2766 18.4176 18.1493 18.3921 18.0093L18.1757 16.9016C18.1502 16.7488 17.7173 14.419 17.6664 14.3299C17.5009 14.0116 17.1826 14.4699 16.9407 14.7118C16.877 14.7755 16.7879 14.8519 16.7243 14.9282C16.6861 14.9664 16.5333 15.1319 16.4951 15.1574L16.1641 14.8264C16.0622 14.7373 15.9349 14.5972 15.8331 14.4954C15.4893 14.1389 15.1583 13.8333 14.8273 13.4896C14.6236 13.2731 14.4453 13.0185 14.2544 13.1713L13.2486 14.1644C13.2486 14.1644 13.1213 14.3044 13.1722 14.419C13.2104 14.5081 13.7196 14.9919 13.8342 15.1065L15.171 16.456L15.1456 16.4688Z" fill="#1F1F1F"/>
<path fill-rule="evenodd" clip-rule="evenodd" d="M7.53106 8.85538L7.86207 9.1864C7.97666 9.30098 8.07851 9.40283 8.20582 9.51742C8.34587 9.65746 9.4917 10.816 9.55536 10.8542C9.72087 10.9433 9.88638 10.7269 9.96277 10.6378L10.6375 9.96302C11.0449 9.54288 10.9558 9.68292 10.1919 8.86811C10.0392 8.71533 8.86786 7.5695 8.85513 7.51857L9.72087 6.6401C9.72087 6.6401 9.78453 6.55098 9.78453 6.48732C9.78453 6.4364 9.74633 6.37274 9.70814 6.34728C9.64448 6.29635 6.72897 5.7489 6.39795 5.68524C6.28337 5.65978 6.15606 5.63431 6.02874 5.62158C5.90143 5.59612 5.76138 5.54519 5.67226 5.62158C5.57041 5.72343 5.62133 5.82529 5.6468 5.97806C5.67226 6.10538 5.69772 6.21996 5.71045 6.34728C5.74865 6.58917 5.81231 6.83107 5.8505 7.07297C5.87596 7.23848 6.30883 9.54288 6.35976 9.64473C6.48707 9.95029 6.81809 9.51742 6.86902 9.47922C6.94541 9.41556 7.00907 9.33917 7.08545 9.26279L7.53106 8.82992V8.85538Z" fill="#050505"/>
<path fill-rule="evenodd" clip-rule="evenodd" d="M15.1443 7.53125C15.1443 7.53125 14.8769 7.82407 14.826 7.875L13.4764 9.21181C13.2345 9.4537 13.0181 9.59375 13.1963 9.78472C13.4128 10.0266 13.782 10.3704 14.0239 10.625C14.0875 10.6887 14.1257 10.7269 14.1894 10.7905C14.2531 10.8414 14.3167 10.9051 14.4313 10.8542C14.5332 10.8032 15.9336 9.37731 16.1246 9.18634C16.2264 9.08449 16.3538 8.96991 16.4556 8.85532C16.532 8.86806 16.7994 9.18634 16.9012 9.27546C17.0413 9.41551 17.2195 9.60648 17.3468 9.70833C17.4487 9.78472 17.5505 9.81019 17.6396 9.70833C17.6778 9.65741 17.716 9.44097 17.7288 9.36458L18.3781 6.04167C18.4035 5.91435 18.4544 5.78704 18.3781 5.68519C18.3017 5.5706 18.1744 5.62153 18.0216 5.64699L15.4371 6.14352C15.1825 6.19444 14.9533 6.23264 14.6987 6.28356C14.6095 6.2963 14.4186 6.33449 14.3422 6.35995C14.0621 6.47454 14.3676 6.75463 14.495 6.86921L15.157 7.54398L15.1443 7.53125Z" fill="#1F1F1F"/>
<path fill-rule="evenodd" clip-rule="evenodd" d="M7.53203 15.1574C7.35379 14.9919 7.2392 14.8773 7.09916 14.7245L6.66628 14.2917C6.57716 14.2026 6.44985 14.2026 6.37346 14.3171C6.32253 14.3935 6.3098 14.5718 6.28434 14.6736C6.24615 14.9155 6.19522 15.1701 6.14429 15.3993C6.04244 15.8831 5.95332 16.3796 5.8642 16.8634C5.81328 17.1053 5.76235 17.3472 5.72416 17.5891C5.69869 17.7164 5.68596 17.831 5.64777 17.9583C5.6223 18.0857 5.57138 18.2384 5.64777 18.3403C5.73689 18.4421 5.8642 18.3912 6.00425 18.3657C6.13156 18.3403 6.24615 18.3148 6.37346 18.3021C6.61536 18.2512 6.85726 18.2002 7.09916 18.162L9.31443 17.7419C9.40355 17.7292 9.59453 17.691 9.67091 17.6655C9.96374 17.5255 9.59453 17.2454 9.50541 17.169L8.84337 16.4942C8.84337 16.4942 8.97068 16.3669 9.00888 16.3287C9.0598 16.2778 9.11073 16.2269 9.17439 16.1632C9.28897 16.0486 9.39082 15.9468 9.50541 15.8195C9.73457 15.5903 9.95101 15.3738 10.1802 15.1447C10.2948 15.0301 10.3839 14.941 10.5112 14.8137C10.9823 14.3426 11.0459 14.4572 10.2948 13.7188C10.1165 13.5405 9.97647 13.3877 9.79823 13.2222C9.73457 13.1586 9.65818 13.1204 9.55633 13.1713C9.49267 13.2095 9.44175 13.2732 9.39082 13.3241L8.55054 14.1644C8.43596 14.2789 8.32138 14.3935 8.21953 14.5081L7.54476 15.1701L7.53203 15.1574Z" fill="#1F1F1F"/>
<path fill-rule="evenodd" clip-rule="evenodd" d="M11.8092 10.6887C11.1344 10.7905 10.5742 11.4017 10.6761 12.191C10.7652 12.853 11.4018 13.4387 12.1911 13.3241C12.8659 13.2223 13.4261 12.6111 13.3242 11.8091C13.2351 11.1598 12.5858 10.5741 11.8219 10.6887" fill="#1F1F1F"/>
</svg>
