<svg width="24" height="24" viewBox="0 0 24 24" fill="none" xmlns="http://www.w3.org/2000/svg">
<g clip-path="url(#clip0_1426_2177)">
<path fill-rule="evenodd" clip-rule="evenodd" d="M24 12C24 5.375 18.625 0 12 0C5.375 0 0 5.375 0 12C0 18.625 5.375 24 12 24C18.625 24 24 18.625 24 12ZM12 0.666667C18.2639 0.666667 23.3333 5.73611 23.3333 12C23.3333 18.2639 18.2639 23.3333 12 23.3333C5.73611 23.3333 0.666667 18.2639 0.666667 12C0.666667 5.73611 5.73611 0.666667 12 0.666667Z" fill="#1F1F1F"/>
<path fill-rule="evenodd" clip-rule="evenodd" d="M3.77734 19.7916C3.93012 19.9444 4.0829 20.1111 4.24957 20.25L20.2357 4.20831C20.0829 4.04164 19.9301 3.88886 19.7635 3.73608L3.77734 19.7916Z" fill="#1C1B17"/>
<path d="M12.9314 12.125L11.7509 13.3056L12.3898 13.9028L9.82031 17.25L12.8898 20.9722L11.612 17.3472L14.4592 13.9444L12.9314 12.125Z" fill="#1F1F1F"/>
<path d="M11.2083 10.0972L13.8194 2.66669L10.9444 2.26392L8.5 10.3334L10.6111 12.3056L11.9306 10.9722L11.2083 10.0972Z" fill="#1F1F1F"/>
</g>
<defs>
<clipPath id="clip0_1426_2177">
<rect width="24" height="24" fill="white"/>
</clipPath>
</defs>
</svg>
