<svg width="24" height="24" viewBox="0 0 24 24" fill="none" xmlns="http://www.w3.org/2000/svg">
<path fill-rule="evenodd" clip-rule="evenodd" d="M11.8981 1C18.1238 1 23 5.86343 23 11.8981C23 17.9329 18.1366 23 11.8981 23C5.65972 23 1 18.1366 1 11.8981C1 5.65972 5.86343 1 11.8981 1Z" fill="#FEFEFE"/>
<path fill-rule="evenodd" clip-rule="evenodd" d="M9.52801 11.1391C8.81094 11.5126 7.87741 12.0384 7.13328 12.4396C6.09151 13.0068 4.99562 13.6432 3.95385 14.1966C3.39914 14.501 2.89854 14.7915 2.34383 15.0682C2.20854 15.1374 2.01913 15.1927 2.0056 15.3449C1.96501 15.5524 2.15442 15.6078 2.27619 15.6769L11.4357 20.7267C12.0851 21.0864 11.8821 21.114 12.6804 20.6713C14.7639 19.5092 16.9151 18.3609 19.0393 17.1849L21.8399 15.6631C21.9887 15.5801 22.0699 15.4279 21.921 15.2757C21.8399 15.1927 21.2716 14.9022 21.1228 14.8192C20.3516 14.3903 19.5263 13.9476 18.7551 13.5049C17.781 12.9376 16.5904 12.3012 15.5757 11.7478C15.021 11.4435 14.5204 11.1806 13.9792 10.8624C13.8845 10.807 13.5733 10.7102 13.7627 10.5719C13.8439 10.5165 14.0739 10.4058 14.1686 10.3643C14.8992 10.0323 15.0751 10.1015 15.6704 10.0046C15.8328 9.97695 15.941 9.78327 15.8192 9.61725C15.7245 9.4789 15.5216 9.50657 15.3322 9.49273C14.5339 9.43739 13.6951 9.03618 13.2216 8.52429C12.6398 7.90172 12.3963 7.29298 12.2745 6.39372C12.2474 6.20003 12.2745 6.00634 12.1527 5.89566C12.0174 5.77115 11.8145 5.85416 11.7739 5.9925C11.7468 6.06168 11.7333 6.44906 11.7063 6.5459C11.4627 8.31677 10.1098 9.43739 8.43211 9.4789C8.2427 9.4789 8.09388 9.56191 8.13447 9.76943C8.18858 10.143 8.78388 9.7971 9.97448 10.392C10.0962 10.4473 10.2992 10.5165 10.3127 10.6549L9.51448 11.0976L9.52801 11.1391ZM9.71742 9.7556C9.71742 9.7556 10.0151 9.61725 10.1098 9.56191C10.4886 9.38205 10.8268 9.11919 11.1245 8.82866C11.2868 8.66264 11.4898 8.39978 11.6386 8.16458C11.801 7.90172 11.9363 7.43133 12.031 7.38983C12.1392 7.51434 12.4504 8.96701 14.128 9.65875C14.3039 9.72793 14.2769 9.70026 14.3039 9.76943C14.2363 9.89395 14.0333 9.92162 13.9251 9.97695C13.7763 10.0461 13.668 10.1015 13.5463 10.1845C13.0727 10.4888 12.7074 10.8901 12.3963 11.3604C12.288 11.5403 12.1933 11.7478 12.0986 11.9553C12.0716 12.0245 12.0716 12.0937 11.9904 12.1352C11.8686 12.0522 11.7333 11.0146 10.4345 10.1568C10.1639 9.97695 9.73095 9.85244 9.70389 9.74176L9.71742 9.7556ZM7.63387 12.7024C7.67446 12.6194 7.89093 12.5226 7.97211 12.4672L10.4345 11.1391C10.7592 10.9592 10.7321 10.9177 11.0433 11.3328C11.2192 11.568 11.3274 11.734 11.4357 12.0245C11.5439 12.3012 11.6251 12.5641 11.6927 12.8684C11.7874 13.3388 11.6927 13.6709 11.9904 13.6709C12.491 13.6709 11.9904 12.6056 12.9645 11.3328C13.208 11.0284 13.1945 10.8901 13.6004 11.1529L15.0075 11.9277C15.1563 12.0107 16.3604 12.6333 16.3875 12.7163C16.3198 12.8408 14.9398 13.5464 14.7639 13.6432L13.1404 14.5148C13.0186 14.584 12.1392 15.082 12.031 15.0959C11.8957 15.0959 9.96095 14.0029 9.81213 13.9061L8.16152 13.0068C8.03976 12.9515 7.68799 12.7854 7.6474 12.6886L7.63387 12.7024ZM7.10622 12.993C7.1874 12.993 8.98682 13.9752 9.31153 14.1689C9.69036 14.3903 10.0421 14.5563 10.3939 14.7638C11.5033 15.3864 11.6657 15.3449 11.2327 15.5663L9.31153 16.6039C9.01388 16.7699 7.16034 17.766 7.09269 17.7798C6.97093 17.7798 6.1321 17.2956 5.96974 17.1988L3.2909 15.7184C3.19619 15.6631 3.08796 15.6216 3.00678 15.5663C2.85796 15.4832 2.80384 15.4832 2.77678 15.3864C2.8309 15.3034 2.93913 15.2619 3.03384 15.2065C3.61561 14.8883 7.02505 12.993 7.09269 12.993H7.10622ZM12.5451 15.3864C12.5721 15.2896 12.6939 15.2619 12.7886 15.2204L14.1686 14.4733C14.5475 14.2658 16.8339 13.0206 16.9422 13.0206C16.9963 13.0206 18.9175 14.0998 19.134 14.2243C19.4993 14.4318 19.8375 14.6116 20.2299 14.833C20.3787 14.916 21.231 15.3449 21.2581 15.4694C21.1363 15.5663 18.2951 17.1019 17.9975 17.2679C17.8216 17.3648 17.0234 17.849 16.8745 17.8075L13.0457 15.7046C12.9374 15.6493 12.5721 15.4832 12.5316 15.4002L12.5451 15.3864ZM15.3592 4.31848C15.0751 4.38766 15.251 4.59518 15.1022 5.0379C14.9128 5.56362 14.6016 5.85416 14.0875 6.00634C13.8439 6.07551 13.3839 6.00634 13.4516 6.36605C13.5057 6.62891 13.898 6.55974 14.1551 6.62891C14.4527 6.71192 14.588 6.83643 14.7639 7.01629C15.3863 7.65269 14.9804 8.38594 15.4404 8.3306C15.8869 8.2891 15.3728 7.05779 16.7122 6.61507C16.9692 6.53207 17.3887 6.61507 17.3481 6.25537C17.321 6.00634 16.9016 6.04784 16.6581 5.97867C16.1981 5.84032 15.8463 5.41144 15.7245 4.94105C15.6569 4.66435 15.7245 4.2078 15.3592 4.30465V4.31848ZM15.4269 5.50828C15.5486 5.56362 15.6298 5.90949 16.1033 6.21386C16.171 6.25537 16.1845 6.24153 16.2116 6.32454C16.1575 6.42139 15.9816 6.49056 15.7922 6.68425C15.7381 6.73959 15.481 7.11313 15.4404 7.12697C15.3322 7.08546 15.2375 6.76726 14.8857 6.5044C14.6151 6.29687 14.588 6.35221 14.8722 6.13085C14.9533 6.06168 15.021 6.00634 15.0886 5.93717C15.1698 5.85416 15.3863 5.52212 15.4539 5.49445L15.4269 5.50828ZM11.8416 3.00417C11.5304 3.10101 11.8416 3.83426 11.0704 3.9311C10.8945 3.95877 10.7321 4.00028 10.7863 4.23547C10.8404 4.51217 11.2733 4.37382 11.5168 4.66435C11.7468 4.92722 11.6116 5.45294 11.9904 5.34226C12.2474 5.25925 12.058 4.88571 12.3827 4.59518C12.6263 4.38766 13.1404 4.49834 13.0457 4.11096C12.978 3.8481 12.5316 4.01411 12.3016 3.69591C12.1257 3.44688 12.2068 2.89349 11.828 3.018L11.8416 3.00417ZM11.9363 4.38766C11.8551 4.35999 11.6657 4.22164 11.8145 4.06945C11.9498 3.90343 12.058 4.04178 12.1257 4.18013C12.1121 4.24931 12.0039 4.35999 11.9363 4.40149V4.38766ZM16.4145 18.0704C16.3739 18.2087 16.0086 18.3471 15.8869 18.4024C15.711 18.4993 15.5351 18.6099 15.3457 18.7068C14.9533 18.9005 14.6151 19.108 14.2498 19.3155C14.101 19.3985 12.1257 20.4915 12.031 20.5053C11.9363 20.5053 11.0568 20.0073 10.908 19.9242L9.25741 19.0111C9.068 18.9143 8.90565 18.8036 8.71623 18.7068L7.89093 18.2641C7.40387 18.015 7.59329 18.0565 8.13447 17.7522L11.9768 15.6769C12.1257 15.6493 12.8833 16.1335 13.1133 16.2442L15.3186 17.4478C15.508 17.5585 16.3739 18.015 16.4145 18.0842V18.0704Z" fill="#1F1F1F"/>
</svg>
