<svg width="24" height="24" viewBox="0 0 24 24" fill="none" xmlns="http://www.w3.org/2000/svg">
<path d="M5.81863 15.4782C5.46484 15.4782 5.09566 15.4013 4.75726 15.2321C3.64974 14.6937 3.5882 13.417 3.71126 12.8017C3.74202 12.6633 3.86508 12.5864 4.00352 12.6171C4.12658 12.6479 4.21889 12.771 4.18812 12.9094C4.18812 12.9709 3.91124 14.3092 4.97261 14.8014C5.81862 15.2013 6.75692 14.8937 7.04918 14.5091C7.40297 14.0323 7.47989 13.4016 7.51065 12.8325C7.54141 12.2787 7.51065 9.17154 7.51065 8.20247L6.2647 8.14094C6.18779 8.14094 6.11087 8.09479 6.06472 8.03326C6.01858 7.97174 6.01859 7.87944 6.04935 7.80253L7.4799 4.54152C7.51067 4.44922 7.60296 4.40308 7.69525 4.40308C7.78755 4.40308 7.87984 4.44922 7.9106 4.54152L9.52571 7.80253C9.52571 7.80253 9.55647 7.97174 9.52571 8.03326C9.47956 8.11017 9.40267 8.14094 9.32576 8.14094H7.98749C7.98749 9.06387 8.01826 12.2787 7.98749 12.8479C7.95673 13.4785 7.86444 14.2169 7.43374 14.786C7.12609 15.186 6.51082 15.4782 5.81863 15.4782ZM6.63388 7.66409L7.58757 7.71024C7.58757 7.71024 7.69525 7.64871 7.7414 7.64871H8.9412L7.726 5.18757L6.63388 7.66409Z" fill="#1F1F1F"/>
<path d="M10.8167 15.4782C10.4629 15.4782 10.0937 15.4013 9.7553 15.2321C8.64779 14.6937 8.58625 13.417 8.7093 12.8017C8.74007 12.6633 8.86313 12.5864 9.00157 12.6171C9.12463 12.6479 9.21694 12.771 9.18617 12.9094C9.18617 12.9709 8.90928 14.3092 9.97065 14.8014C10.8167 15.2013 11.755 14.8937 12.0472 14.5091C12.401 14.0323 12.4779 13.417 12.5087 12.8325C12.5395 12.2787 12.5087 9.17154 12.5087 8.20247L11.2627 8.14094C11.1858 8.14094 11.1089 8.09479 11.0628 8.03326C11.0166 7.97174 11.0166 7.87944 11.0474 7.80253L12.478 4.54152C12.5087 4.44922 12.601 4.40308 12.6933 4.40308C12.7548 4.40308 12.8779 4.44922 12.9086 4.54152L14.5238 7.80253C14.5238 7.80253 14.5545 7.97174 14.5238 8.03326C14.4776 8.11017 14.4007 8.14094 14.3238 8.14094H12.9855C12.9855 9.06387 13.0163 12.2787 12.9855 12.8479C12.9548 13.4785 12.8625 14.2169 12.4318 14.786C12.1241 15.186 11.5089 15.4782 10.8167 15.4782ZM11.6319 7.66409L12.5856 7.71024C12.5856 7.71024 12.6933 7.64871 12.7394 7.64871H13.9392L12.724 5.18757L11.6319 7.66409Z" fill="#1F1F1F"/>
<path d="M15.8167 15.4782C15.4629 15.4782 15.0937 15.4013 14.7553 15.2321C13.6478 14.6937 13.5862 13.417 13.7093 12.8017C13.7401 12.6633 13.8631 12.5864 14.0016 12.6171C14.1246 12.6479 14.2169 12.771 14.1862 12.9094C14.1862 12.9709 13.9093 14.3092 14.9707 14.8014C15.8167 15.2013 16.755 14.8937 17.0472 14.5091C17.401 14.0323 17.4779 13.4016 17.5087 12.8325C17.5395 12.2787 17.5087 9.17154 17.5087 8.20247L16.2627 8.14094C16.1858 8.14094 16.1089 8.09479 16.0628 8.03326C16.0166 7.97174 16.0166 7.87944 16.0474 7.80253L17.478 4.54152C17.5087 4.44922 17.601 4.40308 17.6933 4.40308C17.7856 4.40308 17.8779 4.44922 17.9086 4.54152L19.5238 7.80253C19.5238 7.80253 19.5545 7.97174 19.5238 8.03326C19.4776 8.11017 19.4007 8.14094 19.3238 8.14094H17.9855C17.9855 9.06387 18.0163 12.2787 17.9855 12.8479C17.9548 13.4785 17.8625 14.2169 17.4318 14.786C17.1241 15.186 16.5089 15.4782 15.8167 15.4782ZM16.6319 7.66409L17.5856 7.71024C17.5856 7.71024 17.6933 7.64871 17.7394 7.64871H18.9392L17.724 5.18757L16.6319 7.66409Z" fill="#1F1F1F"/>
<path d="M20.491 16.678H3.33987C3.20143 16.678 3.09375 16.5703 3.09375 16.4319C3.09375 16.2935 3.20143 16.1858 3.33987 16.1858H20.491C20.6294 16.1858 20.7371 16.2935 20.7371 16.4319C20.7371 16.5703 20.6294 16.678 20.491 16.678Z" fill="#1F1F1F"/>
<path d="M3.41708 18.77C3.41708 18.77 3.30939 18.7546 3.26324 18.7085C3.15557 18.6162 3.14018 18.4778 3.23247 18.3701L4.01698 17.4164C4.01698 17.4164 4.12465 17.3395 4.18618 17.3241C4.24771 17.3241 4.32461 17.3395 4.37076 17.401L5.17064 18.2009C5.26293 18.2932 5.26293 18.447 5.17064 18.5393C5.07835 18.6316 4.92452 18.6316 4.83223 18.5393L4.21693 17.924L3.60165 18.6777C3.60165 18.6777 3.4786 18.77 3.41708 18.77Z" fill="#1F1F1F"/>
<path d="M4.8487 18.77C4.8487 18.77 4.74102 18.7546 4.69487 18.7085C4.5872 18.6162 4.57183 18.4778 4.66412 18.3701L5.44861 17.4164C5.44861 17.4164 5.55628 17.3395 5.61781 17.3241C5.67934 17.3241 5.75624 17.3395 5.80239 17.401L6.60227 18.2009C6.69456 18.2932 6.69456 18.447 6.60227 18.5393C6.50997 18.6316 6.35615 18.6316 6.26386 18.5393L5.64858 17.924L5.03328 18.6777C5.03328 18.6777 4.91023 18.77 4.8487 18.77Z" fill="#1F1F1F"/>
<path d="M6.28033 18.77C6.28033 18.77 6.17267 18.7546 6.12653 18.7085C6.01885 18.6162 6.00346 18.4778 6.09575 18.3701L6.88026 17.4164C6.88026 17.4164 6.98791 17.3395 7.04944 17.3241C7.11097 17.3241 7.1879 17.3395 7.23404 17.401L8.03392 18.2009C8.12621 18.2932 8.12621 18.447 8.03392 18.5393C7.94163 18.6316 7.7878 18.6316 7.69551 18.5393L7.08021 17.924L6.46493 18.6777C6.46493 18.6777 6.34186 18.77 6.28033 18.77Z" fill="#1F1F1F"/>
<path d="M7.71003 18.77C7.71003 18.77 7.60235 18.7546 7.5562 18.7085C7.44852 18.6162 7.43316 18.4778 7.52545 18.3701L8.30993 17.4164C8.30993 17.4164 8.41761 17.3395 8.47914 17.3241C8.54067 17.3241 8.61757 17.3395 8.66372 17.401L9.46359 18.2009C9.55589 18.2932 9.55589 18.447 9.46359 18.5393C9.3713 18.6316 9.21748 18.6316 9.12519 18.5393L8.50991 17.924L7.89461 18.6777C7.89461 18.6777 7.77156 18.77 7.71003 18.77Z" fill="#1F1F1F"/>
<path d="M9.14166 18.77C9.14166 18.77 9.034 18.7546 8.98785 18.7085C8.88018 18.6162 8.86479 18.4778 8.95708 18.3701L9.74156 17.4164C9.74156 17.4164 9.84924 17.3395 9.91077 17.3241C9.9723 17.3241 10.0492 17.3395 10.0954 17.401L10.8952 18.2009C10.9875 18.2932 10.9875 18.447 10.8952 18.5393C10.8029 18.6316 10.6491 18.6316 10.5568 18.5393L9.94154 17.924L9.32626 18.6777C9.32626 18.6777 9.20319 18.77 9.14166 18.77Z" fill="#1F1F1F"/>
<path d="M10.5714 18.77C10.5714 18.77 10.4637 18.7546 10.4175 18.7085C10.3099 18.6162 10.2945 18.4778 10.3868 18.3701L11.1713 17.4164C11.1713 17.4164 11.2789 17.3395 11.3405 17.3241C11.402 17.3241 11.4789 17.3395 11.525 17.401L12.3249 18.2009C12.4172 18.2932 12.4172 18.447 12.3249 18.5393C12.2326 18.6316 12.0788 18.6316 11.9865 18.5393L11.3712 17.924L10.7559 18.6777C10.7559 18.6777 10.6329 18.77 10.5714 18.77Z" fill="#1F1F1F"/>
<path d="M12.001 18.77C12.001 18.77 11.8934 18.7546 11.8472 18.7085C11.7396 18.6162 11.7242 18.4778 11.8165 18.3701L12.6009 17.4164C12.6009 17.4164 12.7086 17.3395 12.7701 17.3241C12.8317 17.3241 12.9086 17.3395 12.9547 17.401L13.7546 18.2009C13.8469 18.2932 13.8469 18.447 13.7546 18.5393C13.6623 18.6316 13.5085 18.6316 13.4162 18.5393L12.8009 17.924L12.1856 18.6777C12.1856 18.6777 12.0626 18.77 12.001 18.77Z" fill="#1F1F1F"/>
<path d="M13.4307 18.77C13.4307 18.77 13.323 18.7546 13.2769 18.7085C13.1692 18.6162 13.1539 18.4778 13.2462 18.3701L14.0306 17.4164C14.0306 17.4164 14.1383 17.3395 14.1998 17.3241C14.2614 17.3241 14.3383 17.3395 14.3844 17.401L15.1843 18.2009C15.2766 18.2932 15.2766 18.447 15.1843 18.5393C15.092 18.6316 14.9382 18.6316 14.8459 18.5393L14.2306 17.924L13.6153 18.6777C13.6153 18.6777 13.4923 18.77 13.4307 18.77Z" fill="#1F1F1F"/>
<path d="M14.8643 18.77C14.8643 18.77 14.7567 18.7546 14.7105 18.7085C14.6028 18.6162 14.5874 18.4778 14.6797 18.3701L15.4642 17.4164C15.4642 17.4164 15.5719 17.3395 15.6334 17.3241C15.695 17.3241 15.7719 17.3395 15.818 17.401L16.6179 18.2009C16.7102 18.2932 16.7102 18.447 16.6179 18.5393C16.5256 18.6316 16.3718 18.6316 16.2795 18.5393L15.6642 17.924L15.0489 18.6777C15.0489 18.6777 14.9258 18.77 14.8643 18.77Z" fill="#1F1F1F"/>
<path d="M16.2784 18.77C16.2784 18.77 16.1707 18.7546 16.1246 18.7085C16.0169 18.6162 16.0015 18.4778 16.0938 18.3701L16.8783 17.4164C16.8783 17.4164 16.986 17.3395 17.0475 17.3241C17.109 17.3241 17.1859 17.3395 17.2321 17.401L18.032 18.2009C18.1243 18.2932 18.1243 18.447 18.032 18.5393C17.9397 18.6316 17.7859 18.6316 17.6936 18.5393L17.0783 17.924L16.463 18.6777C16.463 18.6777 16.3399 18.77 16.2784 18.77Z" fill="#1F1F1F"/>
<path d="M17.71 18.77C17.71 18.77 17.6023 18.7546 17.5562 18.7085C17.4485 18.6162 17.4332 18.4778 17.5255 18.3701L18.3099 17.4164C18.3099 17.4164 18.4176 17.3395 18.4791 17.3241C18.5407 17.3241 18.6176 17.3395 18.6637 17.401L19.4636 18.2009C19.5559 18.2932 19.5559 18.447 19.4636 18.5393C19.3713 18.6316 19.2175 18.6316 19.1252 18.5393L18.5099 17.924L17.8946 18.6777C17.8946 18.6777 17.7716 18.77 17.71 18.77Z" fill="#1F1F1F"/>
<path d="M19.1397 18.77C19.1397 18.77 19.032 18.7546 18.9859 18.7085C18.8782 18.6162 18.8628 18.4778 18.9551 18.3701L19.7396 17.4164C19.7396 17.4164 19.8473 17.3395 19.9088 17.3241C19.9703 17.3241 20.0473 17.3395 20.0934 17.401L20.8933 18.2009C20.9856 18.2932 20.9856 18.447 20.8933 18.5393C20.801 18.6316 20.6472 18.6316 20.5549 18.5393L19.9396 17.924L19.3243 18.6777C19.3243 18.6777 19.2012 18.77 19.1397 18.77Z" fill="#1F1F1F"/>
<path d="M12.0009 24C11.5856 24 11.1856 23.8923 10.8165 23.677L2.47935 18.8624C1.74101 18.447 1.29492 17.6472 1.29492 16.8012V7.17193C1.29492 6.32591 1.75639 5.54142 2.47935 5.1261L10.8165 0.311489C11.5394 -0.10383 12.4624 -0.10383 13.1853 0.311489L21.5224 5.1261C22.2608 5.54142 22.7069 6.34129 22.7069 7.17193V16.8012C22.7069 17.6472 22.2454 18.4317 21.5224 18.8624L13.1853 23.677C12.8161 23.8923 12.4162 24 12.0009 24ZM12.0009 0.480692C11.6779 0.480692 11.3395 0.557603 11.0626 0.726807L2.72545 5.54142C2.14093 5.87983 1.78714 6.51049 1.78714 7.17193V16.8012C1.78714 17.478 2.15631 18.1086 2.72545 18.4317L11.0626 23.2463C11.6471 23.5847 12.3701 23.5847 12.9546 23.2463L21.2917 18.4317C21.8762 18.0933 22.23 17.4626 22.23 16.8012V7.17193C22.23 6.49511 21.8609 5.87983 21.2917 5.54142L12.9546 0.726807C12.6623 0.557603 12.3393 0.480692 12.0163 0.480692H12.0009Z" fill="#1F1F1F"/>
</svg>
