<svg width="24" height="24" viewBox="0 0 24 24" fill="none" xmlns="http://www.w3.org/2000/svg">
<path fill-rule="evenodd" clip-rule="evenodd" d="M2.89044 16.2111C2.12316 16.2111 1.32017 16.1754 0.535038 16.1219L0.0175781 16.0862V11.9107L0.659959 11.9999C0.659959 11.9999 1.62354 12.1427 3.12242 12.1427C7.04807 12.1427 14.2927 11.1969 18.5217 4.82666L18.8429 4.32703L21.9834 6.61105L21.6979 7.05714C21.6443 7.14636 15.8094 16.2111 2.90828 16.2111M1.12389 15.0334C1.71274 15.0691 2.3016 15.0869 2.87261 15.0869C13.5611 15.0869 19.1105 8.62741 20.4131 6.89655L19.0927 5.93298C14.5425 12.3033 7.15513 13.2668 3.08673 13.2668C2.24806 13.2668 1.56999 13.2311 1.12389 13.1776V15.0155V15.0334Z" fill="#1F1F1F"/>
<path fill-rule="evenodd" clip-rule="evenodd" d="M24 19.6729H0V15.1405H24V19.6729ZM1.12415 18.5487H22.858V16.2647H1.12415V18.5487Z" fill="#1F1F1F"/>
<path d="M12.9171 13.5805L11.9531 14.1588L13.0455 15.9797L14.0095 15.4014L12.9171 13.5805Z" fill="#1F1F1F"/>
<path d="M14.3682 12.8747L13.4258 13.4877L15.0602 16.0007L16.0026 15.3878L14.3682 12.8747Z" fill="#1F1F1F"/>
<path d="M16.1956 11.8745L15.2168 12.4274L17.2265 15.9853L18.2053 15.4324L16.1956 11.8745Z" fill="#1F1F1F"/>
<path d="M17.6203 10.8501L16.6562 11.4285L19.4009 16.0037L20.365 15.4253L17.6203 10.8501Z" fill="#1F1F1F"/>
<path d="M19.1436 9.56359L18.1719 10.1289L21.5817 15.9899L22.5534 15.4246L19.1436 9.56359Z" fill="#1F1F1F"/>
</svg>
