<svg width="24" height="24" viewBox="0 0 24 24" fill="none" xmlns="http://www.w3.org/2000/svg">
<g clip-path="url(#clip0_1426_2163)">
<mask id="mask0_1426_2163" style="mask-type:luminance" maskUnits="userSpaceOnUse" x="0" y="0" width="24" height="24">
<path d="M12 0C18.625 0 24 5.375 24 12C24 18.625 18.625 24 12 24C5.375 24 0 18.625 0 12C0 5.375 5.375 0 12 0Z" fill="white"/>
</mask>
<g mask="url(#mask0_1426_2163)">
<path fill-rule="evenodd" clip-rule="evenodd" d="M17.8338 12.6667C17.8338 12.7361 17.8338 12.7917 17.8615 12.8611C18.0282 13.1806 18.4588 13.0417 18.4588 12.7639V12.7083C18.4588 12.5556 18.3338 12.4028 18.181 12.4028C18.056 12.4028 17.9588 12.4306 17.8893 12.5278C17.8477 12.5694 17.8199 12.625 17.8199 12.6944M13.9449 15.9028C13.9449 16.0139 13.9727 16.0972 14.0421 16.1667C14.2227 16.3472 14.4727 16.2361 14.5699 16.0833C14.5977 16.0417 14.5977 16.0139 14.6115 15.9583C14.6115 15.875 14.5838 15.7778 14.5282 15.7222C14.3199 15.4861 13.9449 15.6806 13.9449 15.9028ZM15.2504 17.5278C15.2504 17.6389 15.2643 17.7222 15.3477 17.7917C15.431 17.875 15.4865 17.8889 15.5977 17.8889C15.7365 17.8889 15.8893 17.7639 15.8893 17.5833C15.8893 17.4444 15.8338 17.3194 15.7227 17.2639C15.5977 17.2083 15.4588 17.25 15.3615 17.3194C15.3338 17.3472 15.3199 17.3611 15.2921 17.4028C15.2782 17.4306 15.2504 17.4861 15.2504 17.5278ZM15.8893 18.8333C15.8893 18.9722 15.9727 19.0833 16.0838 19.1389C16.306 19.25 16.5421 19.0556 16.5421 18.875C16.5421 18.7639 16.5421 18.7083 16.4588 18.6111C16.3338 18.4722 16.1115 18.5 15.9865 18.6111C15.9588 18.6389 15.9449 18.6528 15.9171 18.6944C15.9032 18.7222 15.8893 18.7778 15.8893 18.8194V18.8333ZM16.5421 16.5417C16.5421 16.7778 16.5838 16.9722 16.7227 17.1528C16.8754 17.3611 17.181 17.5556 17.4865 17.5556C17.681 17.5556 17.7921 17.5278 17.9727 17.4306C18.0143 17.4028 18.0977 17.3472 18.1393 17.3194C18.1671 17.2917 18.181 17.2778 18.2088 17.25C18.2782 17.1806 18.3893 17.2222 18.5143 17.2222C18.6949 17.2222 18.9032 17.1667 19.0282 17.1111C19.0699 17.0972 19.0977 17.0833 19.1254 17.0556C19.1949 17.0139 19.2504 16.9722 19.306 16.9167C19.3199 16.9028 19.3338 16.8889 19.3477 16.875C19.3615 16.8611 19.3754 16.8472 19.3893 16.8333C19.4727 16.75 19.5282 16.6667 19.5838 16.5694C19.7088 16.3472 19.7643 16.1389 19.7643 15.875C19.7643 15.6667 19.681 15.4444 19.5838 15.2778C19.5699 15.25 19.5421 15.2083 19.5282 15.1806C19.3893 15 19.2365 14.8611 19.0282 14.75C18.7088 14.5833 18.3615 14.5833 18.0282 14.6944C17.8338 14.7639 17.7365 14.8333 17.5838 14.9583C17.4588 15.0556 17.3615 15.2361 17.2921 15.3889C17.2643 15.4444 17.2504 15.5 17.2227 15.5556C17.181 15.6667 17.1949 15.6389 17.0977 15.6667C16.9449 15.7222 16.7921 15.8472 16.7088 15.9861C16.6949 16.0139 16.681 16.0278 16.6671 16.0556L16.5838 16.2083C16.5838 16.2083 16.5699 16.2639 16.556 16.3056C16.5421 16.3611 16.5282 16.4444 16.5282 16.5139L16.5421 16.5417ZM18.5282 16.5972C18.2782 16.5972 18.0421 16.3611 17.8338 16.6944C17.7504 16.8333 17.7921 16.8056 17.6671 16.875C17.6393 16.875 17.6115 16.9167 17.5838 16.9167C17.4449 16.9167 17.3893 16.9167 17.306 16.8472C17.1532 16.7361 17.1532 16.5278 17.2782 16.3889C17.4727 16.1944 17.7782 16.3889 17.8338 15.9722C17.8477 15.8333 17.8615 15.6944 17.9449 15.5972C18.0421 15.4722 18.181 15.375 18.3338 15.3333C18.5143 15.2917 18.6949 15.3333 18.8338 15.4306C18.8477 15.4306 18.8615 15.4583 18.8754 15.4722C18.8893 15.4861 18.9032 15.5 18.9171 15.5139C19.1532 15.7778 19.1949 16.1667 18.9449 16.4028C18.8615 16.4861 18.6949 16.6111 18.5143 16.6111L18.5282 16.5972ZM13.306 12.9722C13.306 13.1667 13.306 13.3194 13.3754 13.5C13.431 13.625 13.5004 13.7778 13.5977 13.875C13.6254 13.9028 13.6254 13.9167 13.6532 13.9444C13.806 14.0694 13.8615 14.1389 14.0838 14.2222L14.3338 14.3194C14.4171 14.3472 14.4032 14.3889 14.5004 14.5139C14.5143 14.5278 14.5421 14.5694 14.556 14.5833C14.7365 14.7778 14.8893 14.8889 15.1532 14.9444C15.1949 14.9444 15.2088 14.9722 15.2365 14.9722C15.6254 14.9722 15.4171 14.9722 15.7227 14.9306C15.806 14.9167 15.8893 14.9028 15.9449 14.8333C15.9727 14.8056 15.9449 14.8194 15.9865 14.8056C16.056 14.8056 16.0143 14.7778 16.0699 14.75C16.0838 14.75 16.0977 14.75 16.1115 14.7222C16.1115 14.7222 16.1115 14.6944 16.1393 14.6806C16.1532 14.6806 16.1671 14.6806 16.181 14.6528C16.1949 14.625 16.181 14.625 16.2088 14.6111C16.2227 14.6111 16.2504 14.6111 16.2782 14.5556C16.2921 14.5278 16.2782 14.5417 16.306 14.5139C16.306 14.5139 16.3199 14.4861 16.3338 14.4722C16.3893 14.4028 16.3893 14.375 16.431 14.3056C16.4727 14.1944 16.5282 14.0417 16.5282 13.875C16.6393 13.8194 16.681 13.8056 16.7921 13.7222C16.8338 13.6806 16.8615 13.6528 16.9032 13.625C17.0699 13.4583 17.1949 13.1528 17.1949 12.875C17.1949 12.6111 17.0977 12.3472 16.9449 12.1528C16.7365 11.9028 16.4032 11.7361 16.056 11.7361C15.8893 11.7361 15.6532 11.8056 15.5143 11.875L15.3754 11.9722C15.3754 11.9722 15.2088 11.875 15.0699 11.8194C14.8893 11.75 14.7782 11.7361 14.5838 11.7361C14.2921 11.7361 13.9171 11.8889 13.7088 12.1111C13.6254 12.2083 13.5699 12.2639 13.5004 12.375C13.4032 12.5417 13.3199 12.7639 13.3199 12.9861L13.306 12.9722ZM15.8754 13.875C15.8754 14.0139 15.8338 14.0972 15.7504 14.1806C15.5143 14.4167 15.1393 14.3611 15.0004 14.0556C14.9865 14.0139 14.9727 13.9861 14.9588 13.9444C14.8199 13.6111 14.6949 13.7222 14.4171 13.6528C14.1949 13.5972 13.9727 13.3472 13.9727 13.0972C13.9727 12.9583 13.9727 12.8889 14.0282 12.7639C14.0699 12.6806 14.0977 12.6528 14.1532 12.5833C14.2643 12.4722 14.4171 12.4167 14.5838 12.4028C14.8615 12.375 15.0004 12.5417 15.1671 12.7083C15.2921 12.8333 15.431 12.8194 15.5699 12.7361C15.6949 12.6667 15.681 12.5556 15.8199 12.4722C16.0699 12.3194 16.3754 12.4444 16.4865 12.6667C16.5838 12.8472 16.5421 13.0417 16.4171 13.1944C16.2782 13.3611 15.9727 13.3056 15.8893 13.4861C15.8477 13.5833 15.8754 13.7361 15.8754 13.875ZM11.2227 14.9861L11.2643 15.8194C11.3199 16.2778 11.3754 16.7222 11.5143 17.1667C11.5143 17.1944 11.5282 17.2222 11.5421 17.2639L11.6115 17.4444C11.681 17.625 11.7504 17.8056 11.8199 17.9722L11.9727 18.3056C12.181 18.7361 12.4588 19.1389 12.7504 19.4861C12.7643 19.5139 12.7782 19.5278 12.806 19.5556L12.9171 19.6806C12.9171 19.6806 12.931 19.6944 12.9449 19.7083C12.9449 19.7083 12.9588 19.7222 12.9727 19.7361C13.056 19.8333 13.1393 19.9306 13.2365 20.0139L13.7088 20.4583C13.6115 20.4583 13.5282 20.375 13.4588 20.3056L13.2643 20.0972C13.2643 20.0972 13.1671 20 13.1254 19.9583L12.7227 19.5694C12.7227 19.5694 12.5838 19.4444 12.5282 19.375L12.2088 19.0278C12.2088 19.0278 12.1671 18.9861 12.1393 18.9583C12.1393 18.9444 12.1254 18.9444 12.1115 18.9167L11.9588 18.7361C11.8754 18.6389 11.7921 18.5417 11.7227 18.4306C11.6115 18.2639 11.5143 18.1111 11.4171 17.9444L11.2365 17.5972C11.2365 17.5972 11.2088 17.5417 11.1949 17.5139C11.181 17.4861 11.1671 17.4583 11.1532 17.4167C11.0838 17.25 11.0143 17.0972 10.9588 16.9306C10.9032 16.7639 10.8477 16.5972 10.806 16.4167L10.6949 15.9861C10.6532 15.8194 10.5977 15.5417 10.4865 15.3889C10.431 15.3056 10.3754 15.2917 10.2643 15.2917C10.2227 15.2917 10.1254 15.3194 10.0977 15.3472C9.93099 15.4444 9.9171 15.625 9.93099 15.8333C9.93099 15.875 9.93099 15.8889 9.93099 15.9306V16.25C9.93099 16.3333 9.93099 16.3889 9.93099 16.4722C9.93099 16.5139 9.93099 16.5278 9.93099 16.5694C9.93099 16.6806 9.97266 16.9583 9.98655 17.0694C10.0282 17.3194 10.0699 17.5556 10.1393 17.7917L10.2088 18.0556C10.2088 18.0556 10.2227 18.1111 10.2365 18.1389C10.2504 18.1944 10.2782 18.25 10.2921 18.3056C10.306 18.3611 10.3338 18.4167 10.3477 18.4722C10.4171 18.6528 10.4865 18.8333 10.5699 19.0139C10.5838 19.0417 10.5977 19.0694 10.6115 19.0972C10.6393 19.1528 10.6671 19.1944 10.681 19.25C10.8477 19.5833 11.0421 19.9167 11.2643 20.2083C11.306 20.2639 11.4449 20.4167 11.4449 20.4722C11.306 20.4722 10.7227 20.4722 10.6393 20.4722C10.5977 20.4722 10.4865 20.4722 10.4449 20.4722C10.3477 20.4722 10.3615 20.4444 10.3199 20.3889C10.056 20.0972 9.84766 19.75 9.6671 19.4028C9.62543 19.3056 9.58377 19.2083 9.5421 19.1111C9.34766 18.625 9.33377 18.2222 9.2921 17.7222C9.27821 17.5417 9.2921 17.375 9.12543 17.2778C9.09766 17.2778 9.08377 17.25 9.05599 17.25C9.0421 17.25 8.98654 17.2361 8.95877 17.2361C8.90321 17.2361 8.84766 17.25 8.80599 17.2778C8.62543 17.375 8.62543 17.5972 8.62543 17.7778C8.62543 18.0556 8.6671 18.3056 8.72266 18.5694C8.80599 18.9722 8.93099 19.375 9.11155 19.75C9.23655 20.0139 9.33377 20.1389 9.48655 20.3889C9.50043 20.4167 9.51432 20.4444 9.52821 20.4583C9.45877 20.4583 9.4171 20.4583 9.34766 20.4583C9.27821 20.4583 9.22266 20.4583 9.15321 20.4583C9.08377 20.4583 9.0421 20.4583 8.95877 20.4583C8.84766 20.4583 8.72266 20.4583 8.62543 20.4583C8.56988 20.4583 8.52821 20.4583 8.47266 20.4583C8.40321 20.4444 8.27821 20.3194 8.22266 20.25C8.1671 20.1806 8.09766 20.125 8.02821 20.0556C8.01432 20.0417 8.01432 20.0278 7.98655 20.0139L7.63932 19.5972C7.4171 19.3056 7.20877 18.9861 7.08377 18.6389L7.00043 18.4167C6.9171 18.1944 6.84766 17.9444 6.7921 17.7083C6.7921 17.6944 6.7921 17.6667 6.7921 17.6389C6.7921 17.5972 6.7921 17.5972 6.7921 17.5694C6.87543 17.5278 6.93099 17.4722 7.00043 17.4028L7.48655 16.8889C7.48655 16.8889 7.51432 16.8611 7.52821 16.8333L7.62543 16.75C7.62543 16.75 7.65321 16.7222 7.6671 16.7083C7.70877 16.6667 7.75043 16.6111 7.80599 16.5694C7.86155 16.5278 7.90321 16.4861 7.94488 16.4444C7.95877 16.4167 7.97266 16.4167 7.98655 16.3889C8.00043 16.375 8.01432 16.3611 8.02821 16.3472C8.0421 16.3333 8.05599 16.3194 8.08377 16.3056L8.36155 16.0278C8.43099 15.9722 8.48655 15.9167 8.5421 15.8333C8.56988 15.7917 8.59766 15.7778 8.63932 15.75L8.73655 15.6667C8.73655 15.6667 8.7921 15.6111 8.81988 15.5694C8.87543 15.5 8.94488 15.4583 9.01432 15.3889C9.0421 15.3611 9.06988 15.3333 9.11155 15.2917C9.18099 15.2222 9.25043 15.1389 9.33377 15.0694C9.43099 14.9861 9.70877 14.7361 9.73655 14.6389H11.2504C11.2504 14.6389 11.2365 14.8472 11.2365 14.9444L11.2227 14.9861ZM6.70877 16.7639V14.6667H8.80599C8.80599 14.6667 8.72266 14.75 8.68099 14.8056C8.56988 14.9167 8.5421 14.9583 8.4171 15.0694C8.37543 15.1111 8.23655 15.25 8.19488 15.3056C8.19488 15.3056 8.19488 15.3056 8.19488 15.3194C8.18099 15.3472 8.1671 15.3333 8.13932 15.3611C8.09766 15.4028 8.08377 15.4028 8.0421 15.4583L7.94488 15.5556C7.87543 15.625 7.75043 15.7361 7.68099 15.8194L7.38932 16.1111C7.38932 16.1111 7.12543 16.3611 7.09766 16.4028C7.06988 16.4444 7.0421 16.4583 7.00043 16.5C6.97266 16.5278 6.95877 16.5417 6.94488 16.5694C6.9171 16.5972 6.90321 16.6111 6.87543 16.6389C6.84766 16.6667 6.83377 16.6806 6.80599 16.7083C6.7921 16.7222 6.77821 16.7222 6.76432 16.7361C6.75043 16.75 6.76432 16.75 6.72266 16.7639H6.70877ZM11.8338 12.5694H11.8754V14.0139H10.4449C10.4449 14.0139 10.4588 13.9722 10.5004 13.9306L11.6671 12.7639C11.6671 12.7639 11.8338 12.6389 11.8338 12.5694ZM9.15321 14.0278C8.6671 14.0278 8.20877 14.0417 7.72266 14.0417C7.68099 14.0417 7.65321 14.0417 7.59766 14.0417C7.50043 14.0417 7.43099 14.0417 7.34766 14.0417V13.5139C7.34766 13.5139 7.34766 13.4583 7.34766 13.4306V12.6806C7.34766 12.4444 7.37543 12.2083 7.44488 12.0417C7.50043 11.8889 7.65321 11.7222 7.77821 11.6389C8.0421 11.4583 8.4171 11.4722 8.72266 11.4722C8.84766 11.4722 8.95877 11.4722 9.08377 11.4722H9.45877C9.58377 11.4722 9.69488 11.4722 9.81988 11.4722C10.0699 11.4722 10.306 11.4722 10.556 11.4722C10.681 11.4722 10.7921 11.4722 10.9171 11.4722C11.2088 11.4722 11.5004 11.5972 11.6671 11.8472C11.6393 11.8889 11.0699 12.4444 10.9727 12.5417C10.8477 12.6806 10.6393 12.8889 10.5004 13.0278L10.1671 13.3611C10.0282 13.5139 9.76432 13.7778 9.61155 13.9167C9.56988 13.9583 9.50043 14.0139 9.43099 14.0417C9.33377 14.0694 9.26432 14.0417 9.15321 14.0417V14.0278ZM6.69488 13.5694V13.7222C6.69488 13.8333 6.69488 13.9306 6.69488 14.0278H6.05599V12.7222C6.05599 12.3472 6.01432 12.1528 6.26432 11.8194C6.30599 11.7639 6.37543 11.6944 6.43099 11.6528C6.59766 11.5139 6.7921 11.4583 7.00043 11.4583L6.90321 11.6528C6.86154 11.7222 6.83377 11.7917 6.80599 11.8611C6.75043 12 6.70877 12.2083 6.70877 12.3611C6.70877 12.5694 6.70877 12.75 6.70877 12.9583C6.70877 13.0556 6.70877 13.1528 6.70877 13.25V13.5556L6.69488 13.5694ZM9.22266 3.66667C9.33377 3.66667 9.73655 3.69444 9.80599 3.73611C9.81988 3.75 9.84766 3.76389 9.86155 3.79167C9.9171 3.88889 9.94488 3.98611 9.94488 4.11111C9.94488 4.81944 9.94488 5.5 9.94488 6.20833C9.94488 6.40278 9.94488 6.58333 9.94488 6.77778C9.94488 6.83333 9.94488 6.86111 9.94488 6.91667V10.8056H8.6671V10.4583C8.6671 10.4583 8.65321 10.3889 8.65321 10.3472C8.65321 10.1944 8.65321 10.0278 8.65321 9.86111C8.65321 9.69444 8.65321 9.55556 8.65321 9.38889V5.95833C8.65321 5.47222 8.65321 5.01389 8.65321 4.54167C8.65321 4.47222 8.65321 4.43056 8.65321 4.375C8.65321 4.25 8.65321 3.98611 8.69488 3.875C8.73655 3.79167 8.80599 3.75 8.90321 3.72222C8.98654 3.69444 9.11155 3.68056 9.22266 3.68056V3.66667ZM7.68099 20.6111C7.88932 20.8611 8.25043 21.0139 8.68099 21.1111C8.75043 21.1111 9.2921 21.1111 9.37543 21.1111C9.52821 21.1111 9.6671 21.1111 9.83377 21.1111H10.306C10.3893 21.1111 10.4449 21.1111 10.5282 21.1111H11.2365C11.3199 21.1111 11.3754 21.1111 11.4588 21.1111C11.5282 21.1111 11.6254 21.1111 11.6949 21.1111C11.9032 21.1111 11.9727 21.1111 12.1532 21.1111C12.306 21.1111 12.4171 21.0694 12.4727 20.9722C12.5977 20.7917 12.4865 20.6111 12.3754 20.4722C12.2365 20.2917 12.0838 20.1389 11.9449 19.9583L11.7365 19.6944C11.6393 19.5556 11.3338 19.0972 11.306 18.9583C11.3338 18.9861 11.3893 19.0556 11.4171 19.0972L11.6671 19.3889C11.8477 19.5972 12.056 19.7917 12.2365 19.9861L13.0977 20.8472C13.2782 21.0278 13.2643 21.0972 13.556 21.125H14.0421C14.1949 21.125 14.1532 21.125 14.2643 21.125C14.4449 21.125 14.8338 21.1389 14.9588 21.0833C15.0421 21.0278 15.1393 20.9167 15.1115 20.75C15.0838 20.5556 14.9588 20.5139 14.8199 20.4306L13.9727 19.8056C13.8615 19.7083 13.7504 19.6111 13.6532 19.5139L13.4171 19.2639C13.4171 19.2639 13.3477 19.1806 13.306 19.125C13.181 18.9722 13.056 18.8056 12.9449 18.6389L12.8477 18.4861C12.8477 18.4861 12.8199 18.4444 12.806 18.4167C12.7921 18.3889 12.7782 18.3611 12.7643 18.3472C12.7504 18.3194 12.7365 18.2917 12.7227 18.2639C12.5977 18.0556 12.4865 17.8333 12.3893 17.6111C12.3199 17.4444 12.2504 17.25 12.1949 17.0694C12.181 17 12.1532 16.9444 12.1393 16.875C12.1115 16.7361 12.0699 16.6111 12.0421 16.4722C11.931 15.9167 11.9032 15.3194 11.9032 14.6528C12.3477 14.6528 12.5282 14.6528 12.556 14.2778C12.556 14.1111 12.556 13.3611 12.556 13.25C12.5699 13.1528 12.556 12.8611 12.556 12.7361C12.556 12.4861 12.556 12.2361 12.5004 12.0139C12.5004 11.9861 12.4727 11.9306 12.5004 11.9167C12.5143 11.9028 12.5421 11.875 12.5699 11.8611L13.4727 10.9722C13.4727 10.9722 13.4865 10.9583 13.5004 10.9444C13.6532 10.7639 13.931 10.5 14.1115 10.3333L14.556 9.88889L15.0004 9.44444C15.0004 9.44444 15.0421 9.40278 15.056 9.375C15.1393 9.30555 15.1393 9.26389 15.181 9.25C15.2365 9.20833 15.2782 9.18056 15.3199 9.125L15.4727 8.97222L15.5004 8.94444L15.806 8.63889L15.8754 8.55555C15.8754 8.55555 15.9032 8.52778 15.931 8.51389L16.0699 8.375C16.0699 8.375 16.0977 8.31944 16.1254 8.29167C16.1532 8.26389 16.1671 8.25 16.1949 8.23611L16.4865 7.95833L20.1671 4.27778L20.9588 3.48611C20.9588 3.48611 20.9865 3.47222 20.9865 3.45833L21.0143 3.43056L21.4727 2.97222L21.0004 2.5L20.5282 2.97222C20.5282 2.97222 20.3893 3.11111 20.3477 3.15278L19.9588 3.54167L19.8615 3.63889L16.7365 6.77778C16.7365 6.77778 16.6115 6.91667 16.5421 6.97222L16.4449 7.06944L16.3754 7.13889L16.3477 7.16667C16.2782 7.23611 16.2088 7.31944 16.1254 7.38889L15.6532 7.86111L15.6254 7.88889L15.5282 7.98611C15.5282 7.98611 15.4865 8.02778 15.4727 8.05556L15.2227 8.30556C15.2227 8.30556 15.1949 8.33333 15.181 8.36111L14.8893 8.65278C14.7921 8.75 14.7088 8.86111 14.5977 8.94444C14.5699 8.95833 14.5421 8.98611 14.5143 9.02778L14.2504 9.29167C14.1532 9.38889 14.056 9.48611 14.0004 9.54167L13.556 9.97222C13.556 9.97222 13.5282 10.0139 13.5143 10.0278C13.431 10.125 13.1671 10.375 13.056 10.4722C12.9171 10.5972 12.7504 10.7778 12.6115 10.9167C12.5699 10.9583 12.2643 11.2778 12.2088 11.3194C12.1671 11.2917 12.1115 11.2222 12.0699 11.1944C11.9449 11.0972 11.8477 11.0139 11.7088 10.9444C11.3477 10.7639 11.0838 10.7778 10.681 10.7778C10.681 10.7222 10.681 10.6806 10.681 10.625C10.681 10.5556 10.681 10.5139 10.681 10.4583V10.125C10.681 10.0139 10.681 9.91667 10.681 9.80556V7.18056C10.681 6.36111 10.7088 5.55556 10.6949 4.73611C10.6949 4.69444 10.6949 4.68056 10.6949 4.63889V4.23611C10.681 3.97222 10.6949 3.76389 10.5699 3.54167C10.5282 3.45833 10.4727 3.375 10.3893 3.31944C10.3615 3.30556 10.3615 3.29167 10.3338 3.27778C10.0699 3.08333 9.77821 3.01389 9.4171 3.01389C9.12543 3.01389 8.65321 3.08333 8.44488 3.26389C8.37543 3.33333 8.30599 3.38889 8.25043 3.47222C8.15321 3.625 8.08377 3.86111 8.08377 4.11111C8.08377 4.18056 8.06988 4.23611 8.08377 4.30556V6.51389C8.08377 7.05556 8.11155 7.58333 8.11155 8.125V8.65278C8.11155 8.65278 8.09766 8.75 8.11155 8.80556C8.11155 8.83333 8.11155 8.86111 8.11155 8.875C8.11155 8.90278 8.11155 8.91667 8.11155 8.94444C8.12543 9.11111 8.11155 9.375 8.11155 9.55556V10.4861C8.11155 10.5972 8.11155 10.6806 8.11155 10.7917C7.62543 10.7917 7.01432 10.7361 6.58377 10.9028C6.52821 10.9306 6.47266 10.9444 6.4171 10.9722C6.31988 11.0278 6.20877 11.0833 6.12543 11.1528L6.00043 11.2639C6.00043 11.2639 5.81988 11.4722 5.7921 11.5278C5.52821 11.9444 5.52821 12.4722 5.52821 12.9722C5.52821 13.0694 5.52821 13.1389 5.52821 13.2361C5.52821 13.3194 5.52821 13.4306 5.52821 13.5V13.7778C5.52821 13.9722 5.51432 14.1944 5.52821 14.3889C5.55599 14.6111 5.68099 14.625 5.88932 14.6389C5.97266 14.6389 6.08377 14.6389 6.1671 14.6528V16.8333C6.1671 16.8333 6.1671 16.8889 6.1671 16.9028C6.1671 16.9306 6.1671 16.9583 6.1671 16.9861C6.18099 17.0972 6.18099 17.25 6.18099 17.375C6.18099 17.3889 6.11155 17.4306 6.09766 17.4444C6.08377 17.4583 6.06988 17.4722 6.05599 17.4861C6.00043 17.5278 5.95877 17.5694 5.9171 17.625L5.52821 18.0139L3.23655 20.3889C3.23655 20.3889 3.18099 20.4444 3.13932 20.4861L2.59766 21.0278C2.73655 21.1667 2.87543 21.3194 2.93099 21.3611C2.94488 21.375 2.95877 21.375 2.97266 21.4028L3.06988 21.4861L3.5421 21.0139C3.5421 21.0139 5.47266 19 5.58377 18.8889L6.08377 18.3889L6.19488 18.2639C6.19488 18.2639 6.20877 18.25 6.22266 18.2361C6.23655 18.2222 6.26432 18.1806 6.27821 18.1667C6.31988 18.1667 6.34766 18.1806 6.36155 18.2222C6.38932 18.3333 6.36155 18.3611 6.44488 18.5694C6.61155 19.0139 6.87543 19.4722 7.13932 19.8611C7.18099 19.9167 7.23655 20.0139 7.2921 20.0694C7.30599 20.0833 7.30599 20.0972 7.31988 20.1111L7.72266 20.5694L7.75043 20.5972L7.68099 20.6111Z" fill="#1F1F1F"/>
</g>
<path fill-rule="evenodd" clip-rule="evenodd" d="M24 12C24 5.375 18.625 0 12 0C5.375 0 0 5.375 0 12C0 18.625 5.375 24 12 24C18.625 24 24 18.625 24 12ZM12 0.666667C18.2639 0.666667 23.3333 5.73611 23.3333 12C23.3333 18.2639 18.2639 23.3333 12 23.3333C5.73611 23.3333 0.666667 18.2639 0.666667 12C0.666667 5.73611 5.73611 0.666667 12 0.666667Z" fill="#1F1F1F"/>
</g>
<defs>
<clipPath id="clip0_1426_2163">
<rect width="24" height="24" fill="white"/>
</clipPath>
</defs>
</svg>
