<svg width="24" height="24" viewBox="0 0 24 24" fill="none" xmlns="http://www.w3.org/2000/svg">
<path fill-rule="evenodd" clip-rule="evenodd" d="M21.6122 15.2221C21.5011 15.2221 21.4039 15.1388 21.3761 15.0277C21.3344 14.8332 21.2094 14.6804 21.0706 14.4999L20.3622 13.611C19.64 12.6943 18.9039 11.7777 18.1678 10.8749C18.0706 10.7638 17.5844 10.5277 17.3761 10.5832C16.9178 10.7221 16.4594 11.2499 16.2372 11.5138C16.0705 11.7082 16.015 11.7777 15.8622 11.7777C15.7233 11.7777 15.6261 11.6527 15.64 11.5138C15.64 11.4304 15.6955 11.361 15.765 11.3193C15.7928 11.2916 15.8345 11.2499 15.8761 11.1943C16.1539 10.8749 16.6539 10.2916 17.2511 10.111C17.6817 9.97212 18.3622 10.3332 18.5567 10.5554C19.2928 11.4582 20.0289 12.3749 20.7511 13.2916L21.4317 14.1388C21.6122 14.3749 21.7928 14.5971 21.8622 14.8888C21.89 15.0277 21.8067 15.1527 21.6817 15.1804C21.6678 15.1804 21.64 15.1804 21.6261 15.1804" fill="#1F1F1F"/>
<path fill-rule="evenodd" clip-rule="evenodd" d="M10.6937 19.5833C10.5687 19.5833 10.4576 19.4861 10.4437 19.3611C10.4437 19.2778 10.4298 19.2083 10.4437 19.1389C10.4715 18.9444 10.5131 18.75 10.5548 18.5694C10.6937 17.9861 10.902 17.2222 11.3048 16.5278C11.6659 15.8889 12.1103 15.4583 12.6659 15.1806C12.7631 15.1389 12.8603 15.0972 12.9714 15.0694C13.0964 15.0278 13.2075 15 13.2909 14.9306C13.3603 14.875 13.4992 14.8611 13.5825 14.9028C13.6659 14.9306 13.7631 14.9306 13.8742 14.9306C13.9298 14.9306 13.9714 14.9306 14.027 14.9306C14.4853 14.9306 14.9298 15 15.3603 15.0694L15.5548 15.0972C15.8326 15.1389 16.1659 15.1806 16.4992 15.125C17.1798 15.0278 17.8464 14.9306 18.527 14.8472C18.6381 14.8333 18.9575 14.7917 19.2214 15.0417C19.3464 15.1667 19.402 15.3056 19.4436 15.4167C19.4575 15.4583 19.4714 15.5 19.4992 15.5417C19.5687 15.6667 19.5131 15.8056 19.402 15.875C19.277 15.9444 19.1381 15.8889 19.0687 15.7778C19.0409 15.7222 19.0131 15.6667 18.9853 15.5972C18.9576 15.5139 18.9298 15.4444 18.8742 15.4028C18.8186 15.3472 18.7492 15.3194 18.5825 15.3472C17.9159 15.4306 17.2353 15.5278 16.5687 15.625C16.1798 15.6806 15.8048 15.6389 15.4853 15.5972L15.2909 15.5694C14.8603 15.5 14.4437 15.4444 14.027 15.4444C13.9853 15.4444 13.9437 15.4444 13.902 15.4444C13.777 15.4444 13.6381 15.4444 13.4992 15.4167C13.3742 15.4861 13.2492 15.5278 13.1242 15.5694C13.0409 15.5972 12.9575 15.625 12.8881 15.6528C12.4159 15.875 12.0409 16.2639 11.7353 16.8056C11.3603 17.4583 11.1659 18.1667 11.0409 18.7222C10.9992 18.9028 10.9714 19.0694 10.9437 19.25C10.9437 19.25 10.9437 19.3472 10.9437 19.3611C10.9437 19.5 10.8603 19.6111 10.7214 19.625C10.7214 19.625 10.7215 19.625 10.7076 19.625" fill="#1F1F1F"/>
<path fill-rule="evenodd" clip-rule="evenodd" d="M18.8034 17.7361C18.7061 17.7361 18.6089 17.6667 18.5672 17.5695C18.5256 17.4445 18.5812 17.3056 18.72 17.2639C19.3589 17.0278 19.9839 16.75 20.7756 16.4028L21.5256 16.0556C21.6506 16.0139 21.7617 15.9584 21.8728 15.9028C21.9839 15.8611 22.0812 15.8056 22.1923 15.7639C22.3173 15.7084 22.4006 15.6389 22.4284 15.5278C22.4562 15.4584 22.4284 15.3889 22.4006 15.3472C22.3589 15.2778 22.2756 15.2222 22.2062 15.2084C22.1367 15.2084 22.0811 15.1945 22.0395 15.2084C21.9561 15.2222 21.8728 15.2361 21.7895 15.2222C21.72 15.2222 21.6645 15.25 21.5672 15.2917C21.4978 15.3195 21.4284 15.3611 21.3589 15.375C21.1923 15.4306 21.0256 15.4722 20.8589 15.5139L19.6645 15.8334C19.595 15.8611 19.2061 16.0695 19.1367 16.125C18.9978 16.25 18.8173 16.3195 18.6645 16.3889L18.5672 16.4306C18.0117 16.6806 17.4145 16.8889 16.7895 17.0695C16.7478 17.0695 16.7061 17.0834 16.6645 17.0834C16.5534 17.0834 16.4006 17 16.3867 16.8611C16.3867 16.7361 16.4561 16.6111 16.5811 16.5972C16.5811 16.5972 16.6228 16.5972 16.6367 16.5972C17.2756 16.4167 17.8589 16.2084 18.3867 15.9722L18.4978 15.9167C18.6228 15.8611 18.7478 15.8056 18.845 15.7361C18.9284 15.6667 19.4284 15.3889 19.5534 15.3472L20.7617 15.0278C20.9145 14.9861 21.0811 14.9445 21.2339 14.9028C21.2895 14.9028 21.3312 14.8611 21.3728 14.8472C21.4978 14.7917 21.6645 14.7084 21.8589 14.7361C21.8867 14.7361 21.9145 14.7361 21.9423 14.7361C22.0673 14.7084 22.1923 14.7222 22.2895 14.7361C22.4978 14.7639 22.6923 14.9028 22.8173 15.0972C22.9284 15.2778 22.97 15.4861 22.9145 15.6806C22.845 15.9445 22.6506 16.1389 22.3867 16.2361C22.2895 16.2778 22.1923 16.3195 22.0812 16.3611C21.9562 16.4167 21.845 16.4722 21.72 16.5139L20.9839 16.8472C20.1784 17.2084 19.5534 17.5 18.8867 17.7361C18.8589 17.7361 18.8311 17.75 18.8034 17.75" fill="#1F1F1F"/>
<path fill-rule="evenodd" clip-rule="evenodd" d="M13.4581 15.3472C13.4581 15.3472 13.4581 15.3472 13.4442 15.3472C13.3054 15.3472 13.2081 15.2222 13.222 15.0833C13.222 15 13.222 14.9444 13.222 14.8888C13.2498 14.6666 13.3748 14.5138 13.4859 14.3611C13.6665 14.125 13.8609 13.8888 14.0553 13.6527L14.4859 13.125C14.6109 12.9722 15.5414 11.7361 15.6664 11.5C15.6803 11.4166 15.7498 11.3333 15.847 11.3055C15.9859 11.2638 16.1109 11.3472 16.1526 11.4722C16.2081 11.6944 15.4998 12.6666 14.8887 13.4305L14.4581 13.9583C14.2637 14.1944 14.0831 14.4166 13.9026 14.6527C13.8192 14.75 13.7498 14.8472 13.7359 14.9444C13.7359 15.0277 13.7359 15.0694 13.7359 15.1111C13.7359 15.2361 13.6109 15.3333 13.4859 15.3333" fill="#1F1F1F"/>
<path fill-rule="evenodd" clip-rule="evenodd" d="M11.931 15.764H5.29208C4.80597 15.764 4.72266 15.5834 4.72266 15.1945V5.16674C4.72266 4.73619 4.87542 4.58341 5.29208 4.58341H6.51431H8.97267C9.11156 4.58341 9.27821 4.5973 9.43099 4.69452C9.5421 4.76396 9.56986 4.91674 9.50042 5.02785C9.43097 5.13896 9.27821 5.16674 9.1671 5.0973C9.12543 5.06952 9.08376 5.06952 8.98653 5.06952H5.29208C5.29208 5.06952 5.22264 5.06952 5.20875 5.06952C5.20875 5.0973 5.20875 5.11119 5.20875 5.15285V15.1806C5.20875 15.1806 5.20875 15.2362 5.20875 15.264C5.23653 15.264 5.26431 15.264 5.29208 15.264H10.7782C10.7782 15.264 10.7782 15.2501 10.7782 15.2362V15.1945C10.7782 15.1945 10.7504 15.1667 10.7365 15.1529L10.7088 15.0973C10.7088 15.0973 10.7088 15.0695 10.6949 15.0556C10.6671 14.9723 10.6393 14.889 10.6393 14.8195C10.4449 14.1112 10.0837 12.7084 10.2365 12.4584C10.4032 12.1806 10.5699 11.9167 10.7365 11.639C10.931 11.3056 11.1254 10.9862 11.3338 10.6667L11.306 10.5834L9.84764 8.75007C9.61153 8.45841 9.61153 8.31952 9.80597 8.01396L11.1949 5.80563C11.3893 5.50007 11.5838 5.19452 11.7643 4.88896C11.9032 4.66674 12.0977 4.55563 12.3338 4.56952C12.9171 4.56952 13.5005 4.56952 14.0977 4.56952H15.3338C15.7227 4.56952 15.9032 4.65285 15.9032 5.15285C15.9032 8.50007 15.9032 11.8334 15.9032 15.1806C15.9032 15.6251 15.7643 15.7501 15.3338 15.7501H11.9449L11.931 15.764ZM11.3754 15.2779H15.3338C15.3338 15.2779 15.4032 15.2779 15.4171 15.2779C15.4171 15.264 15.4171 15.2362 15.4171 15.1945C15.4171 11.8473 15.4171 8.51396 15.4171 5.16674C15.4171 5.12507 15.4171 5.0973 15.4171 5.08341C15.3893 5.08341 15.3477 5.08341 15.3338 5.08341H14.0977C13.5143 5.08341 12.9171 5.08341 12.3338 5.08341C12.2782 5.08341 12.2227 5.08341 12.181 5.16674C11.9866 5.4723 11.806 5.77785 11.6116 6.08341L10.2227 8.29174C10.2227 8.29174 10.1671 8.37507 10.1671 8.38896C10.181 8.38896 10.2226 8.43063 10.2365 8.44452L11.7365 10.3195C11.8754 10.5001 11.8893 10.7084 11.7505 10.9167C11.556 11.2362 11.3615 11.5695 11.1671 11.889C11.0143 12.1529 10.8477 12.4167 10.6949 12.6806C10.6949 12.9584 11.0004 14.2084 11.1532 14.7779C11.2504 15.0001 11.3338 15.1529 11.3754 15.264V15.2779Z" fill="#1F1F1F"/>
<path fill-rule="evenodd" clip-rule="evenodd" d="M10.931 15.1389C10.931 15.1389 10.9171 15.1389 10.9032 15.1389C10.7226 15.125 10.5699 14.9723 9.95876 14C9.87543 13.875 9.81988 13.7778 9.7921 13.7361C9.69488 13.625 9.61154 13.5 9.52821 13.3889C9.45876 13.3056 9.40319 13.2223 9.33374 13.1389C9.20874 12.9861 9.19489 12.8056 9.27822 12.6111C9.31989 12.5 9.36155 12.4028 9.40321 12.2917L10.0282 10.7361V10.7223C10.0282 10.7223 10.0282 10.7223 10.0143 10.7084L8.84762 9.77781C8.61151 9.58337 8.36151 9.38892 8.11151 9.19448C7.91707 9.0417 7.86155 8.86115 7.93099 8.63892C7.93099 8.58337 7.95877 8.5417 7.97266 8.48615C8.33377 7.40281 8.69488 6.31948 9.05599 5.25003C9.08377 5.1667 9.09764 5.11115 9.08375 5.05559C9.05598 4.83337 9.181 4.72226 9.27822 4.6667C9.34766 4.62503 9.41709 4.58337 9.47264 4.52781L9.55597 4.47226C9.66708 4.40281 9.81986 4.4167 9.90319 4.52781C9.98653 4.63892 9.95874 4.7917 9.84763 4.87503L9.7643 4.93059C9.7643 4.93059 9.63932 5.01392 9.56987 5.05559C9.56987 5.19448 9.54208 5.31948 9.51431 5.40281C9.15319 6.48615 8.79209 7.56948 8.43097 8.63892C8.41709 8.68059 8.4032 8.72226 8.38931 8.77781C8.6532 9.00003 8.90318 9.20837 9.15318 9.40281L10.3199 10.3334C10.5421 10.5139 10.5838 10.6667 10.4865 10.9306L9.86153 12.4861C9.81986 12.5973 9.77819 12.7084 9.72263 12.8334C9.79208 12.9445 9.84765 13.0417 9.9171 13.125C10.0004 13.2361 10.0838 13.3473 10.1671 13.4584C10.1949 13.4861 10.2643 13.6111 10.3616 13.7639C10.5004 13.9861 10.8893 14.5834 11.0143 14.6945C11.1116 14.7361 11.181 14.8334 11.1671 14.9445C11.1671 15.0695 11.0421 15.1667 10.9171 15.1667" fill="#1F1F1F"/>
<path fill-rule="evenodd" clip-rule="evenodd" d="M8.12471 9.0834C8.0136 9.0834 7.8886 9.01396 7.86082 8.91674C7.83304 8.79174 7.91638 8.66674 8.04138 8.61118C8.04138 8.61118 8.05526 8.61118 8.06915 8.61118C8.06915 8.61118 8.08306 8.61118 8.09695 8.61118C8.22195 8.5834 8.37473 8.65285 8.40251 8.77785C8.43029 8.90285 8.34695 9.02785 8.22195 9.0834C8.22195 9.0834 8.20807 9.0834 8.19418 9.0834C8.16641 9.0834 8.15249 9.0834 8.12471 9.0834ZM8.05529 8.61118L8.12471 8.84729L8.05529 8.61118Z" fill="#1F1F1F"/>
<path fill-rule="evenodd" clip-rule="evenodd" d="M10.3069 10.889C10.1819 10.889 10.0569 10.7779 10.043 10.6667C10.043 10.5417 10.1402 10.4167 10.2513 10.389C10.3624 10.3612 10.5152 10.4167 10.5708 10.5417C10.6124 10.6529 10.543 10.8056 10.4458 10.8612C10.4041 10.889 10.3624 10.889 10.3208 10.889" fill="#1F1F1F"/>
<path fill-rule="evenodd" clip-rule="evenodd" d="M11.6264 10.875C11.6264 10.875 11.5986 10.875 11.5847 10.875C11.4597 10.8472 11.3486 10.7222 11.3625 10.5972C11.3625 10.4722 11.4875 10.3611 11.6403 10.375C11.668 10.375 11.682 10.375 11.7097 10.375C11.8347 10.4166 11.9319 10.5555 11.8902 10.6805C11.8625 10.7916 11.7375 10.8611 11.6264 10.8611" fill="#1F1F1F"/>
<path fill-rule="evenodd" clip-rule="evenodd" d="M18.1113 12.7361C17.8335 12.7361 17.6113 12.5139 17.6113 12.2361C17.6113 11.9583 17.8335 11.7361 18.1113 11.7361C18.3891 11.7361 18.6113 11.9583 18.6113 12.2361C18.6113 12.5139 18.3891 12.7361 18.1113 12.7361Z" fill="#1F1F1F"/>
<path fill-rule="evenodd" clip-rule="evenodd" d="M19.3893 14.3889C19.0977 14.3889 18.8477 14.1528 18.8477 13.8472C18.8477 13.5417 19.0838 13.3055 19.3893 13.3055C19.6949 13.3055 19.931 13.5417 19.931 13.8472C19.931 14.1528 19.6949 14.3889 19.3893 14.3889ZM19.3893 13.8055C19.3893 13.8055 19.3477 13.8194 19.3477 13.8472C19.3477 13.9028 19.4449 13.9028 19.4449 13.8472C19.4449 13.8194 19.4171 13.8055 19.4032 13.8055H19.3893Z" fill="#1F1F1F"/>
<path fill-rule="evenodd" clip-rule="evenodd" d="M16.9008 14.4168C16.6786 14.4168 16.498 14.2362 16.498 14.014C16.498 13.7918 16.6786 13.6112 16.9008 13.6112C17.1231 13.6112 17.3036 13.7918 17.3036 14.014C17.3036 14.2362 17.1231 14.4168 16.9008 14.4168ZM16.9008 13.9306C16.9008 13.9306 16.8175 13.9723 16.8175 14.014C16.8175 14.1112 16.9981 14.1112 16.9981 14.014C16.9981 13.9723 16.9564 13.9306 16.9147 13.9306H16.9008Z" fill="#1F1F1F"/>
<path fill-rule="evenodd" clip-rule="evenodd" d="M3.88801 20.5971C3.88801 20.5971 3.76302 20.5693 3.72135 20.5276C3.62413 20.4304 3.62413 20.2776 3.72135 20.1804L20.1797 3.72209C20.2769 3.62486 20.4297 3.62486 20.5269 3.72209C20.6241 3.81931 20.6241 3.97209 20.5269 4.06931L4.06858 20.5276C4.06858 20.5276 3.95747 20.5971 3.90192 20.5971" fill="#1F1F1F"/>
<path fill-rule="evenodd" clip-rule="evenodd" d="M24 12C24 5.375 18.625 0 12 0C5.375 0 0 5.375 0 12C0 18.625 5.375 24 12 24C18.625 24 24 18.625 24 12ZM12 0.666667C18.2639 0.666667 23.3333 5.73611 23.3333 12C23.3333 18.2639 18.2639 23.3333 12 23.3333C5.73611 23.3333 0.666661 18.2639 0.666661 12C0.666661 5.73611 5.73611 0.666667 12 0.666667Z" fill="#1F1F1F"/>
</svg>
