<svg width="24" height="24" viewBox="0 0 24 24" fill="none" xmlns="http://www.w3.org/2000/svg">
<path fill-rule="evenodd" clip-rule="evenodd" d="M6.85902 7.36108H17.1368V6.29164H6.85902V7.36108ZM6.81735 16.5694V15.7083C5.98402 15.8055 6.10902 16.625 6.81735 16.5694ZM17.1785 16.5555H17.3173C17.609 16.5555 17.7757 16.4583 17.734 16.1111C17.7062 15.7916 17.484 15.75 17.1646 15.7083V16.5555H17.1785ZM6.67847 19.5139H17.3173C17.8035 19.1528 17.734 18.6389 16.984 18.6389H8.62291C8.08125 18.6389 7.4979 18.625 6.94235 18.6389C6.2479 18.6666 6.22013 19.1666 6.67847 19.5139ZM17.3312 4.48608H6.69236C6.20625 4.88886 6.31735 5.34719 6.97013 5.36108C9.35902 5.43053 12.8173 5.36108 15.3312 5.36108C16.1646 5.36108 17.484 5.54164 17.609 5.06942C17.7062 4.70831 17.5118 4.62497 17.3451 4.48608H17.3312ZM17.1646 17.6527V16.6528L6.85902 16.6389V17.6944C8.58124 17.6944 10.3035 17.6944 12.0257 17.6944C12.8451 17.6944 16.6646 17.7916 17.1507 17.6527H17.1646ZM11.859 11.6944C11.6507 11.7778 11.4701 11.9166 11.609 12.2639C11.6923 12.4583 11.9423 12.5833 12.2062 12.4722C12.6507 12.2777 12.4424 11.4861 11.8729 11.7083L11.859 11.6944ZM11.3451 10.0278L11.7479 10.7639H12.234C12.3868 10.5555 12.5396 10.2778 12.6507 10.0278L12.4146 9.93053C12.0951 9.8472 11.5951 9.87497 11.3451 10.0278ZM13.0257 12.9722C13.1507 13.2222 13.3035 13.5555 13.5118 13.7083C13.734 13.4444 14.0673 13.0555 14.1368 12.5416H13.2618L13.0257 12.9722ZM10.484 13.7083C10.6785 13.5555 10.8312 13.2361 10.9701 12.9722L10.734 12.5278H9.8729C9.92846 13.0416 10.2757 13.4444 10.484 13.7083ZM10.7757 11.625C9.41457 11.6944 8.49791 11.2639 9.08124 13.0555C9.23402 13.5139 9.47013 13.8611 9.73402 14.1389C9.99791 14.4166 10.3174 14.875 10.9285 14.7639C11.1924 14.4305 11.609 13.7222 11.734 13.3889H12.3035C12.4146 13.6805 12.9146 14.6111 13.1923 14.7778C13.9146 14.8611 14.734 13.7083 14.9562 13.0555C15.5535 11.2778 14.5951 11.6944 13.2618 11.625C13.0812 11.0972 12.9285 11.375 13.2896 10.7778C13.3868 10.625 13.7201 10.0694 13.7618 9.91664C13.9424 9.23608 12.6229 8.99997 12.0535 8.98608C11.484 8.98608 10.1646 9.22219 10.2757 9.86108C10.3035 10.0139 10.6507 10.5833 10.734 10.7361C11.0951 11.3611 10.9979 11.0555 10.7896 11.625H10.7757ZM6.83125 15.7083H17.1785V8.36108C17.3729 8.22219 17.6229 8.29164 17.7201 7.99997C17.8451 7.62497 17.6785 7.48608 17.4146 7.45831H17.1924L17.1646 8.27775H6.84513L6.81735 7.41664C6.12291 7.3472 6.15068 8.02775 6.5118 8.20831C6.72013 8.30553 6.81735 8.24997 6.85902 8.41664V15.7083H6.83125Z" fill="#1F1F1F"/>
<path fill-rule="evenodd" clip-rule="evenodd" d="M4.08333 20.2916L3.5 19.6944L19.7778 3.66663L20.3889 4.27774L4.08333 20.2916Z" fill="#1F1F1F"/>
<path fill-rule="evenodd" clip-rule="evenodd" d="M24 12C24 5.375 18.625 0 12 0C5.37501 0 0 5.375 0 12C0 18.625 5.37501 24 12 24C18.625 24 24 18.625 24 12ZM12 0.666667C18.2639 0.666667 23.3333 5.73611 23.3333 12C23.3333 18.2639 18.2639 23.3333 12 23.3333C5.73612 23.3333 0.666671 18.2639 0.666671 12C0.666671 5.73611 5.73612 0.666667 12 0.666667Z" fill="#1F1F1F"/>
</svg>
