<svg width="24" height="24" viewBox="0 0 24 24" fill="none" xmlns="http://www.w3.org/2000/svg">
<path d="M15.617 24C15.4957 24 15.3896 23.9678 15.2682 23.9194L14.3735 23.4839C13.873 23.242 13.3725 23 12.8721 22.7904C11.8711 22.3549 11.1583 21.7258 10.7034 20.8549C10.4152 20.3065 10.2484 19.7581 10.2181 19.2097C10.1877 18.6129 10.2181 18 10.2332 17.4194C10.2332 17.2097 10.2484 16.9839 10.2636 16.7742V16.6291C10.2636 16.2904 10.2939 15.9355 10.3091 15.5968V15.4517C10.3394 15.242 10.3545 15.1129 10.2787 14.9839C10.2484 14.9355 10.2484 14.9033 10.2484 14.8549C10.2484 14.8388 10.2484 14.8065 10.2484 14.7904C10.2484 14.742 10.2787 14.6936 10.2939 14.6452C10.309 14.5968 10.3242 14.5484 10.3242 14.5162C10.3697 13.9355 10.3697 13.3388 10.3849 12.7581V12.2097C10.4152 11.7259 10.6275 11.4355 11.0825 11.3226C11.2645 11.2742 11.4616 11.2259 11.6436 11.1936C11.8408 11.1452 12.0379 11.0968 12.2503 11.0484C12.6446 10.9517 13.0389 10.8871 13.418 10.8388C13.6455 10.8065 13.873 10.7742 14.0853 10.742C14.419 10.6775 14.7678 10.6775 15.1014 10.6775C15.2682 10.6775 15.4502 10.6775 15.617 10.6775C16.0265 10.6613 16.436 10.6775 16.8455 10.7097H17.0578C17.5279 10.7581 17.9829 10.8388 18.4227 10.9033C19.0142 11.0001 19.545 11.1452 20.0606 11.2904L20.1971 11.3226C20.6824 11.4517 20.7734 11.7097 20.8037 12.1291C20.8189 12.4355 20.834 12.742 20.834 13.0484C20.834 13.4033 20.8492 13.7581 20.8795 14.1291C20.8947 14.4355 20.9099 14.7259 20.9099 15.0323V15.371C20.9099 15.8549 20.9402 16.3388 20.9554 16.8226C20.9857 17.5 21.0009 18.1936 21.0009 18.871C21.0009 19.3549 20.925 19.8065 20.7734 20.2581C20.4094 21.3065 19.7724 22.0646 18.908 22.5162C18.2862 22.8387 17.6341 23.1452 16.9971 23.4355C16.6635 23.5968 16.3298 23.742 16.0114 23.9033C15.8749 23.9678 15.7384 24 15.6019 24M10.7185 14.8388C10.8247 15.0807 10.7944 15.3065 10.7792 15.5V15.6291C10.7489 15.9678 10.7337 16.3065 10.7185 16.6452V16.7904C10.7185 17 10.7034 17.2259 10.6882 17.4355C10.6579 18 10.6427 18.5968 10.673 19.1775C10.7034 19.6613 10.8399 20.1452 11.0977 20.6291C11.5071 21.3871 12.1441 21.9517 13.054 22.3549C13.5697 22.5807 14.0701 22.8226 14.5706 23.0646L15.4654 23.4839C15.5867 23.5484 15.708 23.5323 15.8597 23.4678C16.1933 23.3065 16.527 23.1613 16.8455 23C17.4673 22.7097 18.1194 22.4033 18.7412 22.0807C19.5146 21.6775 20.0606 21.0162 20.3942 20.0807C20.5307 19.6936 20.5914 19.2904 20.5914 18.871C20.5914 18.1936 20.5611 17.5162 20.5459 16.8388C20.5307 16.3549 20.5156 15.871 20.5004 15.3871V15.0323C20.5004 14.742 20.5004 14.4517 20.4701 14.1613C20.4397 13.7904 20.4397 13.4355 20.4246 13.0646C20.4246 12.7742 20.4094 12.4678 20.3942 12.1775C20.3791 11.8871 20.3487 11.8549 20.1061 11.7904L19.9696 11.7581C19.4691 11.613 18.9383 11.4678 18.4379 11.3871C17.9526 11.3065 17.4976 11.2259 17.0578 11.2097H16.8455C16.4512 11.1613 16.0568 11.1452 15.6625 11.1613C15.4806 11.1613 15.3137 11.1613 15.1317 11.1613C14.8133 11.1613 14.4948 11.1613 14.1915 11.2097C13.964 11.2581 13.7365 11.2904 13.509 11.3226C13.1299 11.371 12.7507 11.4355 12.3716 11.5162C12.1744 11.5646 11.9621 11.613 11.765 11.6613C11.583 11.7097 11.401 11.742 11.2038 11.7904C10.946 11.8549 10.8702 11.9678 10.855 12.242V12.7904C10.8247 13.371 10.8247 13.9839 10.7792 14.5646C10.7792 14.6613 10.7489 14.7581 10.7185 14.8226C10.7185 14.8226 10.7185 14.8388 10.7185 14.8549V14.8388Z" fill="#1F1F1F"/>
<path d="M13.7818 23.1936C13.7818 23.1936 13.7666 23.1936 13.7515 23.1936C13.5392 23.1613 11.8709 23.1774 11.234 23.1774H10.9307H8.97428H8.00368C7.91269 23.1774 7.86719 23.1774 7.80653 23.1774C7.70037 23.1452 7.59421 23.129 7.48805 23.1129C7.13924 23.0323 6.76009 22.9516 6.41128 22.8065C5.88048 22.5807 5.45584 22.3226 5.10703 22.0323C4.62173 21.6129 4.19709 21.129 3.86345 20.5807C3.40848 19.8226 3.12033 18.9839 3.02933 18.0807C2.92317 17.1129 3.10516 16.1452 3.57529 15.1129C3.93927 14.3226 4.37908 13.5323 4.90988 12.7903C5.39518 12.0807 5.91082 11.371 6.44162 10.6936L6.60843 10.4839C6.98758 10 7.36672 9.48389 7.7307 8.96776C7.83686 8.80647 7.88235 8.64518 7.88235 8.45163C7.88235 7.91938 7.88235 7.40325 7.88235 6.87099V6.40325C7.88235 6.40325 7.88235 6.25809 7.88235 6.19357V6.11292C7.89752 5.98389 7.98851 5.88712 8.125 5.90325C8.24633 5.90325 8.33733 6.03228 8.32216 6.16131V6.24196C8.32216 6.24196 8.307 6.35486 8.307 6.41938V6.88712C8.307 7.40325 8.307 7.9355 8.307 8.45163C8.307 8.74196 8.23117 9.00002 8.06435 9.24195C7.70037 9.77421 7.30606 10.2742 6.92692 10.7742L6.76009 10.9839C6.24446 11.6613 5.72883 12.371 5.24352 13.0645C4.74306 13.7903 4.30325 14.5484 3.95444 15.3226C3.51463 16.2742 3.34781 17.1613 3.4388 18.0484C3.5298 18.8871 3.77245 19.6452 4.19709 20.3387C4.5004 20.8387 4.89471 21.2903 5.34968 21.6774C5.66816 21.9516 6.04731 22.1774 6.54778 22.3871C6.86626 22.5323 7.1999 22.5968 7.54871 22.6774C7.65487 22.6936 7.76103 22.7258 7.86719 22.7419H7.97335H11.2188C12.4321 22.7419 13.5695 22.7419 13.7818 22.7581C13.9031 22.7581 13.9941 22.8871 13.979 23.0161C13.979 23.129 13.8728 23.2258 13.7666 23.2258" fill="#1F1F1F"/>
<path d="M14.1445 11.1936H14.1141C14.0231 11.1775 13.9473 11.0969 13.9321 11.0001C13.9018 10.9194 13.7502 10.7098 13.28 10.1614L13.189 10.0646C12.9312 9.74203 12.7037 9.40332 12.4914 9.08074C12.3397 8.87106 12.3246 8.64525 12.3397 8.48396C12.3397 8.00009 12.3397 7.51622 12.3397 7.03235V6.40332C12.3397 6.40332 12.3397 6.32267 12.3397 6.29042C11.5056 6.3388 9.89806 6.25816 9.8829 6.25816C9.59475 6.24203 9.29144 6.24203 8.98812 6.25816C8.80613 6.25816 8.62415 6.25816 8.44216 6.25816C8.36633 6.25816 8.32083 6.25816 8.26017 6.25816C8.12368 6.27429 7.97202 6.29042 7.79004 6.25816C7.25924 6.09687 6.89526 5.58074 6.92559 5.00009C6.94076 4.59687 7.33506 3.96784 7.88103 3.93558C8.07818 3.93558 8.2905 3.90332 8.48766 3.90332C9.51892 3.90332 10.535 3.90332 11.5663 3.90332H12.3397C12.4459 3.90332 12.5521 3.90332 12.6582 3.91945H12.7795C13.2648 3.96784 13.6895 4.50009 13.7047 5.06461C13.7047 5.54848 13.3407 6.09687 12.916 6.20977L12.7947 6.24203C12.7947 6.29041 12.7947 6.37106 12.7947 6.41945V7.03235C12.7947 7.51622 12.7947 8.00009 12.7947 8.48396C12.7947 8.62912 12.8099 8.7259 12.8705 8.80654C13.0829 9.11299 13.3103 9.4517 13.553 9.75815L13.6288 9.85493C14.3568 10.7098 14.4174 10.8549 14.3871 11.0001C14.3719 11.113 14.281 11.1936 14.1748 11.1936M12.3549 5.82267C12.4307 5.82267 12.4914 5.82267 12.5369 5.82267C12.5824 5.80654 12.6279 5.79042 12.6886 5.77429L12.7947 5.74203C13.0374 5.67751 13.2649 5.3388 13.2649 5.06461C13.2649 4.74203 12.9919 4.40332 12.7341 4.38719H12.5976C12.5066 4.37106 12.4156 4.35493 12.3094 4.35493H11.536C10.5199 4.35493 9.48859 4.35493 8.45732 4.35493C8.26017 4.35493 8.07818 4.35493 7.88103 4.38719C7.60804 4.40332 7.35023 4.79042 7.33507 5.01622C7.3199 5.37106 7.54738 5.69364 7.89619 5.80654C7.98719 5.8388 8.07818 5.80654 8.18434 5.80654C8.26017 5.80654 8.35116 5.79042 8.42699 5.79042C8.60898 5.79042 8.79097 5.79042 8.95779 5.79042C9.26111 5.79042 9.57958 5.79042 9.8829 5.79042C9.8829 5.79042 9.8829 5.79042 9.89807 5.79042C9.9284 5.77429 9.97389 5.79042 10.0042 5.75816C11.2781 5.79042 11.9606 5.79042 12.3246 5.82267H12.3549Z" fill="#1F1F1F"/>
<path d="M5.92539 15.1774C5.84956 15.1774 5.75856 15.1774 5.66757 15.1613C5.44008 15.129 5.2581 15 5.1216 14.8709C5.04578 14.8548 4.96995 14.7903 4.93962 14.7096C4.90929 14.6129 4.96995 14.4677 5.04578 14.4193C5.09127 14.3871 5.1671 14.3709 5.22776 14.3871C5.28843 14.3871 5.33392 14.4355 5.36425 14.4838C5.51591 14.629 5.62207 14.6935 5.72823 14.7096C6.06188 14.7742 6.33486 14.6774 6.57752 14.4355C6.83533 14.1935 7.16897 13.9032 7.60878 13.7903C8.41256 13.5967 9.11019 13.758 9.68648 14.2419C9.97463 14.5 10.2021 14.5967 10.4599 14.6129C10.5813 14.6129 10.6722 14.7258 10.6722 14.8548C10.6722 14.9838 10.5964 15.0806 10.4448 15.0806C9.9898 15.0806 9.65615 14.8226 9.39833 14.6129C8.92819 14.2096 8.38223 14.0806 7.69977 14.2419C7.36613 14.3226 7.07798 14.5645 6.88082 14.7742C6.60784 15.0484 6.2742 15.1774 5.92539 15.1774Z" fill="#1F1F1F"/>
<path d="M8.9746 3.48388C8.4893 3.48388 8.11015 3.08066 8.11015 2.56453C8.07982 2.32259 8.15565 2.11291 8.29214 1.9355C8.45896 1.72582 8.70162 1.61292 8.9746 1.61292C9.47507 1.61292 9.82388 1.98388 9.85421 2.53227C9.85421 2.75808 9.77838 3.00001 9.61156 3.17743C9.44474 3.37098 9.20208 3.48388 8.98976 3.48388M8.53479 2.5484C8.53479 2.80646 8.71678 3.00001 8.9746 3.01614C9.03526 3.01614 9.18692 2.96775 9.29308 2.85485C9.33857 2.80646 9.42957 2.69356 9.41441 2.5484C9.39924 2.25808 9.23241 2.06453 8.98976 2.06453C8.85327 2.06453 8.71678 2.12904 8.64095 2.22582C8.59545 2.2742 8.54996 2.37098 8.56512 2.50001C8.56512 2.50001 8.56512 2.53227 8.56512 2.5484H8.53479Z" fill="#1F1F1F"/>
<path d="M5.28687 17.5645H5.27171C5.05939 17.5645 4.87739 17.4677 4.7409 17.3226C4.60441 17.1613 4.54375 16.9516 4.55892 16.7258C4.58925 16.3387 4.93806 16.0161 5.28687 16.0161C5.66601 16.0161 6.01482 16.371 6.01482 16.7903C6.01482 17.2097 5.69634 17.5645 5.28687 17.5806V17.5645ZM5.28687 16.4677C5.15038 16.4677 4.99872 16.6129 4.98355 16.758C4.98355 16.8387 4.99872 16.9355 5.05939 17C5.08972 17.0484 5.16555 17.0968 5.27171 17.0968C5.43853 17.0968 5.57501 16.9516 5.57501 16.7903C5.57501 16.629 5.42336 16.4677 5.28687 16.4677Z" fill="#1F1F1F"/>
<path d="M8.74737 17.6451C8.74737 17.6451 8.70188 17.6451 8.68671 17.6451C8.17108 17.5967 7.83743 17.2257 7.82227 16.6935C7.82227 16.4193 7.92842 16.1451 8.11041 15.9677C8.2924 15.8064 8.50472 15.7257 8.73221 15.758C8.73221 15.758 8.7322 15.758 8.74737 15.758C8.99002 15.758 9.20234 15.8548 9.36916 16.0322C9.53598 16.2096 9.61182 16.4515 9.59665 16.7096C9.59665 16.9838 9.46016 17.2257 9.27817 17.4193C9.12651 17.5644 8.92936 17.6451 8.73221 17.6451M8.64121 16.2096C8.53505 16.2096 8.45922 16.258 8.41373 16.3064C8.32273 16.4031 8.26207 16.5322 8.26207 16.6612C8.26207 16.9677 8.42889 17.1451 8.71704 17.1612C8.80804 17.1612 8.91419 17.129 8.99002 17.0483C9.09618 16.9515 9.15685 16.8064 9.17201 16.6773C9.17201 16.5483 9.14168 16.4354 9.06585 16.3386C8.99002 16.2419 8.86869 16.2257 8.74737 16.2096C8.7322 16.2096 8.71704 16.2096 8.70187 16.2096C8.68671 16.2096 8.67154 16.2096 8.65638 16.2096H8.64121Z" fill="#1F1F1F"/>
<path d="M15.2066 18.758C15.0853 18.758 14.9791 18.6773 14.8426 18.5322C14.1298 17.7903 13.4474 17.129 13.2957 17.0322C13.2047 17.0161 13.1441 16.9354 13.1289 16.8386C13.1289 16.7096 13.2047 16.5967 13.3109 16.5806C13.4171 16.5806 13.5535 16.5483 15.1459 18.2096C15.1763 18.2419 15.1914 18.258 15.2066 18.2741C15.2066 18.2741 15.2369 18.2419 15.2673 18.2096C15.9194 17.5161 16.5715 16.8064 17.2236 16.1128L17.7848 15.5161C17.8758 15.4193 18.0123 15.4193 18.0881 15.5161C18.1791 15.6128 18.1791 15.758 18.0881 15.8386L17.527 16.4354C16.8748 17.129 16.2227 17.8386 15.5706 18.5322C15.4341 18.6773 15.3128 18.758 15.2066 18.758Z" fill="#1F1F1F"/>
<path d="M11.3849 2.56451C11.2029 2.56451 11.0361 2.51613 10.8693 2.43548C10.566 2.27419 10.3081 1.93548 10.2171 1.56451C10.1262 1.22581 10.1868 0.870967 10.384 0.564516C10.6115 0.225806 10.9148 0.0806451 11.2029 0C11.2333 0 11.2636 0 11.2787 0H11.4001C11.764 0 12.1129 0.193548 12.3252 0.48387C12.5527 0.790322 12.6285 1.19355 12.5527 1.59677C12.4768 1.95161 12.2342 2.25806 11.9005 2.41935C11.7337 2.5 11.5517 2.54838 11.3697 2.54838M11.3242 0.451612C11.0816 0.532258 10.8844 0.629032 10.748 0.838709C10.5963 1.06452 10.6115 1.30645 10.6418 1.45161C10.7024 1.69355 10.8693 1.91935 11.0664 2.01613C11.2636 2.12903 11.5062 2.1129 11.7337 2.01613C11.946 1.90322 12.0977 1.7258 12.1432 1.5C12.2039 1.22581 12.1432 0.967741 12.0067 0.774193C11.8702 0.580645 11.6427 0.467741 11.4152 0.467741H11.3394L11.3242 0.451612Z" fill="#1F1F1F"/>
<path d="M6.47319 20.129C6.2002 20.129 5.94239 20.0161 5.7604 19.8065C5.53292 19.5484 5.44192 19.1613 5.53292 18.7903C5.62391 18.3871 5.89689 18.1129 6.3367 17.9839C6.35186 17.9839 6.38219 17.9839 6.39736 17.9839C6.39736 17.9839 6.41253 17.9839 6.42769 17.9839C6.45802 17.9839 6.48836 17.9839 6.51869 17.9839C6.59452 17.9839 6.68551 17.9839 6.79167 18.0161C7.30731 18.1936 7.54995 18.5645 7.53479 19.129C7.51962 19.6774 7.20114 20.0323 6.64001 20.129C6.57935 20.129 6.53385 20.129 6.47319 20.129ZM6.41253 18.4355C6.06372 18.5323 5.98788 18.7419 5.95755 18.8871C5.91206 19.1129 5.95755 19.3226 6.09404 19.4839C6.21537 19.629 6.39736 19.6936 6.57935 19.6613C7.01916 19.5807 7.09498 19.3226 7.09498 19.0968C7.09498 18.7419 6.98883 18.5484 6.65518 18.4516C6.62485 18.4516 6.57935 18.4516 6.51869 18.4516C6.48836 18.4516 6.44286 18.4516 6.41253 18.4516V18.4355Z" fill="#1F1F1F"/>
<path d="M8.6714 21.871C8.55008 21.871 8.42875 21.8387 8.35292 21.7903C8.20127 21.7097 7.88278 21.5323 7.85245 21.0968C7.80696 20.5807 7.98895 20.2742 8.47425 20.0807C8.50458 20.0807 8.53491 20.0645 8.56524 20.0807C9.03538 20.0807 9.3387 20.2903 9.47519 20.7258C9.58135 21.0645 9.46002 21.4678 9.1567 21.6936C8.97472 21.8387 8.8079 21.8871 8.65624 21.8871M8.59558 20.5323C8.30743 20.6613 8.27709 20.7742 8.29226 21.0645C8.29226 21.2097 8.36809 21.2742 8.55008 21.371C8.62591 21.4194 8.73207 21.4355 8.91405 21.3065C9.05054 21.2097 9.12638 21 9.06571 20.871C9.00505 20.6774 8.89889 20.5484 8.58041 20.5484L8.59558 20.5323Z" fill="#1F1F1F"/>
</svg>
