<svg width="24" height="24" viewBox="0 0 24 24" fill="none" xmlns="http://www.w3.org/2000/svg">
<path d="M8.85871 15.1528C8.85871 15.1528 8.73372 15.1251 8.69205 15.0695L8.65039 15.0001C8.65039 15.0001 8.60872 14.9445 8.59483 14.9306C8.20594 14.5695 7.83094 14.1667 7.67816 13.6528C7.45594 12.9584 7.3865 12.2639 7.44205 11.5973C7.44205 11.4862 7.45594 11.3612 7.46983 11.2362C7.48371 10.8334 7.51149 10.4167 7.71983 10.0973C8.2476 9.26394 8.74761 8.52783 9.58094 8.0695C9.65039 8.02783 9.71983 7.97227 9.78928 7.91672C9.91428 7.80561 10.0532 7.6945 10.2337 7.65283C10.9004 7.48616 11.9004 7.29172 12.9282 7.48616C13.0115 7.50005 13.1087 7.51394 13.1921 7.51394C13.4282 7.52783 13.6782 7.55561 13.8865 7.6945C13.9698 7.75005 14.0532 7.80561 14.1365 7.86116C14.4837 8.09727 14.8448 8.33338 15.1226 8.68061C15.1921 8.77783 15.1782 8.90283 15.0948 8.97227C14.9976 9.04172 14.8726 9.02783 14.8032 8.9445C14.5671 8.65283 14.2476 8.43061 13.9143 8.20838C13.8309 8.15283 13.7337 8.09727 13.6504 8.02783C13.5393 7.95839 13.3587 7.9445 13.1643 7.93061C13.0532 7.93061 12.9559 7.91672 12.8587 7.88894C12.1226 7.75005 11.3448 7.80561 10.3309 8.05561C10.2476 8.0695 10.1643 8.15283 10.0671 8.23616C9.98372 8.30561 9.8865 8.38894 9.78928 8.4445C9.05317 8.86116 8.58094 9.54172 8.08094 10.3334C7.92816 10.5695 7.91428 10.9306 7.90039 11.2778C7.90039 11.4028 7.90038 11.5417 7.87261 11.6667C7.81705 12.2778 7.87261 12.9167 8.08094 13.5556C8.21983 13.9723 8.55317 14.3334 8.8865 14.6528C8.94205 14.6945 8.96983 14.7501 9.01149 14.8056L9.03928 14.8473C9.10872 14.9445 9.09483 15.0695 8.99761 15.1389C8.95595 15.1667 8.91427 15.1806 8.87261 15.1806" fill="#1F1F1F"/>
<path d="M12.1389 16.4861C11.7916 16.4861 11.4305 16.4583 11.0833 16.4306C10.125 16.3611 9.48608 15.7917 8.87497 15.25C8.79163 15.1667 8.76386 15.0278 8.84719 14.9444C8.93053 14.8611 9.04164 14.8333 9.13886 14.9167C9.74997 15.4583 10.3055 15.9444 11.125 16.0139C12.1389 16.0972 13.0972 16.1667 14 15.5972C14.5 15.2778 15 14.9167 15.3472 14.4028L15.4028 14.3333C15.6805 13.9306 15.9444 13.5417 16.0416 13.0278C16.1805 12.2639 16.1805 11.6111 16.0694 11C16.0555 10.9167 16.0416 10.8194 16.0416 10.7222C16.0416 10.5694 16.0277 10.4167 15.9583 10.3333C15.8472 10.1944 15.75 10.0556 15.6528 9.91667C15.4583 9.63889 15.2777 9.375 15.0277 9.18056C14.9305 9.11111 14.9166 8.97223 15 8.88889C15.0694 8.79167 15.2083 8.77778 15.2916 8.86111C15.5833 9.09723 15.7916 9.40278 16 9.69445C16.0972 9.83334 16.1805 9.95834 16.2777 10.0833C16.4305 10.2639 16.4444 10.5 16.4583 10.7083C16.4583 10.7778 16.4583 10.8611 16.4861 10.9306C16.6111 11.5972 16.5972 12.3056 16.4583 13.1111C16.3472 13.7222 16.0555 14.1528 15.7639 14.5833L15.7083 14.6528C15.3194 15.2222 14.7639 15.6111 14.2361 15.9583C13.5555 16.3889 12.8472 16.5 12.1527 16.5" fill="#1F1F1F"/>
<path d="M13.7063 7.98603C13.7063 7.98603 13.6508 7.98603 13.6369 7.97214C13.5258 7.93047 13.4702 7.80547 13.5119 7.69436L14.3591 5.49992C14.4008 5.38881 14.5258 5.33325 14.6369 5.37492C14.748 5.41658 14.8035 5.54159 14.7619 5.6527L13.9147 7.84714C13.8869 7.93047 13.8035 7.98603 13.7202 7.98603" fill="#1F1F1F"/>
<path d="M7.81678 10.4307C7.81678 10.4307 7.76123 10.4307 7.74734 10.4168L5.55289 9.56957C5.44178 9.5279 5.38623 9.4029 5.4279 9.29179C5.46956 9.18068 5.59456 9.12512 5.70567 9.16679L7.90012 10.014C8.01123 10.0557 8.06678 10.1807 8.02511 10.2918C7.99733 10.3751 7.914 10.4307 7.83067 10.4307" fill="#1F1F1F"/>
<path d="M5.66537 14.8611C5.58204 14.8611 5.51259 14.8195 5.47093 14.7361C5.42926 14.625 5.47093 14.5 5.58204 14.4584L7.73481 13.5278C7.84592 13.4861 7.97093 13.5278 8.0126 13.6389C8.05426 13.75 8.01259 13.875 7.90148 13.9167L5.7487 14.8473C5.7487 14.8473 5.69315 14.8611 5.66537 14.8611Z" fill="#1F1F1F"/>
<path d="M18.3465 14.7361C18.3465 14.7361 18.2909 14.7361 18.2632 14.7223C17.9993 14.5973 17.7354 14.5 17.4576 14.3889C16.9993 14.2084 16.5271 14.0278 16.0965 13.7778C15.9993 13.7223 15.9576 13.5973 16.0132 13.4861C16.0687 13.3889 16.1937 13.3473 16.3048 13.4028C16.7215 13.6389 17.1659 13.8195 17.6104 13.9861C17.8882 14.0973 18.1659 14.1945 18.4298 14.3195C18.5409 14.375 18.5826 14.4861 18.5409 14.5973C18.4993 14.6806 18.4298 14.7223 18.3465 14.7223" fill="#1F1F1F"/>
<path d="M14.6794 18.4861C14.596 18.4861 14.5266 18.4445 14.4849 18.375L14.4432 18.3056C14.4432 18.3056 14.3738 18.1806 14.346 18.1111C14.2349 17.875 14.1516 17.6389 14.0544 17.4028C13.8877 16.9861 13.7349 16.5972 13.5127 16.2361C13.4571 16.1389 13.4849 16.0139 13.5821 15.9445C13.6794 15.8889 13.8044 15.9167 13.8738 16.0139C14.1099 16.4028 14.2766 16.8333 14.4432 17.25C14.5405 17.4861 14.6238 17.7083 14.721 17.9445C14.7488 18 14.7766 18.0556 14.8044 18.125L14.846 18.1945C14.9016 18.2917 14.846 18.4306 14.7488 18.4722C14.721 18.4861 14.6794 18.5 14.6516 18.5" fill="#1F1F1F"/>
<path d="M9.41546 18.5278C9.41546 18.5278 9.3599 18.5278 9.33213 18.5139C9.22102 18.4723 9.16546 18.3473 9.22101 18.2361C9.30435 18.0417 9.3738 17.8473 9.44324 17.6528C9.65157 17.125 9.8599 16.5695 10.1516 16.0556C10.2071 15.9584 10.346 15.9167 10.4432 15.9861C10.5405 16.0417 10.5821 16.1806 10.5127 16.2778C10.2349 16.7639 10.0266 17.2917 9.83213 17.8056C9.76268 18 9.67935 18.2084 9.59602 18.4028C9.56824 18.4861 9.48491 18.5278 9.40158 18.5278" fill="#1F1F1F"/>
<path d="M10.2639 7.98616C10.1806 7.98616 10.1111 7.94449 10.0694 7.86116L9.1389 5.75005C9.09723 5.63894 9.1389 5.51394 9.25001 5.47227C9.36112 5.4306 9.48612 5.47227 9.52778 5.58338L10.4583 7.69449C10.5 7.8056 10.4583 7.9306 10.3472 7.97227C10.3194 7.97227 10.2917 7.98616 10.2639 7.98616Z" fill="#1F1F1F"/>
<path d="M16.1947 10.4305C16.1252 10.4305 16.0558 10.3889 16.0141 10.3194C15.9585 10.2222 15.9863 10.0833 16.0974 10.0278C16.5419 9.77776 17.0141 9.58332 17.4724 9.38887C17.7086 9.29165 17.9447 9.19443 18.1808 9.08332C18.278 9.02776 18.4169 9.08332 18.4586 9.19443C18.5002 9.30554 18.4585 9.43054 18.3474 9.47221C18.1113 9.58332 17.8752 9.68054 17.6252 9.77776C17.1808 9.95832 16.7224 10.1528 16.2919 10.3889C16.2641 10.4028 16.2224 10.4167 16.1808 10.4167" fill="#1F1F1F"/>
<path d="M10.2635 18.9862C10.2635 18.9862 10.2496 18.9862 10.2357 18.9862C10.0273 18.9584 9.86067 18.8751 9.72178 18.7917C9.68012 18.7639 9.62456 18.7362 9.5829 18.7223C9.04123 18.4445 8.56901 18.3195 8.11068 18.3195C7.99957 18.3195 7.90234 18.2223 7.90234 18.1112C7.90234 18.0001 7.99957 17.9028 8.11068 17.9028C8.63846 17.9028 9.15234 18.0417 9.76345 18.3473C9.81901 18.3751 9.87456 18.4028 9.93012 18.4306C10.0551 18.5001 10.1662 18.5695 10.2912 18.5834C10.4023 18.5834 10.4857 18.6945 10.4718 18.8195C10.4718 18.9306 10.3746 19.0139 10.2635 19.0139" fill="#1F1F1F"/>
<path d="M5.23655 10.5278L4.84766 10.3473C4.84766 10.3473 5.06988 9.86116 5.16711 9.59727C5.26433 9.33338 5.36155 9.13894 5.44488 8.94449C5.58377 8.65283 5.69489 8.4306 5.72266 8.12505C5.73655 8.01394 5.83377 7.91671 5.95877 7.94449C6.06988 7.95838 6.15321 8.06949 6.13932 8.1806C6.09766 8.54171 5.95877 8.81949 5.81988 9.12505C5.73655 9.3056 5.63933 9.50005 5.55599 9.73616C5.45877 10 5.22266 10.5139 5.22266 10.5139" fill="#1F1F1F"/>
<path d="M13.875 19.1111C13.875 19.1111 13.8056 19.1111 13.7639 19.0833C13.6945 19.0416 13.6528 18.9722 13.6667 18.8888C13.6667 18.75 13.7501 18.6944 14.2501 18.4166L15.4306 17.6666C15.4306 17.6666 15.5556 17.625 15.6112 17.6527C15.6667 17.6805 15.7223 17.7222 15.7362 17.7916C15.8056 18.0138 15.6389 18.125 14.6389 18.6805C14.5834 18.7083 14.5139 18.75 14.4584 18.7777L13.9862 19.0833C13.9862 19.0833 13.9167 19.1111 13.875 19.1111Z" fill="#1F1F1F"/>
<path d="M18.9572 10.5555C18.9572 10.5555 18.8322 10.5277 18.7906 10.4722C18.61 10.2499 18.5544 10.0833 18.5128 9.95827C18.485 9.86105 18.4711 9.81938 18.4295 9.77771C18.2906 9.62494 18.1656 9.40271 18.0406 9.1666C17.9294 8.94438 17.8044 8.72216 17.6656 8.55549C17.5961 8.45827 17.61 8.33327 17.6933 8.26382C17.7767 8.19438 17.9156 8.20827 17.985 8.2916C18.1378 8.48605 18.2767 8.72216 18.4017 8.95827C18.5128 9.1666 18.6239 9.37494 18.735 9.48605C18.8461 9.61105 18.8878 9.72216 18.9156 9.83327C18.9433 9.94438 18.985 10.0555 19.11 10.2083C19.1794 10.2916 19.1656 10.4305 19.0822 10.4999C19.0406 10.5277 18.9989 10.5416 18.9433 10.5416" fill="#1F1F1F"/>
<path d="M15.5694 6.31945C15.5694 6.31945 15.4722 6.30556 15.4305 6.26389C15.1805 6.04167 14.8472 5.90278 14.3889 5.70834C14.1389 5.59723 13.8611 5.48612 13.5416 5.33334C13.4305 5.27778 13.3889 5.15278 13.4444 5.05556C13.5 4.94445 13.625 4.90278 13.7222 4.95834C14.0278 5.11112 14.3055 5.22223 14.5555 5.33334C15.0278 5.54167 15.4028 5.69445 15.7083 5.95834C15.7916 6.02778 15.8055 6.16667 15.7361 6.25001C15.6944 6.30556 15.6389 6.31945 15.5694 6.31945Z" fill="#1F1F1F"/>
<path d="M18.138 15.611C18.138 15.611 18.0825 15.611 18.0547 15.5971C17.9436 15.5555 17.9019 15.4305 17.9436 15.3194C18.013 15.1527 18.0825 14.9721 18.138 14.7916C18.2491 14.4444 18.3741 14.0833 18.6103 13.7499C18.6103 13.7083 18.6103 13.6805 18.6103 13.6666C18.6103 13.5555 18.7075 13.4583 18.8186 13.4583C18.9297 13.4583 19.0269 13.5555 19.0269 13.6666V13.6944C19.0269 13.6944 19.0547 13.861 18.9852 13.9583C18.7769 14.236 18.6658 14.5694 18.5408 14.9166C18.4714 15.111 18.4158 15.2916 18.3325 15.4721C18.3047 15.5555 18.2214 15.5971 18.138 15.5971" fill="#1F1F1F"/>
<path d="M8.31771 6.18061C8.23438 6.18061 8.16494 6.13895 8.12327 6.05561C8.0816 5.9445 8.12327 5.8195 8.23438 5.77783L8.3455 5.73617C8.95661 5.47228 9.42883 5.26395 9.77605 5.04172C9.9705 4.91672 10.1372 4.84728 10.2761 4.8195C10.4011 4.80561 10.4983 4.87506 10.5122 5.00006C10.526 5.11117 10.4566 5.22228 10.3316 5.23617C10.2761 5.23617 10.1788 5.27784 9.99827 5.38895C9.63716 5.61117 9.13716 5.83339 8.51216 6.11117L8.40105 6.15283C8.40105 6.15283 8.34549 6.16672 8.31771 6.16672" fill="#1F1F1F"/>
<path d="M5.91495 15.7083C5.8455 15.7083 5.76216 15.6667 5.73439 15.5972C5.48439 15.1111 4.99828 13.8333 4.9705 13.6806C4.95661 13.5695 5.02605 13.4583 5.15105 13.4445C5.26217 13.4445 5.37327 13.5 5.38716 13.6111C5.41494 13.7361 5.85939 14.9306 6.0955 15.4028C6.15105 15.5 6.10939 15.6389 6.01217 15.6806C5.98439 15.6945 5.94273 15.7083 5.91495 15.7083Z" fill="#1F1F1F"/>
<path d="M9.70758 9.72228C9.8048 9.86117 9.76314 10.0417 9.63814 10.1251C9.49925 10.2223 9.31869 10.1806 9.23536 10.0556C9.13814 9.91673 9.1798 9.73617 9.3048 9.65284C9.44369 9.55561 9.62424 9.59728 9.70758 9.72228Z" fill="#1F1F1F"/>
<path d="M12.0558 10.3749C12.1669 10.5276 12.1253 10.736 11.9725 10.8471C11.8197 10.9582 11.6114 10.9165 11.5003 10.7638C11.3892 10.611 11.4308 10.4026 11.5836 10.2915C11.7364 10.1804 11.9447 10.2221 12.0558 10.3749Z" fill="#1F1F1F"/>
<path d="M9.66484 12.2917C9.7204 12.375 9.70651 12.4861 9.62318 12.5417C9.53984 12.5972 9.42873 12.5833 9.37318 12.5C9.31762 12.4167 9.33151 12.3056 9.41484 12.25C9.49818 12.1945 9.60929 12.2083 9.66484 12.2917Z" fill="#1F1F1F"/>
<path d="M14.5533 14.1807C14.4838 14.0557 14.3171 14.0001 14.1921 14.0696C14.0671 14.139 14.0116 14.3057 14.081 14.4307C14.1505 14.5557 14.3171 14.6112 14.4421 14.5418C14.5671 14.4723 14.6227 14.3057 14.5533 14.1807Z" fill="#1F1F1F"/>
<path d="M14.9983 11.9999C14.915 11.8471 14.7345 11.7916 14.5817 11.8749C14.4289 11.9582 14.3733 12.1388 14.4567 12.2916C14.54 12.4443 14.7344 12.4999 14.8733 12.4166C15.0261 12.3332 15.0817 12.1527 14.9983 11.9999Z" fill="#1F1F1F"/>
<path d="M12.4436 13.1667C12.402 13.0834 12.3047 13.0556 12.2214 13.0973C12.1381 13.1389 12.1103 13.2362 12.152 13.3195C12.1936 13.4028 12.2908 13.4306 12.3742 13.3889C12.4575 13.3473 12.4853 13.25 12.4436 13.1667Z" fill="#1F1F1F"/>
<path fill-rule="evenodd" clip-rule="evenodd" d="M24 12C24 5.375 18.625 0 12 0C5.375 0 0 5.375 0 12C0 18.625 5.375 24 12 24C18.625 24 24 18.625 24 12ZM12 0.666667C18.2639 0.666667 23.3333 5.73611 23.3333 12C23.3333 18.2639 18.2639 23.3333 12 23.3333C5.73611 23.3333 0.666671 18.2639 0.666671 12C0.666671 5.73611 5.73611 0.666667 12 0.666667Z" fill="#1F1F1F"/>
<path fill-rule="evenodd" clip-rule="evenodd" d="M3.76301 20.5971C3.76301 20.5971 3.63802 20.5693 3.59635 20.5276C3.49913 20.4304 3.49913 20.2776 3.59635 20.1804L20.0547 3.72209C20.1519 3.62486 20.3047 3.62486 20.4019 3.72209C20.4991 3.81931 20.4991 3.97209 20.4019 4.06931L3.94358 20.5276C3.94358 20.5276 3.83246 20.5971 3.77691 20.5971" fill="#1F1F1F"/>
</svg>
