<svg width="24" height="24" viewBox="0 0 24 24" fill="none" xmlns="http://www.w3.org/2000/svg">
<mask id="mask0_1426_1710" style="mask-type:luminance" maskUnits="userSpaceOnUse" x="1" y="1" width="22" height="22">
<path d="M12 1C18.0729 1 23 5.92708 23 12C23 18.0729 18.0729 23 12 23C5.92708 23 1 18.0729 1 12C1 5.92708 5.91435 1 12 1Z" fill="white"/>
</mask>
<g mask="url(#mask0_1426_1710)">
<path fill-rule="evenodd" clip-rule="evenodd" d="M15.2589 7.86227C15.4244 7.74769 15.5772 7.62037 15.7172 7.50579C16.1501 7.14931 16.5193 6.85648 17.2577 6.83102C17.436 6.83102 17.5888 6.67824 17.576 6.48727C17.576 6.30903 17.4232 6.15625 17.2323 6.16898C16.7612 6.16898 16.392 6.28357 16.0864 6.43634L15.2462 7.84954L15.2589 7.86227ZM10.2427 16.3032C10.2427 16.3796 10.23 16.4688 10.23 16.5451C10.23 18.0093 11.083 19.1296 12.6107 19.1296C14.1385 19.1296 14.9915 18.0093 14.9915 16.5451C14.9915 16.2905 14.9406 16.0359 14.8515 15.7685C15.0552 15.8067 15.2716 15.8322 15.5008 15.8322H15.5263C15.4371 15.8576 15.3607 15.934 15.3226 16.0359C15.2589 16.2014 15.348 16.3924 15.5263 16.456C15.87 16.5833 16.1246 16.787 16.392 17.0162C16.8631 17.3981 17.3978 17.8438 18.429 17.8438C19.4603 17.8438 19.995 17.4109 20.4661 17.0162C20.9117 16.6597 21.2809 16.3414 22.083 16.3414C22.8851 16.3414 23.2543 16.6597 23.6999 17.0162C24.1709 17.3981 24.7057 17.8438 25.7369 17.8438C26.7682 17.8438 27.3029 17.4109 27.7739 17.0162C28.2195 16.6597 28.5888 16.3414 29.3908 16.3414C29.5691 16.3414 29.7219 16.1887 29.7219 16.0104C29.7219 15.8322 29.5691 15.6794 29.3908 15.6794C28.3596 15.6794 27.8249 16.1123 27.3538 16.5069C26.9082 16.8634 26.539 17.1817 25.7369 17.1817C24.9348 17.1817 24.5656 16.8634 24.12 16.5069C23.6489 16.125 23.1142 15.6794 22.083 15.6794C21.0517 15.6794 20.517 16.1123 20.0459 16.5069C19.6003 16.8634 19.2311 17.1817 18.429 17.1817C17.627 17.1817 17.2577 16.8634 16.8121 16.5069C16.5066 16.265 16.201 15.9977 15.7427 15.8449H15.7172C16.7739 15.7685 17.5124 15.2338 17.9198 14.4317C18.2253 14.5718 18.6073 14.6736 19.0911 14.6736C20.1223 14.6736 20.657 14.2407 21.1281 13.8461C21.5737 13.4896 21.9429 13.1713 22.745 13.1713C22.9232 13.1713 23.076 13.0185 23.076 12.8403C23.076 12.662 22.9232 12.5093 22.745 12.5093C21.7138 12.5093 21.179 12.9421 20.708 13.3368C20.2624 13.6933 19.8932 14.0116 19.0911 14.0116C18.6964 14.0116 18.4036 13.9352 18.1489 13.8079C18.2381 13.4769 18.289 13.1076 18.289 12.7384C18.289 12.2292 18.1107 11.669 17.8561 11.1343C18.2126 11.3507 18.6582 11.5162 19.282 11.5162C20.3133 11.5162 20.848 11.0833 21.3191 10.6887C21.7647 10.3322 22.1339 10.0139 22.936 10.0139C23.1142 10.0139 23.267 9.86111 23.267 9.68287C23.267 9.50463 23.1142 9.35185 22.936 9.35185C21.9047 9.35185 21.37 9.78472 20.8989 10.1794C20.4533 10.5359 20.0841 10.8542 19.282 10.8542C18.48 10.8542 18.1107 10.5359 17.6651 10.1794C17.436 10.0012 17.2068 9.79746 16.914 9.64468C16.723 9.39005 16.5193 9.16088 16.3411 8.95718V8.93172C16.1246 8.71528 15.8318 8.58797 15.5263 8.58797C15.2207 8.58797 14.9279 8.71528 14.7114 8.93172V8.95718L14.5332 9.16088L12.789 12.1146C12.6362 12.9421 12.267 13.566 11.6814 13.9734L10.2936 16.3287L10.2427 16.3032ZM2.73112 6.83102C3.52047 6.83102 3.90242 7.14931 4.34802 7.50579C4.81908 7.88773 5.3538 8.33334 6.38505 8.33334C6.47417 8.33334 6.55056 8.33334 6.62695 8.33334C6.19408 9.09722 5.86306 9.87384 5.73575 10.5995C5.46839 10.7523 5.1501 10.8542 4.69177 10.8542C3.90242 10.8542 3.52047 10.5359 3.07487 10.1794C2.6038 9.79746 2.06908 9.35185 1.03783 9.35185C0.859592 9.35185 0.706814 9.50463 0.706814 9.68287C0.706814 9.86111 0.859592 10.0139 1.03783 10.0139C1.82718 10.0139 2.20913 10.3322 2.65473 10.6887C3.1258 11.0706 3.66052 11.5162 4.69177 11.5162C5.08644 11.5162 5.40473 11.4525 5.67209 11.3507C5.68482 12.1019 5.8376 12.7766 6.10496 13.3495C5.67209 13.706 5.29015 14.0116 4.5008 14.0116C3.71144 14.0116 3.3295 13.6933 2.8839 13.3368C2.41283 12.9549 1.87811 12.5093 0.84686 12.5093C0.66862 12.5093 0.515842 12.662 0.515842 12.8403C0.515842 13.0185 0.66862 13.1713 0.84686 13.1713C1.63621 13.1713 2.01816 13.4896 2.46376 13.8461C2.93482 14.228 3.46955 14.6736 4.5008 14.6736C5.46839 14.6736 5.99038 14.2917 6.43598 13.9225C7.02163 14.75 7.93829 15.272 9.16052 15.3993L9.69524 14.4826C7.6964 14.4826 6.60149 13.3113 6.60149 11.1725C6.60149 9.17361 9.42788 6.00347 9.54246 5.86343C9.58066 5.82523 9.64431 5.79977 9.69524 5.79977C9.74617 5.79977 9.80982 5.82523 9.84802 5.86343C9.93714 5.96528 11.7195 7.96412 12.4707 9.78472L13.0436 8.8044C12.9418 8.58797 12.8145 8.37153 12.6999 8.15509C12.8908 8.21875 13.1073 8.26968 13.3492 8.29514L13.7311 7.64584H13.6547C12.8654 7.64584 12.4834 7.34028 12.0378 6.97107C11.9614 6.90741 11.8851 6.84375 11.7959 6.78009C11.3631 6.18172 10.9175 5.64699 10.5355 5.22685V5.20139C10.3191 4.97222 10.0135 4.84491 9.70797 4.84491C9.40242 4.84491 9.09686 4.97222 8.88042 5.20139V5.22685C8.3457 5.82523 7.68367 6.65278 7.09802 7.54398C6.89431 7.60764 6.66515 7.64584 6.38505 7.64584C5.5957 7.64584 5.21376 7.32755 4.76816 6.97107C4.29709 6.58912 3.76237 6.14352 2.73112 6.14352C2.55288 6.14352 2.4001 6.2963 2.4001 6.47454C2.4001 6.65278 2.55288 6.80556 2.73112 6.80556V6.83102ZM7.81098 15.6794C6.94524 15.7431 6.46144 16.1377 6.0413 16.4942C5.5957 16.8507 5.22649 17.169 4.42441 17.169C3.62232 17.169 3.25311 16.8507 2.80751 16.4942C2.33644 16.1123 1.80172 15.6667 0.770472 15.6667C0.592231 15.6667 0.439453 15.8194 0.439453 15.9977C0.439453 16.1759 0.592231 16.3287 0.770472 16.3287C1.55982 16.3287 1.94177 16.647 2.38737 17.0035C2.85843 17.3854 3.39316 17.831 4.42441 17.831C5.45566 17.831 5.99038 17.3981 6.46144 17.0035C6.86885 16.6725 7.2126 16.3924 7.86191 16.3414C8.04015 16.3287 8.18019 16.1632 8.16746 15.985C8.15473 15.8067 7.98922 15.6667 7.81098 15.6794ZM12.6107 17.7801C11.9232 17.7801 11.5795 17.36 11.5795 16.5451C11.5795 15.985 12.2288 15.0683 12.6107 14.5972C12.9927 15.0683 13.642 15.985 13.642 16.5451C13.642 17.3727 13.2982 17.7801 12.6107 17.7801ZM12.4962 16.978C12.4325 16.9525 12.3816 16.9016 12.3561 16.838C12.3307 16.7743 12.3434 16.6979 12.3816 16.6343C12.4325 16.5324 12.3816 16.4051 12.2925 16.3542C12.2033 16.3032 12.0633 16.3542 12.0124 16.4433C11.9232 16.5961 11.9105 16.787 11.9742 16.9525C12.0251 17.1181 12.1524 17.2581 12.3179 17.3345C12.4198 17.3854 12.5471 17.3345 12.598 17.2454C12.6489 17.1435 12.598 17.0162 12.5089 16.9653L12.4962 16.978ZM15.5135 10.0394C15.1189 10.4977 14.0621 11.809 14.0621 12.7257C14.0621 13.8843 14.5459 14.4826 15.5135 14.4826C16.4811 14.4826 16.9649 13.897 16.9649 12.7257C16.9649 11.809 15.9209 10.4977 15.5135 10.0394ZM15.5135 14.89C14.3295 14.89 13.6547 14.1007 13.6547 12.7257C13.6547 11.4398 15.2971 9.65741 15.3607 9.58102C15.3989 9.54283 15.4499 9.51736 15.5135 9.51736C15.5772 9.51736 15.6281 9.54283 15.6663 9.58102C15.73 9.65741 17.3723 11.4271 17.3723 12.7257C17.3723 14.1007 16.6976 14.89 15.5135 14.89ZM15.7172 14.0625C15.3353 14.0625 14.9788 13.897 14.7114 13.6296C14.4823 13.3368 14.3932 12.9549 14.4823 12.5857C14.5077 12.4711 14.6096 12.4074 14.7242 12.4201C14.8388 12.4329 14.9151 12.5475 14.8897 12.6493C14.826 12.8912 14.877 13.1586 15.017 13.3623C15.208 13.5405 15.4499 13.6424 15.7172 13.6551C15.8318 13.6551 15.9209 13.7442 15.9209 13.8588C15.9209 13.9734 15.8318 14.0625 15.7172 14.0625ZM9.7207 6.32176C10.2045 6.89468 11.7068 8.72801 12.2288 10.2431L9.9626 14.0498C9.88621 14.0498 9.79709 14.0498 9.7207 14.0498C7.50542 14.0498 7.03436 12.4711 7.03436 11.1597C7.03436 9.56829 9.13505 6.99653 9.7207 6.30903V6.32176ZM9.28783 13.6551C9.28783 13.6551 9.30056 13.6551 9.31329 13.6551C9.42788 13.6551 9.517 13.566 9.517 13.4641C9.517 13.3495 9.44061 13.2604 9.32603 13.2477C8.89316 13.2222 8.49848 13.0185 8.21839 12.6875C7.67093 11.9745 7.84917 10.816 7.84917 10.8032C7.86191 10.6887 7.78552 10.5868 7.68367 10.5741C7.56908 10.5613 7.46723 10.625 7.44177 10.7396C7.44177 10.7905 7.22533 12.0764 7.88737 12.9421C8.23112 13.375 8.72765 13.6424 9.2751 13.6678L9.28783 13.6551ZM12.458 14.1389C12.458 14.1389 11.1721 15.6157 11.1721 16.5451C11.1721 17.6019 11.6941 18.2002 12.6235 18.2002C13.5529 18.2002 14.0749 17.6019 14.0749 16.5451C14.0749 15.6157 12.8399 14.1898 12.789 14.1389C12.7508 14.1007 12.6871 14.0752 12.6362 14.0752C12.5853 14.0752 12.5216 14.1007 12.4834 14.1389H12.458ZM18.1744 7.00926C18.4418 7.13658 18.6709 7.31482 18.9001 7.50579C19.3712 7.88773 19.9059 8.33334 20.9371 8.33334C21.9684 8.33334 22.5031 7.90047 22.9742 7.50579C23.4198 7.14931 23.789 6.83102 24.5911 6.83102C24.7693 6.83102 24.9221 6.67824 24.9221 6.5C24.9221 6.32176 24.7693 6.16898 24.5911 6.16898C23.5598 6.16898 23.0251 6.60185 22.554 6.99653C22.1084 7.35301 21.7392 7.6713 20.9371 7.6713C20.1351 7.6713 19.7658 7.35301 19.3202 6.99653C19.0656 6.79283 18.7982 6.57639 18.4545 6.41088C18.289 6.33449 18.098 6.41088 18.0216 6.57639C17.9452 6.7419 18.0216 6.93287 18.1871 7.00926H18.1744Z" fill="#1F1F1F"/>
<path fill-rule="evenodd" clip-rule="evenodd" d="M17.8821 2.70602L6.66565 21.625L6.10547 21.294L17.3219 2.375L17.8821 2.70602Z" fill="#1F1F1F"/>
</g>
<path fill-rule="evenodd" clip-rule="evenodd" d="M23 12C23 5.92708 18.0729 1 12 1C5.92708 1 1 5.92708 1 12C1 18.0729 5.92708 23 12 23C18.0729 23 23 18.0729 23 12ZM12 1.61111C17.7419 1.61111 22.3889 6.2581 22.3889 12C22.3889 17.7419 17.7419 22.3889 12 22.3889C6.2581 22.3889 1.61111 17.7419 1.61111 12C1.61111 6.2581 6.2581 1.61111 12 1.61111Z" fill="#1F1F1F"/>
</svg>
