<svg width="24" height="21" viewBox="0 0 24 21" fill="none" xmlns="http://www.w3.org/2000/svg">
<g clip-path="url(#clip0_1427_3096)">
<path d="M10.7759 20.6881L23.0541 12.3615L22.2566 11.2244L10.8501 18.9458L0.890263 10.9126L0 11.9764L10.7759 20.6881Z" fill="#1F1F1F"/>
<path d="M20.6608 19.6245H3.00391V21.0184H20.6608V19.6245Z" fill="#1F1F1F"/>
<path d="M19.957 10.1606L24.0002 10.5458L23.9817 10.7109L23.6479 14.489L22.2568 14.3423L22.4794 11.7746L19.8086 11.5179L19.957 10.1606Z" fill="#1F1F1F"/>
<path fill-rule="evenodd" clip-rule="evenodd" d="M8.9216 10.0506C9.05143 11.1327 8.38373 11.0593 8.08698 12.0864C7.54911 13.9388 9.81186 15.131 10.7578 12.9484C11.3513 11.5729 10.7021 10.8026 11.3698 10.4724C12.2972 10.986 11.4255 13.6087 12.9463 14.0122C13.8366 14.2506 14.4116 13.7371 14.4857 12.9851C14.597 11.8297 13.9479 11.6096 13.4842 11.3895C13.3173 9.99559 14.2261 10.8209 14.6156 11.0593C15.2091 11.3895 15.8768 11.4995 16.4703 11.096C17.0267 10.7109 17.1009 10.0139 16.563 9.48205C15.7284 8.67507 14.5599 9.55542 14.393 8.85847C14.3559 8.73009 14.3559 8.78511 14.3559 8.63838C14.3559 8.49166 14.393 8.32659 14.4672 8.21655C14.8381 7.55629 16.2106 7.8314 16.934 7.59297C19.3265 6.78598 17.75 3.00782 14.8938 5.24537L13.9108 6.29079C13.4842 6.78598 13.0205 6.67594 12.5197 6.30913C12.3899 5.37376 13.0391 4.47507 12.6496 3.64974C12.223 2.75105 9.06998 2.20083 9.53366 5.11699C9.73767 6.36415 10.3683 6.93271 9.73767 7.31786C9.03288 7.73969 5.67585 5.92397 5.52747 8.54668C5.47183 9.37201 5.80568 10.3441 6.45483 10.6008C7.36364 10.9676 8.14262 10.1607 8.95869 10.0506" fill="#1F1F1F"/>
<path fill-rule="evenodd" clip-rule="evenodd" d="M13.7983 1.83413C13.8539 2.54942 13.8539 3.44811 14.7627 3.33806C15.5046 3.2647 16.0796 1.74243 15.8199 0.807057C15.5232 -0.220017 13.5943 -0.660192 13.7983 1.83413Z" fill="#1F1F1F"/>
<path fill-rule="evenodd" clip-rule="evenodd" d="M6.37959 4.32838C6.06429 4.45677 5.91591 4.49345 5.82318 4.86026C5.37805 6.30917 7.49242 6.18079 7.62225 6.1441C8.17867 5.97904 8.3085 5.30044 7.91901 4.82358C7.6408 4.45677 7.08438 4.05327 6.37959 4.32838Z" fill="#1F1F1F"/>
</g>
<defs>
<clipPath id="clip0_1427_3096">
<rect width="24" height="21" fill="white"/>
</clipPath>
</defs>
</svg>
