<svg width="24" height="24" viewBox="0 0 24 24" fill="none" xmlns="http://www.w3.org/2000/svg">
<g clip-path="url(#clip0_1427_2850)">
<path fill-rule="evenodd" clip-rule="evenodd" d="M24 12C24 5.375 18.625 0 12 0C5.375 0 0 5.375 0 12C0 18.625 5.375 24 12 24C18.625 24 24 18.625 24 12ZM12 0.666667C18.2639 0.666667 23.3333 5.73611 23.3333 12C23.3333 18.2639 18.2639 23.3333 12 23.3333C5.73611 23.3333 0.666667 18.2639 0.666667 12C0.666667 5.73611 5.73611 0.666667 12 0.666667Z" fill="#1F1F1F"/>
<path fill-rule="evenodd" clip-rule="evenodd" d="M13.0966 7.05556V8.70834C13.0966 9.06945 14.3882 10.0972 14.6382 10.4722L11.666 13.7639C12.041 14.3333 12.416 14.6806 12.8327 15.2361C13.4855 16.0833 12.6521 17.2778 13.416 17.2778H19.0271C19.2771 17.2778 19.3605 17.2083 19.3605 16.9445V7.05556C19.3605 6.80556 19.2771 6.72223 19.0271 6.72223H13.416C13.166 6.72223 13.0827 6.80556 13.0827 7.05556M13.8743 16.5139C13.8743 14.6528 13.8466 15.6389 12.666 13.875C13.5132 12.6111 14.791 11.7361 15.6382 10.4722C15.3605 10.0695 13.8743 8.86112 13.8743 8.50001V7.5139H18.6105V16.5278H13.8743V16.5139Z" fill="#1F1F1F"/>
<path fill-rule="evenodd" clip-rule="evenodd" d="M4.625 7.05554V17.2778H10.4583C10.9583 17.2778 10.7917 16.7083 10.7917 15.5139C10.7917 15.2639 9.76389 14.1944 9.47222 13.75L12.5556 10.4583C11.3889 8.7222 10.75 9.56942 10.7917 7.70831C10.8194 6.94442 10.9583 6.73609 10.25 6.70831L4.93056 6.74998C4.77778 6.77776 4.625 6.70831 4.625 7.05554ZM5.29167 7.49998H10.125V8.81942C10.125 9.16665 11.3194 10.1111 11.5556 10.4722C11.1528 11.0833 10.5139 11.5833 10.0556 12.1666C9.54167 12.8333 9.05556 13.1805 8.58333 13.875C8.73611 14.1111 8.80556 14.125 8.98611 14.3472C9.16667 14.5555 9.18056 14.6111 9.375 14.8333C10.2222 15.7778 10.1111 15.6389 10.1111 16.5139H5.27778V7.49998H5.29167Z" fill="#1F1F1F"/>
<path fill-rule="evenodd" clip-rule="evenodd" d="M11.5553 18.375C11.5553 19.4583 11.4442 19.3611 12.3192 19.3611V18.0417C11.7776 18.0417 11.5553 17.9722 11.5553 18.375Z" fill="#1F1F1F"/>
<path fill-rule="evenodd" clip-rule="evenodd" d="M11.5553 4.97224C11.5553 6.05557 11.4442 5.95835 12.3192 5.95835V4.6389C11.7776 4.6389 11.5553 4.56946 11.5553 4.97224Z" fill="#1F1F1F"/>
<path fill-rule="evenodd" clip-rule="evenodd" d="M12.666 6.18056C12.9438 6.27778 12.9299 6.34723 13.1105 6.51389L13.791 5.875C13.4577 5.41667 13.3605 5.19445 12.9021 5.63889C12.7216 5.81945 12.6938 5.84723 12.666 6.18056Z" fill="#1F1F1F"/>
<path fill-rule="evenodd" clip-rule="evenodd" d="M10.2227 5.81947L10.806 6.48614L11.3615 5.98614L10.6949 5.38892L10.2227 5.81947Z" fill="#1F1F1F"/>
<path fill-rule="evenodd" clip-rule="evenodd" d="M10.2227 18.1389L10.6532 18.625L11.3199 18.0278L10.8199 17.4722L10.2227 18.1389Z" fill="#1F1F1F"/>
<path fill-rule="evenodd" clip-rule="evenodd" d="M12.6387 18.0278C12.7498 18.1666 13.0553 18.5972 13.2081 18.5972C13.472 18.5972 13.5276 18.4166 13.7637 18.2639L13.1248 17.5833L12.6387 18.0278Z" fill="#1F1F1F"/>
<path d="M2.20898 18.5L21.3479 5.04169L21.7507 5.59724L2.61176 19.0695L2.20898 18.5Z" fill="#1F1F1F"/>
</g>
<defs>
<clipPath id="clip0_1427_2850">
<rect width="24" height="24" fill="white"/>
</clipPath>
</defs>
</svg>
