<svg width="24" height="24" viewBox="0 0 24 24" fill="none" xmlns="http://www.w3.org/2000/svg">
<path fill-rule="evenodd" clip-rule="evenodd" d="M7.90577 0.99117L0.880835 1.91337L3.09358 23.0317L9.53849 22.1787L11.3001 20.5187L9.60293 19.6196L9.30217 19.4582L9.55997 19.2046L11.0208 17.8444L9.32366 16.9452L9.02289 16.7838L9.28069 16.5302L10.7415 15.17L9.04438 14.2708L8.74362 14.1095L9.00141 13.8559L10.4623 12.4956L8.7651 11.5965L8.46434 11.4351L8.72213 11.1815L10.183 9.82123L8.48582 8.92208L8.18505 8.7607L8.44285 8.50709L9.90369 7.14685L8.20654 6.24771L7.90577 6.08632L8.16358 5.83272L9.62442 4.47247L7.92726 3.57333L7.6265 3.41194L7.88429 3.15834L9.34514 1.79809L7.90577 1.03728V0.99117ZM9.94666 22.732L2.92172 23.6542H2.68541L2.66392 23.4006L0.386719 1.70587V1.40616L0.601554 1.3831L7.90577 0.414795V0.48396L9.86074 1.52143L10.1615 1.68282L9.90369 1.93642L8.44285 3.29667L10.14 4.19581L10.4408 4.3572L10.183 4.6108L8.72213 5.97105L10.4193 6.87019L10.7201 7.03157L10.4623 7.28518L9.00141 8.64542L10.6986 9.54457L10.9993 9.70595L10.7415 9.95956L9.28069 11.3198L10.9778 12.2189L11.2786 12.3803L11.0208 12.6339L9.55997 13.9942L11.2571 14.8933L11.5579 15.0547L11.3001 15.3083L9.83925 16.6686L11.5364 17.5677L11.8372 17.7291L11.5794 17.9827L10.1185 19.3429L11.8157 20.2421L12.1165 20.4035L11.8586 20.6571L9.98963 22.4093H10.0326L9.94666 22.4554V22.7551V22.732Z" fill="#1F1F1F"/>
<path fill-rule="evenodd" clip-rule="evenodd" d="M7.86278 1.31392L1.22453 2.19001L3.37283 22.6628L9.43104 21.879L10.7845 20.6109L9.19473 19.7579C9.04435 19.6887 8.97989 19.4813 9.06583 19.3199C9.06583 19.2738 9.10879 19.2276 9.15176 19.2046L10.5267 17.9135L8.93693 17.0605C8.78655 16.9913 8.7221 16.7838 8.80803 16.6224C8.80803 16.5763 8.851 16.5302 8.89397 16.5072L10.2689 15.2161L8.67913 14.363C8.52875 14.2939 8.46431 14.0864 8.55024 13.925C8.55024 13.8789 8.5932 13.8328 8.63616 13.8097L10.0111 12.5186L8.42134 11.6656C8.27096 11.5964 8.2065 11.389 8.29244 11.2276C8.29244 11.1815 8.3354 11.1353 8.37837 11.1123L9.75328 9.82121L8.16354 8.96818C8.01316 8.89901 7.94871 8.69152 8.03464 8.53013C8.03464 8.48402 8.07761 8.43791 8.12058 8.41486L9.49549 7.12378L7.90574 6.27074C7.75536 6.20158 7.69092 5.99408 7.77685 5.8327C7.77685 5.78659 7.81982 5.74048 7.86278 5.71742L9.23769 4.42635L7.64795 3.57331C7.49757 3.50415 7.43312 3.29665 7.51905 3.13527C7.51905 3.08916 7.56201 3.04305 7.60498 3.01999L8.97989 1.72891L8.01316 1.2217L7.86278 1.31392ZM0.665968 1.65975H0.687456H0.644489H0.665968ZM2.94317 23.3084H2.98614L2.94317 23.2853V23.3084ZM9.96812 23.0548L2.68538 24C2.51351 24 2.36313 23.8848 2.34165 23.7234C1.69716 16.3227 0.773389 8.82985 0 1.40614C0 1.2217 0.107413 1.06032 0.257794 1.03726L7.79833 0.0458984C7.92723 0.0458984 8.03464 0.0920082 8.09909 0.207283L10.2259 1.33698C10.3763 1.40614 10.4407 1.61364 10.3548 1.77502C10.3548 1.82113 10.3118 1.86724 10.2689 1.8903L8.89397 3.18138L10.4837 4.03441C10.6341 4.10358 10.6985 4.31107 10.6126 4.47246C10.6126 4.51857 10.5696 4.54162 10.5482 4.56468L9.17324 5.85575L10.763 6.70879C10.9134 6.77795 10.9778 6.98545 10.8919 7.14683C10.8919 7.19294 10.8489 7.23905 10.806 7.26211L9.43104 8.55319L11.0208 9.40622C11.1712 9.47539 11.2356 9.68288 11.1497 9.84427C11.1497 9.89038 11.1067 9.93649 11.0637 9.95954L9.68884 11.2506L11.2786 12.1037C11.429 12.1728 11.4934 12.3803 11.4075 12.5417C11.4075 12.5878 11.3645 12.6339 11.3215 12.657L9.94663 13.9481L11.5364 14.8011C11.6868 14.8703 11.7512 15.0777 11.6653 15.2391C11.6653 15.2852 11.6223 15.3314 11.5793 15.3544L10.2044 16.6455L11.7942 17.4985C11.9446 17.5677 12.009 17.7752 11.9231 17.9366C11.9231 17.9827 11.8801 18.0288 11.8371 18.0518L10.4622 19.3429L12.052 20.196C12.2023 20.2651 12.2668 20.4726 12.1809 20.634C12.1809 20.6801 12.1379 20.7032 12.1164 20.7262C11.4504 21.3487 10.7845 21.9942 10.1185 22.6167V22.6628C10.1185 22.6628 10.0755 22.7089 10.054 22.732V22.7781C10.054 22.9626 9.94663 23.1009 9.79625 23.1239L9.96812 23.0548Z" fill="#1F1F1F"/>
<path fill-rule="evenodd" clip-rule="evenodd" d="M16.24 0.99117L23.2649 1.91337L21.0522 23.0317L14.6073 22.1787L12.8457 20.5187L14.5428 19.6196L14.8436 19.4582L14.5858 19.2046L13.1249 17.8444L14.8221 16.9452L15.1229 16.7838L14.8651 16.5302L13.4042 15.17L15.1014 14.2708L15.4021 14.1095L15.1443 13.8559L13.6835 12.4956L15.3807 11.5965L15.6814 11.4351L15.4236 11.1815L13.9628 9.82123L15.6599 8.92208L15.9607 8.7607L15.7029 8.50709L14.242 7.14685L15.9392 6.24771L16.24 6.08632L15.9822 5.83272L14.5213 4.47247L16.2185 3.57333L16.5193 3.41194L16.2615 3.15834L14.8006 1.79809L16.24 1.03728V0.99117ZM14.2206 22.732L21.2455 23.6542H21.4818L21.5033 23.4006L23.7805 1.70587V1.40616L23.5657 1.3831L16.2615 0.414795V0.48396L14.3065 1.52143L14.0057 1.68282L14.2635 1.93642L15.7244 3.29667L14.0272 4.19581L13.7265 4.3572L13.9843 4.6108L15.4451 5.97105L13.7479 6.87019L13.4472 7.03157L13.705 7.28518L15.1658 8.64542L13.4687 9.54457L13.1679 9.70595L13.4257 9.95956L14.8865 11.3198L13.1894 12.2189L12.8886 12.3803L13.1464 12.6339L14.6073 13.9942L12.9101 14.8933L12.6093 15.0547L12.8671 15.3083L14.328 16.6686L12.6308 17.5677L12.3301 17.7291L12.5879 17.9827L14.0487 19.3429L12.3516 20.2421L12.0508 20.4035L12.3086 20.6571L14.1776 22.4093H14.1346L14.242 22.4554V22.7551L14.2206 22.732Z" fill="#1F1F1F"/>
<path fill-rule="evenodd" clip-rule="evenodd" d="M22.923 2.19022L16.2848 1.31413L15.3395 1.82134L16.7144 3.11242C16.7144 3.11242 16.7789 3.18159 16.8004 3.2277C16.8648 3.38908 16.8004 3.57352 16.6715 3.66574L15.0817 4.51878L16.4566 5.80986C16.4566 5.80986 16.5211 5.87902 16.5426 5.92513C16.607 6.08651 16.5426 6.27096 16.4137 6.36317L14.8239 7.21621L16.1988 8.50729C16.1988 8.50729 16.2633 8.57645 16.2848 8.62256C16.3492 8.78395 16.2848 8.96839 16.1559 9.06061L14.5661 9.91364L15.941 11.2047C15.941 11.2047 16.0055 11.2739 16.027 11.32C16.0914 11.4814 16.027 11.6658 15.8981 11.758L14.3083 12.6111L15.6832 13.9022C15.6832 13.9022 15.7477 13.9713 15.7692 14.0174C15.8336 14.1788 15.7692 14.3633 15.6403 14.4555L14.0505 15.3085L15.4254 16.5996C15.4254 16.5996 15.4899 16.6688 15.5114 16.7149C15.5758 16.8762 15.5114 17.0607 15.3825 17.1529L13.7927 18.0059L15.1676 19.297C15.1676 19.297 15.2321 19.3662 15.2536 19.4123C15.318 19.5737 15.2536 19.7581 15.1247 19.8503L13.5349 20.7034L14.8884 21.9714L20.9466 22.7553L23.0949 2.28244L22.923 2.19022ZM23.4816 1.68301L23.4386 1.65996H23.4601L23.4816 1.68301ZM21.2044 23.9772L14.1794 23.055C14.0076 23.055 13.9002 22.8705 13.9216 22.7092V22.663C13.9216 22.663 13.9002 22.6169 13.8787 22.5939V22.5478C13.1912 21.9253 12.5252 21.2798 11.8593 20.6573C11.8378 20.6342 11.7948 20.5881 11.7948 20.565C11.7304 20.4037 11.7948 20.2192 11.9237 20.127L13.5135 19.274L12.1385 17.9829C12.1385 17.9829 12.0741 17.9137 12.0526 17.8676C11.9882 17.7062 12.0526 17.5218 12.1815 17.4296L13.7713 16.5765L12.3963 15.2855C12.3963 15.2855 12.3319 15.2163 12.3104 15.1702C12.246 15.0088 12.3104 14.8244 12.4393 14.7321L14.029 13.8791L12.6541 12.588C12.6541 12.588 12.5897 12.5189 12.5682 12.4727C12.5038 12.3114 12.5682 12.1269 12.6971 12.0347L14.2868 11.1817L12.9119 9.89059C12.9119 9.89059 12.8475 9.82142 12.8475 9.79837C12.783 9.63698 12.8475 9.45254 12.9764 9.36032L14.5661 8.50729L13.1912 7.21621C13.1912 7.21621 13.1268 7.14704 13.1053 7.10093C13.0408 6.93955 13.1053 6.75511 13.2342 6.66289L14.8239 5.80986L13.449 4.51878C13.449 4.51878 13.3846 4.44961 13.3846 4.42656C13.3201 4.26517 13.3846 4.08073 13.5135 3.98851L15.1032 3.13548L13.7283 1.8444C13.7283 1.8444 13.6638 1.77523 13.6424 1.72912C13.5779 1.56774 13.6424 1.3833 13.7713 1.29108L15.8981 0.161385C15.8981 0.161385 16.0699 0 16.1988 0L23.7394 0.991364C23.9112 0.991364 24.0186 1.1758 23.9972 1.36024C23.2238 8.76089 22.3215 16.2538 21.6555 23.6544C21.6555 23.8389 21.4837 23.9541 21.3118 23.9311H21.054L21.2044 23.9772ZM21.1829 23.3086H21.2259V23.2855H21.1829V23.3086Z" fill="#1F1F1F"/>
</svg>
