<svg width="24" height="24" viewBox="0 0 24 24" fill="none" xmlns="http://www.w3.org/2000/svg">
<g clip-path="url(#clip0_1426_1890)">
<path fill-rule="evenodd" clip-rule="evenodd" d="M18.7158 15C18.2158 13.6166 14.9658 15.8 14.3991 16.0833C13.7158 16.4333 13.5158 16.6833 12.4158 16.5166C11.3991 16.3666 10.9824 16.4833 10.1991 16.0833C9.61576 15.8 9.21576 15.4833 8.56576 15.2C6.68242 14.4 4.49909 13.8 2.28242 13.8C-0.567578 13.8 -0.284245 15 0.765755 14.8333C3.58242 14.35 5.88242 14.9333 8.43242 16.05C10.2491 16.8333 9.13242 17.05 12.0991 17.3C13.5491 17.4166 17.3824 17.9166 17.3824 19.5666C17.3824 21.7333 14.7491 19.6833 12.4658 19.6833C5.74909 19.6833 7.78242 20.7666 7.78242 20.7666C9.04909 20.7666 9.89909 20.4666 11.9658 20.4833C13.4658 20.4833 14.4658 20.95 15.6991 21.2333L15.2658 21.5166C11.7491 23.5166 11.5658 23.6 8.13242 22.2166L1.14909 19C0.782422 18.8166 -0.0175781 18.2666 -0.0175781 19.0833C-0.0175781 19.5833 3.31576 20.9333 3.86576 21.2C5.68242 22.0666 9.61576 24 11.4991 24C13.7158 24 19.9991 19.4333 21.7324 18.0333C23.0991 16.9333 23.4824 16.6166 23.8324 15.45C23.9491 15.0333 23.9824 15.45 23.9824 14.6333C23.9824 14.0333 22.7158 13.6666 22.0658 13.6666C20.6824 13.6666 19.6491 14.4833 18.6991 14.9833M16.3158 17.4L19.1658 15.7C20.2158 15.0333 20.8824 14.5166 22.5491 14.5166V14.75C20.8491 14.75 18.8991 16.45 17.2158 17.35C16.7491 17.6 16.8324 17.4333 16.2991 17.3833L16.3158 17.4ZM14.8824 16.9166V16.6833C15.8158 16.4666 16.7991 15.3666 18.1158 15.3666C17.5658 15.85 15.4324 16.8833 14.8824 16.9333V16.9166ZM18.2324 19.5666C18.1658 18.6833 17.7824 18.6666 17.6324 18C18.7824 17.7 20.9158 15.5166 22.9158 15.4833C22.8324 16.5166 20.4324 18.0833 19.6324 18.6666C19.2491 18.9333 18.5824 19.4666 18.2491 19.55L18.2324 19.5666Z" fill="#1F1F1F"/>
<path fill-rule="evenodd" clip-rule="evenodd" d="M5.0332 6C5.0332 8.9 6.0832 10.9333 8.74987 12.25C12.7832 14.25 17.8665 11.15 17.8665 6.48333C17.8665 2.95 14.9665 0 11.7499 0H11.1499C7.99987 0 5.0332 2.86667 5.0332 6ZM11.8832 12C10.0999 12 8.81654 11.7167 7.5332 10.4667C5.34987 8.36667 5.2832 4.61667 7.46654 2.41667C10.1165 -0.233333 14.9332 0.416667 16.5665 4.06667C17.2165 5.51667 17.2165 7.3 16.5665 8.75C16.4332 9.05 16.2665 9.33333 16.0832 9.6C15.5665 10.3167 15.4665 10.4 14.7832 10.9333C14.0832 11.4833 12.8332 12 11.8832 12Z" fill="#1F1F1F"/>
<path fill-rule="evenodd" clip-rule="evenodd" d="M9.8668 3.31672H13.8835C13.6501 3.70005 13.5168 3.91672 13.4835 3.93338H12.4168C12.5668 4.11672 12.6668 4.33338 12.7168 4.60005H13.8668C13.8668 4.60005 13.8835 4.60005 13.8835 4.61672C13.6335 5.01672 13.5001 5.21672 13.4835 5.21672H12.7501C12.7501 5.41672 12.6335 5.66672 12.4668 5.96672C12.2335 6.26672 12.0168 6.45005 11.8001 6.53338C11.4168 6.73338 11.0335 6.83338 10.6835 6.83338C10.6835 6.83338 10.7668 6.98338 10.9501 7.20005L12.9335 9.70005V9.81672C12.9335 9.81672 12.9335 9.83338 12.9168 9.83338H12.0501C10.4835 7.91672 9.70013 6.96672 9.70013 6.95005V6.36672C9.83346 6.36672 10.0001 6.36672 10.1835 6.36672C11.0501 6.36672 11.6001 6.06672 11.8168 5.46672C11.8501 5.38338 11.8668 5.28338 11.8668 5.20005H9.48346C9.48346 5.20005 9.4668 5.20005 9.4668 5.18338C9.73346 4.78338 9.8668 4.58338 9.8668 4.58338H11.7668C11.6501 4.35005 11.4501 4.16672 11.1335 4.03338C10.9168 3.95005 10.7168 3.91672 10.5335 3.91672H9.4668C9.7168 3.50005 9.85013 3.30005 9.8668 3.30005" fill="#1F1F1F"/>
</g>
<defs>
<clipPath id="clip0_1426_1890">
<rect width="24" height="24" fill="white"/>
</clipPath>
</defs>
</svg>
