<svg width="24" height="24" viewBox="0 0 24 24" fill="none" xmlns="http://www.w3.org/2000/svg">
<g clip-path="url(#clip0_1426_2196)">
<path fill-rule="evenodd" clip-rule="evenodd" d="M2.74747 10.15C2.61092 10.7334 2.69626 14.45 2.69626 15.3334C2.69626 15.55 2.98645 15.6167 3.20836 15.6167H7.83424C8.22685 15.6167 8.34633 15.5 8.34633 15.1167V10.4834C8.34633 10.3 8.24392 10.1 8.05615 10.1C7.35629 10.1 3.0718 10.0334 2.74747 10.15Z" fill="#1F1F1F"/>
<path fill-rule="evenodd" clip-rule="evenodd" d="M2.67969 4.01667V8.98333C2.67969 9.16667 2.88452 9.26667 3.07229 9.26667C3.95991 9.26667 7.6299 9.35 8.21027 9.21667C8.27855 9.08333 8.32976 8.96667 8.32976 8.76667V4.13333C8.32976 3.86667 8.1932 3.75 7.93716 3.75H2.96987C2.83331 3.75 2.67969 3.9 2.67969 4.03333" fill="#1F1F1F"/>
<path fill-rule="evenodd" clip-rule="evenodd" d="M9.25138 10.15C9.11482 10.7334 9.20017 14.45 9.20017 15.3334C9.20017 15.55 9.49036 15.6167 9.71226 15.6167H14.3381C14.543 15.6167 14.5601 15.5834 14.7308 15.5667C14.8673 14.9834 14.782 11.2167 14.782 10.3167C14.782 10.1834 14.6795 10.1 14.5601 10.1C13.8602 10.1 9.5757 10.0334 9.25138 10.15Z" fill="#1F1F1F"/>
<path fill-rule="evenodd" clip-rule="evenodd" d="M9.25138 3.79998C9.11482 4.38331 9.20017 8.09998 9.20017 8.98331C9.20017 9.16665 9.40501 9.26665 9.59277 9.26665H14.4576C14.6283 9.26665 14.799 9.21665 14.799 9.04998V3.96665C14.799 3.79998 14.6283 3.74998 14.4576 3.74998C13.7578 3.74998 9.5757 3.68331 9.25138 3.79998Z" fill="#1F1F1F"/>
<path fill-rule="evenodd" clip-rule="evenodd" d="M15.7221 10.3333V15.35C15.7221 15.5333 15.927 15.6333 16.1148 15.6333H20.9113C21.0991 15.6333 21.3039 15.5333 21.3039 15.35V10.3333C21.3039 10.1666 21.1332 10.1166 20.9625 10.1166H16.0465C15.8758 10.1166 15.7051 10.1666 15.7051 10.3333" fill="#1F1F1F"/>
<path fill-rule="evenodd" clip-rule="evenodd" d="M9.20117 16.6833V21.7C9.20117 21.8333 9.30359 21.9167 9.42308 21.9167H14.5611C14.6976 21.9167 14.783 21.8167 14.783 21.7V16.6833C14.783 16.55 14.6805 16.4667 14.5611 16.4667H9.42308C9.28652 16.4667 9.20117 16.5667 9.20117 16.6833Z" fill="#1F1F1F"/>
<path fill-rule="evenodd" clip-rule="evenodd" d="M15.7207 16.6833V21.7C15.7207 21.8333 15.8231 21.9167 15.9426 21.9167H21.0806C21.2171 21.9167 21.3025 21.8167 21.3025 21.7V16.6833C21.3025 16.55 21.2001 16.4667 21.0806 16.4667H15.9426C15.8061 16.4667 15.7207 16.5667 15.7207 16.6833Z" fill="#1F1F1F"/>
<path fill-rule="evenodd" clip-rule="evenodd" d="M15.7217 3.96664C15.7217 4.86664 15.6363 8.6333 15.7729 9.21664C16.2508 9.3333 20.7743 9.3333 21.2693 9.21664C21.4059 8.66664 21.3205 6.26664 21.3205 5.5333C21.3205 5.2333 20.5012 4.11664 20.3988 3.74997H16.7458C16.4044 3.74997 15.7217 3.64997 15.7217 3.96664Z" fill="#1F1F1F"/>
<path fill-rule="evenodd" clip-rule="evenodd" d="M2.74836 16.5167C2.62888 17.0333 2.69716 17.9167 2.69716 18.4667C2.69716 18.6667 3.37994 19.7667 3.55064 20.0833C3.70427 20.3833 3.65306 20.35 3.96031 20.5167L5.599 21.3833C5.83798 21.5 5.90626 21.5833 5.90626 21.9333H8.14239C8.34723 21.9333 8.3643 21.6833 8.3643 21.4833V16.85C8.3643 16.6667 8.26188 16.4667 8.07411 16.4667C7.37425 16.4667 3.08976 16.4 2.76543 16.5167" fill="#1F1F1F"/>
<path fill-rule="evenodd" clip-rule="evenodd" d="M19.5449 2.18333C19.7156 2.4 20.6203 2.71666 20.9105 2.98333C21.0983 3.15 21.5762 4.08333 21.7298 4.36666C22.02 4.18333 22.3273 3.25 22.5663 3.01666C22.6857 2.9 23.8294 2.3 24.0172 2.25V2.13333C23.8123 2.08333 22.7028 1.48333 22.5663 1.36666C22.3102 1.13333 22.02 0.199996 21.7298 0.0166626C21.5933 0.249996 21.4738 0.449996 21.3543 0.699996C21.2519 0.899996 21.0812 1.21666 20.9446 1.36666C20.6886 1.65 19.7327 1.95 19.562 2.18333" fill="#1F1F1F"/>
<path fill-rule="evenodd" clip-rule="evenodd" d="M-0.000508424 21.7667V21.8834C0.204328 21.9334 1.31386 22.5334 1.45042 22.65C1.67232 22.8667 2.01372 23.8 2.28683 24C2.42339 23.7667 2.54288 23.5667 2.66236 23.3167C2.76478 23.1167 2.93548 22.8 3.07204 22.65C3.32808 22.3667 4.28399 22.0667 4.45468 21.8334C4.28399 21.6167 3.37929 21.2834 3.08911 21.0334C2.90134 20.8667 2.42339 19.9334 2.26976 19.65C1.97958 19.8334 1.67232 20.7667 1.43335 21C1.31386 21.1167 0.170189 21.7167 -0.0175781 21.7667" fill="#1F1F1F"/>
</g>
<defs>
<clipPath id="clip0_1426_2196">
<rect width="24" height="24" fill="white"/>
</clipPath>
</defs>
</svg>
