<svg width="24" height="24" viewBox="0 0 24 24" fill="none" xmlns="http://www.w3.org/2000/svg">
<path fill-rule="evenodd" clip-rule="evenodd" d="M12.3087 11.426L12.6815 11.8465C12.817 11.9196 12.9187 12.0842 13.0881 12.267C13.2745 12.4682 13.3423 12.4864 13.427 12.7424C13.4778 12.7973 13.4439 12.7059 13.5287 12.8887C13.5795 12.9801 13.5795 13.0167 13.5964 13.0898C13.6473 13.2544 13.6812 13.3275 13.6981 13.5104C13.732 14.8634 13.0034 15.3571 12.4443 15.9605C11.8343 16.6187 11.2752 17.2221 10.6652 17.8803C10.0552 18.5385 9.49609 19.1419 8.88612 19.8001C8.39476 20.3304 7.80173 21.1715 6.73429 21.3177C5.44657 21.4823 4.78577 20.7692 4.24358 20.1841C3.6675 19.5624 3.19308 18.5751 3.54889 17.3318C3.80305 16.4541 4.46385 15.9239 5.12465 15.1925C5.44657 14.8451 6.68345 13.4007 6.88678 13.3092C6.95455 13.1812 6.90372 13.2727 6.9715 13.1812L7.27648 12.8887C7.27648 12.8887 7.31037 12.8704 7.31037 12.8521C7.32731 12.7059 7.51369 12.5779 7.61535 12.523C7.71701 12.2853 7.93728 12.0659 8.1406 11.9562C8.15755 11.7734 8.24226 11.7368 8.25921 11.5174V11.3345C8.19143 10.7494 7.54758 10.1461 6.78512 11.0054C6.61568 11.1883 6.48013 11.426 6.34458 11.4625C6.25987 11.6088 6.34458 11.4991 6.24292 11.6271L5.93794 11.9014C5.92099 12.0111 5.88711 11.9928 5.75156 12.139C5.6499 12.2488 5.63295 12.3219 5.53129 12.3402L5.29408 12.651C5.20936 12.7424 5.17548 12.779 5.05687 12.8887C4.0572 14.26 1.61732 15.5033 1.90536 18.63C2.10869 20.8789 4.1758 23.0182 6.4293 22.9999C7.78479 22.9999 8.75057 22.2868 9.39443 21.6103L13.6642 17.0209C14.3081 16.3444 15.0705 15.6496 15.223 14.1503C15.223 13.6018 15.223 13.1081 15.0705 12.6144C14.9011 12.0842 14.7486 11.9562 14.5283 11.5357C14.325 11.2431 12.8509 9.63411 12.6476 9.5244C12.1054 9.23185 11.5802 9.70724 11.5463 10.2192C11.5124 10.786 12.0715 11.17 12.3087 11.4625M18.239 13.6384C17.8323 13.8578 17.5612 14.4246 17.9848 14.9183C18.2729 15.2474 18.8828 15.2657 19.4081 15.3571C19.9842 15.4668 22.1699 15.9787 22.5935 15.7593C22.9832 15.5399 23.1526 14.8634 22.8307 14.4611C22.5765 14.1503 21.8819 14.1137 21.4244 14.0223C20.8483 13.9126 18.6626 13.4007 18.2559 13.6201L18.239 13.6384ZM1.61732 8.22622C1.1429 8.35421 0.820975 8.92102 1.10902 9.46955C1.34623 9.89009 1.88842 9.90837 2.44756 9.99979C2.95587 10.0912 5.29408 10.5666 5.61601 10.4935C6.0396 10.402 6.4293 9.79867 6.07349 9.23185C5.80239 8.79303 5.31102 8.81132 4.73494 8.70161C4.26052 8.61019 1.87148 8.1348 1.60038 8.20794L1.61732 8.22622ZM7.31037 1.68047C6.73429 1.93644 6.80206 2.46669 6.98844 3.08835L7.92034 6.25152C8.00505 6.54407 8.07283 6.7452 8.25921 6.92804C8.64891 7.27544 9.83496 7.2023 9.36054 5.62986L8.42864 2.46669C8.25921 1.95473 8.00505 1.36963 7.31037 1.68047ZM15.0705 17.0027C14.5114 17.1855 14.4436 17.734 14.63 18.374L15.5619 21.5371C15.7313 22.0674 15.9347 22.6525 16.6293 22.4331C17.2054 22.2502 17.2393 21.72 17.036 21.0435L16.1041 17.8803C16.0024 17.5512 15.9855 17.3866 15.7822 17.1855C15.5958 17.0209 15.3416 16.9112 15.0705 17.0027ZM16.7818 15.4668C16.4599 15.5948 16.1888 15.997 16.3244 16.4907C16.4091 16.8015 16.8327 17.1855 17.019 17.3866C17.646 18.0631 18.1881 18.8859 18.832 18.63C19.1539 18.502 19.425 18.0997 19.2895 17.606C19.2048 17.3135 18.7642 16.9112 18.5948 16.7284C18.3237 16.4358 18.1034 16.1981 17.8323 15.9056C17.6121 15.6679 17.324 15.2474 16.7818 15.4668ZM5.14159 5.48359C4.02331 6.06868 5.1077 7.05603 5.41269 7.40343C5.68378 7.69598 5.90405 7.93367 6.17515 8.22622C6.37847 8.44563 6.73429 8.84789 7.24259 8.59191C7.53063 8.44563 7.80173 8.04338 7.64924 7.54971C7.56452 7.27544 7.10704 6.8549 6.93761 6.67206C6.25987 5.94069 5.7685 5.13619 5.14159 5.4653V5.48359ZM8.86918 10.5483C8.98778 10.8043 9.0725 11.4808 9.19111 11.8099C9.25888 11.9014 9.29277 12.0293 9.36054 12.139C9.41137 12.2122 9.42832 12.2488 9.4622 12.3036C9.52998 12.4133 9.51303 12.3585 9.52998 12.4864C9.58081 12.5413 9.56386 12.523 9.6147 12.5779L10.123 13.1264C10.2077 13.2361 10.1569 13.163 10.2077 13.291C10.4958 13.3824 11.0718 14.3149 11.4615 14.5343C11.7665 14.7171 12.1562 14.6074 12.3596 14.388C12.7493 13.9492 12.4951 13.7663 12.529 13.3824C12.529 13.3824 12.4951 13.3458 12.4782 13.3458C12.4273 13.4372 12.4443 13.3275 12.3087 13.163C12.1732 12.9984 12.224 13.1264 12.1054 12.907L11.8343 12.6144C11.7326 12.5596 11.7835 12.6144 11.6988 12.5047C11.6649 12.4682 11.6479 12.4133 11.614 12.3767L11.4277 12.1756C11.4277 12.1756 11.4107 12.1573 11.3938 12.139L11.1057 11.8465C10.9871 11.7734 11.0888 11.8465 11.0041 11.7551L10.7669 11.426C10.4619 11.1151 10.3433 10.3838 10.4619 9.81695C10.6483 8.97588 11.614 8.1348 12.1732 7.51314L15.5619 3.89286C16.0363 3.3809 16.4091 2.85066 17.3749 2.72267C19.3234 2.46669 21.4244 4.88021 20.3908 7.12917C20.0519 7.87882 17.646 10.2375 16.8835 11.1151C16.7988 11.2066 16.7479 11.3163 16.6293 11.3528L16.138 11.9379C15.8838 12.1573 15.8499 12.3036 15.8669 12.7607C15.9516 13.1264 16.1719 13.4007 16.5785 13.4189C17.0529 13.4555 17.2224 13.0898 17.4257 12.9253L17.8493 12.4499L18.3068 11.9379C18.3068 11.9379 18.3576 11.9014 18.3745 11.8831C18.4423 11.7916 18.4592 11.7734 18.527 11.6819C18.544 11.6637 18.5948 11.6088 18.6117 11.5905C18.6965 11.4991 18.6117 11.5722 18.7134 11.4991L18.9337 11.2614C19.0353 11.042 19.0353 11.1334 19.1878 10.9689L19.4589 10.6946C19.5267 10.5483 19.8317 10.2741 19.9503 10.1461C20.1367 9.94494 20.2892 9.78038 20.4755 9.56097C20.8144 9.177 21.1702 8.84789 21.4921 8.35421C22.0852 7.42172 22.3902 5.97726 22.0513 4.64251C21.5091 2.53982 19.3403 0.638264 17.019 1.0588C15.6974 1.2965 14.9858 2.06443 14.3589 2.74095C13.6303 3.52717 12.9526 4.25854 12.224 5.04476C11.3938 5.94069 9.63164 7.65941 9.19111 8.61019C9.0725 8.86617 8.97084 9.15872 8.92001 9.46955C8.85223 9.79867 8.88612 10.1826 8.83529 10.5118L8.86918 10.5483Z" fill="#1F1F1F"/>
</svg>
