<svg width="24" height="24" viewBox="0 0 24 24" fill="none" xmlns="http://www.w3.org/2000/svg">
<path fill-rule="evenodd" clip-rule="evenodd" d="M6.45818 22.9985C6.87054 22.9985 7.25235 22.9374 7.25235 22.2502V1.75439C7.25235 0.731127 6 0.822763 6 1.58639V22.5404C6 22.7084 6.29018 22.9985 6.45818 22.9985Z" fill="#1F1F1F"/>
<path fill-rule="evenodd" clip-rule="evenodd" d="M18.0651 22.9987C18.2636 22.9987 18.4316 23.0292 18.6149 22.8001C18.6913 22.7085 18.7524 22.5558 18.7524 22.4183V1.58651C18.7524 0.853427 17.5 0.715974 17.5 1.75451V22.2503C17.5 22.6321 17.6985 22.9987 18.0651 22.9987Z" fill="#1F1F1F"/>
<path fill-rule="evenodd" clip-rule="evenodd" d="M10.9012 11.1471C11.3441 11.1471 11.4662 10.7194 11.4662 10.3529C11.4662 10.1238 10.8706 9.65034 10.7179 9.43653H15.0095C16.0786 9.43653 16.0022 8.61181 15.6204 8.30636C15.4371 8.15363 15.3149 8.1689 15.0095 8.18417H10.7179C11.0844 7.64963 11.4662 7.69545 11.4662 7.03873C11.4662 6.71801 11.1608 6.45837 10.8401 6.45837C10.5193 6.45837 9.7099 7.35946 9.45026 7.63436C9.14481 7.93981 8.56445 8.44381 8.56445 8.74926C8.56445 9.23798 9.08372 9.58925 9.60299 10.1085C10.0153 10.5209 10.5041 11.1471 10.9012 11.1471Z" fill="#1F1F1F"/>
<path fill-rule="evenodd" clip-rule="evenodd" d="M13.5434 19.4401C13.1005 19.4401 12.9784 19.0125 12.9784 18.6459C12.9784 18.4168 13.574 17.9434 13.7267 17.7296H9.43512C8.36604 17.7296 8.4424 16.9048 8.82422 16.5994C9.00749 16.4467 9.12967 16.4619 9.43512 16.4772H13.7267C13.3602 15.9427 12.9784 15.9885 12.9784 15.3318C12.9784 15.011 13.2838 14.7514 13.6045 14.7514C13.9253 14.7514 14.7347 15.6525 15.0096 15.9274C15.3151 16.2328 15.8954 16.7368 15.8954 17.0423C15.8954 17.531 15.3762 17.8823 14.8569 18.4015C14.4445 18.8139 13.9558 19.4401 13.5587 19.4401" fill="#1F1F1F"/>
</svg>
