<svg width="24" height="24" viewBox="0 0 24 24" fill="none" xmlns="http://www.w3.org/2000/svg">
<path fill-rule="evenodd" clip-rule="evenodd" d="M15.2482 8.97251C15.3306 8.97251 15.413 8.97251 15.4954 8.80768C15.5779 8.64284 15.5779 8.56042 15.6603 8.39558C15.6603 8.31317 15.7427 8.31317 15.8251 8.31317C17.0614 8.89009 17.9681 9.71428 18.545 10.9506C18.6274 11.1154 18.7098 11.2802 18.7923 11.4451C18.8747 11.6099 18.9571 11.6099 19.0395 11.6099C19.2044 11.5275 19.2044 11.4451 19.2044 11.2802C19.1219 11.2802 19.1219 11.1978 19.1219 11.1978C18.6274 9.96153 17.8032 8.97251 16.7318 8.31317C16.5669 8.23075 16.3197 8.06591 16.1548 7.98349C15.5779 7.73624 15.0009 7.5714 14.424 7.48898C13.7646 7.32415 13.1053 7.32415 12.4459 7.48898C12.1986 7.5714 11.9514 7.5714 11.7865 7.65382C11.4569 7.73624 11.1272 7.90108 10.7975 8.06591C10.7975 8.06591 10.7151 8.14833 10.6327 8.14833C10.3854 8.31317 10.1381 8.478 9.89087 8.64284C8.57215 9.71428 7.83037 11.1154 7.58311 12.7638C7.50068 13.8352 7.66553 14.8242 8.07763 15.7308C8.57215 17.0495 9.47877 18.0385 10.7151 18.6979C11.2096 18.9451 11.7041 19.11 12.1986 19.2748C12.5283 19.3572 12.9404 19.3572 13.2701 19.3572C13.6822 19.4396 14.0943 19.3572 14.424 19.2748C14.5888 19.2748 14.5888 19.1924 14.5888 19.0275C14.5064 18.9451 14.5064 18.8627 14.2591 18.9451H13.2701C12.858 18.9451 12.3635 18.8627 11.9514 18.7803C11.869 18.6979 11.7865 18.6979 11.869 18.6155C11.9514 18.4506 11.9514 18.2858 12.0338 18.1209C12.1162 17.9561 11.9514 17.7913 11.7865 17.7913C11.7041 17.8737 11.6217 17.9561 11.6217 18.0385C11.5393 18.1209 11.5393 18.2858 11.4569 18.3682C11.4569 18.533 11.3744 18.533 11.292 18.4506C10.8799 18.3682 10.5502 18.1209 10.2206 17.8737C9.64361 17.4616 9.14909 16.8847 8.73699 16.2253C8.68204 16.1154 8.70952 16.033 8.81941 15.9781C8.98425 15.8957 9.06667 15.8957 9.23151 15.8132C9.31393 15.7308 9.39635 15.6484 9.31393 15.4836C9.31393 15.4011 9.14909 15.4011 9.06667 15.4011C8.90183 15.4836 8.81941 15.566 8.73699 15.566C8.57215 15.6759 8.46225 15.6484 8.40731 15.4836C8.07763 14.6594 7.91279 13.8352 7.99521 13.011C8.07763 12.5989 8.16005 12.1868 8.24247 11.7747C8.24247 11.6923 8.32489 11.6099 8.40731 11.6923C8.57215 11.7747 8.65457 11.7747 8.81941 11.8572C8.98425 11.8572 9.06667 11.8572 9.14909 11.6923C9.14909 11.6099 9.14909 11.5275 8.98425 11.4451C8.81941 11.3626 8.65457 11.2802 8.57215 11.2802C8.40731 11.2802 8.40731 11.1978 8.48973 11.1154C8.65457 10.6209 8.98425 10.2088 9.23151 9.87911C9.64361 9.3846 10.1381 8.8901 10.7151 8.56042C10.8799 8.478 10.8799 8.56042 10.9623 8.64284C10.9623 8.72526 11.0448 8.89009 11.1272 9.05493C11.2096 9.13735 11.292 9.21977 11.4569 9.13735C11.5393 9.05493 11.5393 8.97251 11.5393 8.80768C11.4569 8.72526 11.3744 8.56042 11.292 8.478C11.292 8.36811 11.3195 8.28569 11.3744 8.23075C12.6107 7.73624 13.9295 7.65382 15.2482 8.06591C15.2482 8.06591 15.3306 8.14833 15.2482 8.23075C15.2482 8.31317 15.1658 8.478 15.0833 8.64284C15.0833 8.72526 15.0833 8.89009 15.2482 8.97251Z" fill="#1F1F1F"/>
<path fill-rule="evenodd" clip-rule="evenodd" d="M5.52216 17.1319C5.60458 17.1319 5.687 17.0495 5.687 16.967C5.687 16.8022 5.60458 16.8022 5.52216 16.7198H0.247261C0.16484 16.7198 0.0824202 16.8022 0 16.967C0 17.0495 0.0824202 17.1319 0.16484 17.1319C0.219787 17.1868 0.274734 17.2143 0.329681 17.2143H5.35732C5.41226 17.2143 5.46721 17.1868 5.52216 17.1319Z" fill="#1F1F1F"/>
<path fill-rule="evenodd" clip-rule="evenodd" d="M1.73086 9.38456C1.81328 9.46698 1.8957 9.46698 1.97812 9.46698H5.76945C5.93429 9.46698 6.01671 9.38457 6.01671 9.21973C6.01671 9.13731 5.93429 9.05489 5.76945 8.97247H1.81328C1.75833 9.02742 1.70338 9.08236 1.64844 9.13731C1.64844 9.30215 1.64844 9.38456 1.73086 9.38456Z" fill="#1F1F1F"/>
<path fill-rule="evenodd" clip-rule="evenodd" d="M2.96758 7.65379H5.85228C5.9347 7.57137 6.01712 7.48895 6.01712 7.40654C6.01712 7.32412 5.9347 7.2417 5.85228 7.2417H2.96758C2.88515 7.2417 2.80273 7.32412 2.80273 7.40654C2.80273 7.48895 2.88515 7.57137 2.96758 7.65379Z" fill="#1F1F1F"/>
<path fill-rule="evenodd" clip-rule="evenodd" d="M4.28667 13.4231H4.61635C4.69877 13.3407 4.78119 13.3407 4.78119 13.1758C4.78119 13.0934 4.69877 13.011 4.61635 13.011C4.61635 12.9286 4.53393 13.011 4.53393 13.011H2.06132C1.9789 13.011 1.89648 13.0934 1.89648 13.1758C1.89648 13.3407 1.9789 13.3407 2.06132 13.4231H4.28667Z" fill="#1F1F1F"/>
<path fill-rule="evenodd" clip-rule="evenodd" d="M2.30742 14.8242C2.225 14.8242 2.14258 14.9066 2.14258 14.989C2.14258 15.1538 2.225 15.2362 2.38984 15.2362H3.0492C3.21404 15.2362 3.29646 15.1538 3.29646 14.989C3.29646 14.9066 3.21404 14.8242 3.0492 14.8242H2.30742Z" fill="#1F1F1F"/>
<path fill-rule="evenodd" clip-rule="evenodd" d="M14.6708 4.19217C14.5609 4.13722 14.5334 4.08228 14.5884 4.02733C14.7532 3.53282 14.9181 3.03831 15.0829 2.62622C15.0829 2.5438 15.0829 2.46138 15.1653 2.5438C15.9895 2.79106 16.8137 3.12073 17.6379 3.36799C18.05 3.53282 18.4621 3.69766 18.9566 3.8625C18.9566 3.8625 19.0391 3.86249 19.0391 3.94491C18.9566 4.10975 18.9566 4.27459 18.8742 4.357C18.7918 4.7691 18.627 5.09877 18.5445 5.42844C18.4621 5.51086 18.4621 5.59328 18.2973 5.51086C17.061 5.09877 15.8247 4.60426 14.6708 4.19217ZM17.3082 5.75812C17.2258 6.00537 17.1434 6.25263 16.9786 6.5823C16.9786 6.66472 16.8961 6.66472 16.8137 6.5823C16.3192 6.33504 15.7423 6.08779 15.0829 6.00537C15.0005 6.00537 15.0005 5.92295 15.0005 5.84053C15.1653 5.59328 15.2477 5.26361 15.4126 5.01635C15.4126 4.96141 15.4401 4.93393 15.495 4.93393C15.5774 4.93393 15.6598 5.01635 15.7423 5.01635C16.2368 5.18119 16.7313 5.42844 17.3082 5.59328C17.3082 5.59328 17.3907 5.6757 17.3082 5.75812ZM14.7532 20.4286H14.506C13.7642 20.5934 12.94 20.5934 12.1982 20.4286C11.2091 20.1813 10.2201 19.8516 9.3959 19.1923C7.82992 18.0384 6.92329 16.4725 6.59361 14.5769C6.42877 13.6703 6.42877 12.7637 6.59361 11.8571C6.84087 10.7032 7.41781 9.63178 8.1596 8.72517C9.23106 7.4889 10.6322 6.66472 12.2806 6.33504C13.8466 6.08779 15.3302 6.33504 16.7313 6.99439C18.2973 7.81857 19.4512 9.05485 20.1105 10.6208C20.193 10.7856 20.2754 11.0329 20.3578 11.1977C20.3578 11.2801 20.4402 11.3626 20.6051 11.3626C20.6875 11.3626 20.6875 11.2801 20.7699 11.1977V11.0329C20.3578 9.87903 19.7809 8.97243 18.9566 8.14825C18.5445 7.65374 18.05 7.24165 17.4731 6.91197C17.3907 6.91197 17.3082 6.82955 17.3907 6.74714C17.4731 6.41746 17.6379 6.17021 17.7203 5.92295C17.7203 5.75812 17.8028 5.75812 17.8852 5.84053C18.1324 5.92295 18.2973 5.92295 18.4621 6.00537C18.627 6.08779 18.7094 6.00537 18.7918 5.92295C19.0391 5.26361 19.2863 4.60426 19.4512 4.02733C19.616 3.69766 19.5336 3.61524 19.2863 3.53282C17.8852 3.03831 16.484 2.5438 15.0829 2.04929C14.9181 1.96687 14.8356 1.96687 14.7532 2.21413C14.506 2.79106 14.3411 3.4504 14.0939 4.10975C14.0114 4.27459 14.0114 4.43942 14.2587 4.52184C14.506 4.60426 14.6708 4.60426 14.9181 4.68668C14.973 4.74162 15.0005 4.79657 15.0005 4.85151C14.8356 5.18119 14.7532 5.51086 14.5884 5.75812C14.5884 5.84053 14.506 5.92295 14.4235 5.92295C13.7642 5.84053 13.1048 5.84053 12.4454 5.92295C11.2916 6.08779 10.3025 6.49988 9.3959 7.15923C9.23106 7.15923 9.14864 7.24165 9.06622 7.24165H7.00571C6.84087 7.24165 6.75845 7.32406 6.75845 7.40648C6.75845 7.4889 6.84087 7.65374 7.00571 7.65374H8.48928C8.5717 7.65374 8.5717 7.57132 8.65412 7.65374C8.65412 7.73616 8.5717 7.73616 8.5717 7.73616C8.40686 7.90099 8.32444 7.98341 8.24202 8.06583C7.41781 8.89001 6.75845 9.87903 6.42877 11.0329C6.34635 11.1153 6.34635 11.1977 6.18151 11.1977C6.01667 11.1153 5.76941 11.1153 5.60457 11.1153C5.19247 11.1153 4.78037 11.1977 4.36827 11.1977C4.28585 11.1977 4.20342 11.1977 4.20342 11.2801C4.121 11.3626 4.20342 11.445 4.28584 11.5274C4.28584 11.6098 4.36827 11.6098 4.45069 11.6098H6.09909C6.20898 11.6098 6.23646 11.6648 6.18151 11.7747C6.09909 12.1867 6.09909 12.5988 6.01667 13.0109C6.01667 13.5054 6.09909 14.0824 6.09909 14.6593C6.15404 14.7692 6.09909 14.8241 5.93425 14.8241H4.121C4.03858 14.8241 4.03858 14.9065 4.03858 14.989C3.95616 15.0714 4.03858 15.1538 4.03858 15.1538C4.121 15.2362 4.20342 15.2362 4.28584 15.2362H6.09909C6.18151 15.2362 6.26393 15.2362 6.26393 15.4011C6.26393 15.4011 6.34635 15.4011 6.34635 15.4835C6.59361 16.3901 7.00571 17.2143 7.58265 18.0384C7.74749 18.2033 7.91234 18.4505 8.07718 18.6154C8.1596 18.6154 8.1596 18.6978 8.1596 18.6978H4.45069C4.28584 18.6978 4.20342 18.7802 4.20342 18.945C4.20342 19.0275 4.28584 19.1099 4.45069 19.1923H4.53311C5.85183 19.1923 7.17055 19.1923 8.48928 19.1099C8.65412 19.1099 8.73654 19.1923 8.81896 19.2747C9.31348 19.6868 9.89042 20.0165 10.4674 20.3462C11.7861 20.9231 13.1872 21.0879 14.5884 20.8407H14.7532C14.9181 20.7582 14.9181 20.6758 14.9181 20.5934C14.9181 20.511 14.8356 20.4286 14.7532 20.4286Z" fill="#1F1F1F"/>
<path fill-rule="evenodd" clip-rule="evenodd" d="M14.3399 13.3406C14.3399 13.8351 14.0102 14.1647 13.5981 14.1647C13.186 14.1647 12.7739 13.8351 12.7739 13.423C12.7739 13.0109 13.1036 12.5988 13.5157 12.5988C14.0102 12.5988 14.3399 12.9285 14.3399 13.3406ZM14.9169 10.3735C14.9993 10.2087 15.0817 10.0438 15.0817 9.87899C15.1641 9.71415 15.0817 9.63173 14.9993 9.54932C14.9169 9.54932 14.752 9.63173 14.752 9.71415C14.6696 9.79657 14.6696 9.87899 14.6696 9.96141C14.4223 10.6208 14.0927 11.3625 13.8454 12.0219C13.8454 12.1043 13.763 12.1867 13.6806 12.1867C13.2685 12.1043 12.9388 12.2691 12.6915 12.5164C12.5267 12.7636 12.3618 12.7636 12.1146 12.5988C11.7849 12.5164 11.3728 12.3515 11.0431 12.1867C10.9607 12.1867 10.7959 12.1867 10.7959 12.3515C10.7134 12.434 10.7959 12.5164 10.8783 12.5988C10.8783 12.5988 10.9607 12.5988 10.9607 12.6812C11.3728 12.7636 11.7025 12.9285 12.1146 13.0933C12.2794 13.1482 12.3618 13.2307 12.3618 13.3406C12.3618 13.8351 12.6091 14.2472 12.9388 14.4944C13.4333 14.6593 13.8454 14.6593 14.2575 14.412C14.9169 13.9175 14.9993 12.9285 14.3399 12.434C14.2575 12.3515 14.1751 12.2691 14.2575 12.1867C14.5048 11.6098 14.6696 11.0328 14.9169 10.3735Z" fill="#1F1F1F"/>
<path fill-rule="evenodd" clip-rule="evenodd" d="M23.324 17.3791C23.324 17.4615 23.324 17.5439 23.2416 17.5439H22.6647C22.4998 17.5439 22.4174 17.5439 22.335 17.7087C22.2526 18.0384 22.1702 18.3681 22.0053 18.6978C21.9229 18.7802 21.9229 18.8626 22.0053 18.945C22.1702 19.1098 22.2526 19.2747 22.4174 19.4395C22.4998 19.4395 22.4998 19.5219 22.4174 19.6044C22.2526 19.7692 22.0053 20.0164 21.8405 20.1813C21.7855 20.2362 21.7306 20.2362 21.6756 20.1813L21.2635 19.7692C21.1811 19.6868 21.0163 19.6044 20.9339 19.6868C20.6042 19.8516 20.3569 20.0164 20.0272 20.0989C19.8624 20.1538 19.78 20.2637 19.78 20.4285V21.0055C19.78 21.0879 19.6976 21.0879 19.6151 21.0879H18.7909C18.736 21.0879 18.7085 21.0604 18.7085 21.0055V20.4285C18.7085 20.2637 18.6261 20.1813 18.4613 20.0989C18.1316 20.0164 17.8019 19.934 17.5546 19.7692C17.3898 19.6044 17.3074 19.6044 17.1425 19.7692C17.0601 19.934 16.8953 20.0164 16.8128 20.1813C16.7304 20.2637 16.648 20.2637 16.648 20.1813C16.4007 20.0164 16.2359 19.7692 15.9886 19.6044C15.9062 19.5219 15.9886 19.4395 15.9886 19.4395C16.1535 19.2747 16.3183 19.1098 16.4832 18.945C16.5656 18.8626 16.5656 18.7802 16.4832 18.6978C16.3183 18.3681 16.1535 18.0384 16.0711 17.7087C16.0711 17.5439 15.9886 17.5439 15.8238 17.5439C15.659 17.4615 15.4941 17.4615 15.2469 17.4615C15.1644 17.5439 15.082 17.4615 15.1644 17.3791V16.5549C15.1644 16.4999 15.1919 16.4725 15.2469 16.4725H15.8238C15.9886 16.4725 16.0711 16.39 16.0711 16.2252C16.1535 15.8955 16.3183 15.5659 16.4832 15.2362C16.5656 15.1538 16.5656 15.0713 16.4832 14.9889C16.4007 14.8241 16.2359 14.6593 16.0711 14.5768C15.9062 14.4944 15.9886 14.412 16.0711 14.3296C16.2359 14.1647 16.4007 13.9175 16.648 13.7527C16.648 13.6702 16.7304 13.6702 16.8128 13.7527C16.8953 13.8351 17.0601 13.9999 17.1425 14.1647C17.3074 14.2472 17.3898 14.3296 17.5546 14.1647C17.8019 13.9999 18.1316 13.9175 18.4613 13.8351C18.6261 13.7527 18.7085 13.7527 18.7085 13.5878V12.9285C18.7085 12.8735 18.736 12.8461 18.7909 12.8461H19.6151C19.6976 12.8461 19.78 12.8461 19.78 13.0109V13.5878C19.78 13.6702 19.8624 13.7527 19.9448 13.8351C20.2745 13.9175 20.6042 13.9999 20.9339 14.2472C21.0163 14.2472 21.1811 14.2472 21.2635 14.1647C21.4284 13.9999 21.5108 13.9175 21.6756 13.7527C21.7306 13.6977 21.7855 13.6977 21.8405 13.7527C22.0053 13.9175 22.2526 14.1647 22.4174 14.3296C22.4998 14.412 22.4998 14.4944 22.4174 14.4944C22.2526 14.6593 22.1702 14.8241 22.0053 14.9065C21.9229 15.0713 21.9229 15.1538 22.0053 15.2362C22.1702 15.5659 22.2526 15.8955 22.335 16.2252C22.4174 16.3076 22.4998 16.39 22.5823 16.39H23.2416C23.324 16.39 23.324 16.4725 23.324 16.5549V17.3791ZM23.4889 15.9779H22.8295C22.7746 15.9779 22.7471 15.9505 22.7471 15.8955C22.6647 15.6483 22.5823 15.4834 22.4998 15.2362C22.4449 15.1812 22.4449 15.1263 22.4998 15.0713C22.6647 14.9065 22.8295 14.7417 22.9119 14.6593C23.0768 14.4944 23.0768 14.3296 22.9119 14.2472L21.9229 13.2581C21.7581 13.0933 21.6756 13.0933 21.5932 13.2581C21.4284 13.3406 21.2635 13.5054 21.1811 13.6702C21.0987 13.7527 21.0163 13.7527 20.8514 13.6702C20.6866 13.5878 20.5218 13.5054 20.2745 13.5054C20.2196 13.4505 20.1921 13.368 20.1921 13.2581V12.6812C20.1921 12.5164 20.1097 12.434 19.8624 12.434H18.5437C18.3788 12.434 18.2964 12.5164 18.2964 12.6812C18.2964 12.8461 18.214 13.0109 18.2964 13.2581C18.2964 13.3406 18.214 13.423 18.1316 13.5054C17.8843 13.5878 17.7195 13.6702 17.4722 13.7527C17.4173 13.7527 17.3623 13.7252 17.3074 13.6702C17.2249 13.5878 17.0601 13.423 16.8953 13.2581C16.7304 13.0933 16.648 13.0933 16.4832 13.2581C16.1535 13.5878 15.8238 13.9175 15.4941 14.2472C15.4117 14.3296 15.4117 14.4944 15.4941 14.6593C15.659 14.7417 15.8238 14.9065 15.9886 15.0713C15.9886 15.1538 16.0711 15.1538 15.9886 15.2362C15.9062 15.401 15.8238 15.6483 15.7414 15.8955C15.7414 15.9779 15.659 15.9779 15.5765 15.9779H14.9172C14.7523 15.9779 14.6699 16.0604 14.6699 16.2252V17.6263C14.6699 17.8736 14.7523 17.956 14.9996 17.956H15.5765C15.659 17.956 15.7414 17.956 15.7414 18.1208C15.8238 18.2857 15.9062 18.5329 15.9886 18.6978C16.0711 18.7802 15.9886 18.7802 15.9886 18.8626C15.8238 19.0274 15.659 19.1098 15.4941 19.2747C15.4117 19.4395 15.4117 19.5219 15.4941 19.6868C15.8238 20.0164 16.1535 20.3461 16.4832 20.6758C16.648 20.8406 16.7304 20.8406 16.8953 20.6758C17.0601 20.5934 17.1425 20.4285 17.2249 20.3461C17.4722 20.0989 17.3898 20.1813 17.6371 20.2637C17.8019 20.3461 17.9667 20.4285 18.1316 20.4285C18.1865 20.4835 18.214 20.5659 18.214 20.6758V21.3351C18.214 21.4176 18.2964 21.5 18.4613 21.5H19.9448C20.0272 21.5 20.1097 21.5 20.1097 21.4176C20.1921 21.4176 20.1921 21.3351 20.1921 21.2527V20.6758C20.1921 20.5659 20.247 20.4835 20.3569 20.4285C20.5218 20.4285 20.6866 20.3461 20.9339 20.1813C21.0163 20.1813 21.0987 20.1813 21.1811 20.2637C21.2635 20.4285 21.4284 20.5934 21.5932 20.6758C21.6756 20.8406 21.8405 20.8406 21.9229 20.6758C22.2526 20.3461 22.5823 20.0164 22.9119 19.6868C23.0768 19.5219 23.0768 19.4395 22.9119 19.2747L22.4998 18.8626C22.4449 18.8076 22.4449 18.7527 22.4998 18.6978C22.5823 18.4505 22.6647 18.2857 22.7471 18.1208C22.7471 17.956 22.8295 17.956 22.9119 17.956H23.5713C23.7361 17.956 23.7361 17.8736 23.7361 17.7087V16.3076C23.7361 16.0604 23.6537 15.9779 23.4889 15.9779Z" fill="#1F1F1F"/>
<path fill-rule="evenodd" clip-rule="evenodd" d="M19.2049 18.2857C18.5455 18.2857 17.9686 17.7088 17.9686 16.967C17.9686 16.2252 18.5455 15.6483 19.2049 15.7307C19.9467 15.7307 20.5236 16.2252 20.5236 16.967C20.5236 17.7088 19.9467 18.2857 19.2049 18.2857ZM19.2873 15.2362C18.2983 15.2362 17.5565 15.978 17.5565 16.967C17.4741 17.8736 18.2983 18.6978 19.2049 18.6978C20.1115 18.6978 20.9357 17.956 20.9357 17.0494C20.9357 16.0604 20.1939 15.2362 19.2873 15.2362Z" fill="#1F1F1F"/>
</svg>
