<svg width="24" height="24" viewBox="0 0 24 24" fill="none" xmlns="http://www.w3.org/2000/svg">
<g clip-path="url(#clip0_1427_2783)">
<path d="M12.8763 23.1864V0.813559C12.8763 0.38537 12.4842 0 11.8857 0C11.5349 0 11.1016 0.449599 11.1016 0.813559V23.1864C11.1016 23.6789 11.5143 24 12.1127 24C12.4636 24 12.8969 23.5504 12.8969 23.1864" fill="#1F1F1F"/>
<path d="M10.2141 12.3961C10.2141 9.89117 9.82206 7.55754 9.07915 5.2025C8.76961 4.21766 8.50133 3.27565 8.17115 2.35504C7.88224 1.54148 7.49016 0 6.76789 0C6.1488 0 5.77734 0.321142 5.77734 0.984835C5.77734 1.26316 6.54089 3.19001 6.64407 3.48974C8.60451 8.73506 8.9347 12.5459 7.46952 17.8555C7.03616 19.397 6.56152 20.8956 5.98371 22.3729C5.81862 22.7797 5.77734 22.6726 5.77734 23.2079C5.77734 23.893 6.82979 24.364 7.36634 23.7003C7.49016 23.529 7.5727 23.2935 7.65525 23.0794C8.2537 21.5165 8.56324 20.4888 9.07915 18.8403C9.61569 17.1062 10.2348 14.1731 10.2348 12.4175" fill="#1F1F1F"/>
<path d="M18.222 23.1864C18.222 22.694 18.2014 22.7797 18.0363 22.3943L17.3553 20.5103C16.7568 18.9046 15.8282 15.3506 15.6631 13.6164C15.498 11.7752 15.5187 10.8118 15.8901 8.94915C16.0758 7.98573 16.2822 7.08653 16.5298 6.16592C16.7775 5.26673 17.0251 4.38894 17.3347 3.53256C17.4791 3.12578 17.6236 2.69759 17.7887 2.2694C17.8712 2.0339 17.9331 1.88403 18.0157 1.64853C18.1807 1.24175 18.222 1.3488 18.222 0.813559C18.222 0.38537 17.8299 0 17.2315 0C16.5298 0 16.1171 1.54148 15.8488 2.31222C15.5187 3.27565 15.2504 4.17484 14.9409 5.15968C14.6313 6.1231 14.4043 7.19358 14.1979 8.19982C13.4963 11.5611 13.7439 14.0018 14.5281 17.2774C14.6313 17.7484 14.7758 18.2837 14.9202 18.7761C15.4361 20.4032 15.7457 21.4523 16.3441 23.0152C16.633 23.7859 16.7981 24 17.4585 24C17.8299 24 18.2427 23.5718 18.2427 23.1864" fill="#1F1F1F"/>
<path d="M20.4301 13.0812L18.5934 11.9893L20.4301 10.8974V13.0812ZM16.8187 12.6958L20.9253 15.5219C21.1936 15.6932 21.5032 15.7146 21.7921 15.5647C22.081 15.4148 22.2461 15.1365 22.2461 14.8154V12.9099H23.1334C23.6287 12.9099 24.0414 12.5031 24.0414 11.9893C24.0414 11.4755 23.6287 11.0687 23.1334 11.0687H22.2461V9.16327C22.2461 8.84213 22.081 8.56381 21.7921 8.41394C21.5032 8.26407 21.1936 8.28548 20.9253 8.45676L16.8187 11.2828C16.5711 11.4541 16.4473 11.6896 16.4473 11.9893C16.4473 12.2891 16.5711 12.546 16.8187 12.6958Z" fill="#1F1F1F"/>
<path d="M3.58987 13.0812L5.4265 11.9893L3.58987 10.8974V13.0812ZM7.20122 12.6958L3.09459 15.5219C2.82632 15.6932 2.51678 15.7146 2.22787 15.5647C1.93896 15.4148 1.77387 15.1365 1.77387 14.8154V12.9099H0.886512C0.391241 12.9099 -0.0214844 12.5031 -0.0214844 11.9893C-0.0214844 11.4755 0.391241 11.0687 0.886512 11.0687H1.77387V9.16327C1.77387 8.84213 1.93896 8.56381 2.22787 8.41394C2.51678 8.26407 2.82632 8.28548 3.09459 8.45676L7.20122 11.2828C7.44885 11.4541 7.57267 11.6896 7.57267 11.9893C7.57267 12.2891 7.44885 12.5246 7.20122 12.6958Z" fill="#1F1F1F"/>
</g>
<defs>
<clipPath id="clip0_1427_2783">
<rect width="24" height="24" fill="white"/>
</clipPath>
</defs>
</svg>
