<svg width="24" height="24" viewBox="0 0 24 24" fill="none" xmlns="http://www.w3.org/2000/svg">
<path d="M10.9993 24C10.6502 24 10.301 23.9017 10.0018 23.7051C9.58612 23.4429 9.35335 23.0005 9.36997 22.5254C9.36997 22.4762 9.36997 22.4271 9.36997 22.3779C9.36997 22.2304 9.36997 22.0666 9.41985 21.9027C9.60274 21.3784 9.95189 21.0016 10.4673 20.7886C10.6668 20.6903 12.2296 19.6253 12.4957 19.3795C12.4957 19.3631 12.4957 19.3467 12.4957 19.314C12.5622 18.888 12.745 17.7738 13.859 16.676C14.1416 16.4139 14.4409 16.2336 14.7235 16.037L14.9064 15.9223C15.056 15.824 15.2223 15.824 15.3387 15.8404C15.4883 15.8404 15.5881 15.9715 15.5714 16.1189C15.5714 16.2664 15.4384 16.3483 15.2888 16.3483C15.2057 16.3483 15.189 16.3483 15.189 16.3483L15.0062 16.463C14.7235 16.6432 14.4575 16.8235 14.2081 17.0365C13.2272 18.0196 13.0609 19.0026 13.0111 19.3795C12.9944 19.5106 12.9778 19.5597 12.9445 19.6253C12.7783 19.8874 10.7832 21.1982 10.6668 21.2474C10.2844 21.4112 10.0516 21.6734 9.90199 22.0666C9.86874 22.1485 9.86875 22.2468 9.88537 22.3615C9.88537 22.4271 9.88537 22.4762 9.88537 22.5417C9.88537 22.8367 10.0184 23.0988 10.2844 23.2791C10.7333 23.574 11.3318 23.5412 11.8306 23.2299C12.1964 23.0005 12.5455 22.7547 12.8947 22.5254C13.2438 22.2796 13.6096 22.0502 13.9587 21.8044C14.258 21.6078 14.5406 21.4112 14.8233 21.2146C15.0062 21.0835 15.1891 20.9688 15.3719 20.8377C16.2531 20.2479 17.1343 19.658 18.0321 19.0682C18.1984 18.9535 18.3812 18.8388 18.5641 18.7405C18.9465 18.5111 19.3123 18.2817 19.6448 18.0032C19.8277 17.8557 19.994 17.6591 20.1602 17.4625C20.3265 17.2659 20.5094 17.0529 20.7255 16.8726C20.8252 16.7907 20.9583 16.6924 21.1411 16.676H21.2243C21.7064 16.6269 22.6873 16.5286 23.7514 16.5777C23.901 16.5777 24.0008 16.7088 24.0008 16.8399C24.0008 16.9709 23.8844 17.0856 23.7348 17.0856C22.7206 17.0365 21.7563 17.1348 21.2908 17.1839H21.2076C21.2076 17.1839 21.1245 17.2331 21.0746 17.2823C20.8917 17.4297 20.7255 17.6263 20.5592 17.8066C20.3763 18.0196 20.1935 18.2326 19.9773 18.4128C19.6116 18.7077 19.2291 18.9535 18.8467 19.1829C18.6805 19.2976 18.4976 19.3959 18.3314 19.5106C17.4502 20.1004 16.5524 20.6739 15.6712 21.2637C15.4883 21.3784 15.3054 21.5095 15.1392 21.6242C14.8399 21.8208 14.5573 22.0174 14.258 22.2141C13.8922 22.4434 13.5431 22.6892 13.1939 22.9186C12.8448 23.1644 12.479 23.3938 12.1299 23.6395C11.7807 23.8689 11.3983 23.9672 11.016 23.9672" fill="#1F1F1F"/>
<path d="M12.0616 20.2807C11.9619 20.2807 11.8787 20.2315 11.8289 20.1332C11.6959 19.8711 11.2968 19.7236 10.9311 19.7891C10.8646 19.7891 10.7981 19.7891 10.7482 19.7891C9.90026 19.7891 9.08558 19.7891 8.27091 19.7891C6.94084 19.7891 5.61077 19.7891 4.2807 19.7891C4.2807 19.7891 4.23082 19.7891 4.18095 19.7891C3.7653 19.8547 2.51836 20.0513 2.05283 19.0027C1.80344 18.4292 1.91982 17.823 2.05283 17.4297C2.30222 16.6924 3.59904 16.5122 3.7653 16.5122H10.8479C10.8479 16.5122 11.0142 16.5122 11.0973 16.5122C11.2137 16.5122 11.3135 16.5286 11.4132 16.5122C11.5462 16.4958 11.6959 16.5777 11.7125 16.7252C11.7457 16.8563 11.646 17.0037 11.4963 17.0201C11.3301 17.0529 11.1804 17.0201 11.0474 17.0201C10.9809 17.0201 10.9144 17.0201 10.8479 17.0201H3.7653C3.56579 17.0201 2.66798 17.2331 2.53497 17.5936C2.41859 17.9049 2.33546 18.3801 2.53497 18.8061C2.80099 19.4287 3.5159 19.3959 4.09781 19.2976C4.18094 19.2976 4.24745 19.2648 4.2807 19.2812C5.61077 19.2976 6.94084 19.2812 8.27091 19.2812C9.08558 19.2812 9.90026 19.2812 10.7149 19.2812H10.7814C10.7981 19.2812 10.8313 19.2812 10.8479 19.2812C11.4465 19.1665 12.0783 19.4451 12.311 19.9202C12.3775 20.0513 12.311 20.1988 12.178 20.2643C12.1448 20.2643 12.1115 20.2807 12.0616 20.2807Z" fill="#1F1F1F"/>
<path d="M2.03653 17.0528C1.32162 17.0528 0.789596 16.9545 0.357322 16.4794C0.0746814 16.2008 -0.124836 15.5618 0.0913013 14.9556C0.240935 14.546 0.706472 13.8578 2.10305 13.7595C2.55195 13.7268 3.06734 13.7431 3.38323 13.7595H3.58276H11.1143C11.1808 13.7595 11.2307 13.7595 11.2972 13.7595H11.3969C11.5466 13.7595 11.6463 13.8906 11.6463 14.0381C11.6463 14.1855 11.5133 14.2674 11.3803 14.2838H11.2805C11.2805 14.2838 11.1808 14.2838 11.1143 14.2838H9.03606H3.59937H3.38323C3.08396 14.2838 2.5852 14.2674 2.15293 14.2838C1.32163 14.3494 0.772969 14.6443 0.590084 15.1358C0.440451 15.5455 0.590078 15.9878 0.739712 16.1353C1.12211 16.5777 1.65413 16.5777 2.73482 16.5285C3.05071 16.5285 3.39986 16.4958 3.78226 16.4958C3.93189 16.4958 4.04828 16.6105 4.04828 16.7579C4.04828 16.9054 3.93189 17.0201 3.78226 17.0201C3.39986 17.0201 3.06734 17.0201 2.76808 17.0528C2.51869 17.0528 2.26931 17.0692 2.05317 17.0692" fill="#1F1F1F"/>
<path d="M5.18096 11.4328C5.18096 11.4328 5.03134 11.4 4.98146 11.3509C4.94821 11.3345 4.93157 11.3017 4.91494 11.2853C4.91494 11.2853 4.89833 11.269 4.88171 11.2526C4.84845 11.2198 4.81521 11.187 4.78195 11.1543C4.20005 10.5972 4.00052 9.90903 4.24991 9.27003C4.4993 8.64741 5.16434 8.23779 5.91251 8.23779C6.04551 8.22141 6.17852 8.23779 6.32815 8.23779C6.49441 8.23779 6.64406 8.23779 6.81032 8.23779C7.47536 8.23779 8.15701 8.23779 8.82204 8.23779H9.57021H9.65334C9.7531 8.23779 9.83622 8.23779 9.90272 8.23779C10.1687 7.23833 10.6675 6.33717 10.9668 5.78009C11.0499 5.61624 11.1331 5.48516 11.1663 5.40324C11.1829 5.35408 14.3419 0.1929 14.7741 0.0290529C14.9071 -0.0201012 15.0568 0.0290528 15.1066 0.176515C15.1565 0.291208 15.1066 0.422286 15.0069 0.487825C14.6411 0.831904 11.848 5.22301 11.6484 5.61624C11.6152 5.69816 11.5321 5.84563 11.4323 6.02586C11.0998 6.61571 10.5678 7.59879 10.3516 8.63103C10.335 8.74572 10.3018 8.84403 10.2851 8.92595C10.2353 9.12257 10.1687 9.18811 9.96924 9.15534C9.78635 9.12257 9.75311 9.04064 9.76973 8.82764C9.76973 8.79487 9.76973 8.77849 9.76973 8.74572C9.71986 8.74572 9.68659 8.74572 9.65334 8.74572H9.57021H8.82204C8.15701 8.74572 7.47536 8.74572 6.81032 8.74572C6.64406 8.74572 6.4778 8.74572 6.31154 8.74572C6.17853 8.74572 6.01226 8.74572 5.91251 8.74572C5.36385 8.74572 4.91496 9.02426 4.73208 9.45026C4.54919 9.87627 4.69881 10.3678 5.13108 10.761C5.19759 10.8266 5.24748 10.8757 5.29735 10.9249L5.34723 10.974C5.46361 11.1215 5.49687 11.2198 5.38049 11.3509C5.33061 11.4164 5.2641 11.4328 5.21422 11.4328" fill="#1F1F1F"/>
<path d="M14.7051 14.2018C14.0401 14.2018 13.3085 14.0543 12.577 13.6775C10.7149 12.8582 9.76723 11.2198 9.8171 8.8112C9.8171 8.72928 9.8171 8.68012 9.8171 8.64735C9.7506 8.51627 9.81711 8.40158 9.95012 8.33604C10.0831 8.2705 10.2494 8.36881 10.2992 8.49989C10.3325 8.56543 10.3325 8.64735 10.3325 8.82758C10.3325 9.64682 10.2826 12.1209 12.8098 13.2351C14.7051 14.2345 16.7501 13.3825 17.5814 12.8091C18.845 11.9079 19.3936 10.6135 19.2107 8.97505C19.1609 8.48351 18.9946 7.94281 18.9281 7.72981C18.8782 7.59873 18.9614 7.45127 19.0944 7.40211C19.2274 7.35296 19.377 7.43488 19.4269 7.56596C19.51 7.8445 19.6763 8.3852 19.7261 8.90951C19.9257 10.7446 19.2939 12.2028 17.8807 13.2187C17.7975 13.2678 16.4509 14.2182 14.7051 14.2182" fill="#1F1F1F"/>
<path d="M2.76758 14.1691C2.76758 14.1691 2.65121 14.1527 2.61796 14.12C1.65365 13.8578 1.18813 13.2188 1.32113 12.3176C1.53727 10.9249 3.01696 10.9249 3.56562 10.9249C4.11428 10.9249 4.7627 10.9577 5.29473 10.9741C5.62725 10.9741 5.89326 11.0069 6.04289 11.0069C7.15683 11.0069 8.2874 11.0069 9.40134 11.0069C9.71723 11.0069 10.0165 11.0069 10.2825 10.8922C10.4155 10.8266 10.5651 10.8922 10.6316 11.0232C10.6981 11.1543 10.6316 11.3018 10.4986 11.3673C10.1329 11.5312 9.7671 11.5312 9.41796 11.5312C8.28739 11.5312 7.17345 11.5312 6.05951 11.5312C5.90988 11.5312 5.64388 11.5312 5.29473 11.4984C4.77933 11.482 4.11428 11.4492 3.59888 11.4492C2.46832 11.4492 1.96955 11.7278 1.86979 12.4159C1.77004 13.0877 2.11917 13.5137 2.90059 13.6776C3.0336 13.7103 3.1666 13.8414 3.14997 13.9725C3.14997 14.1036 2.95047 14.2019 2.81746 14.2019" fill="#1F1F1F"/>
<path d="M16.2174 2.60152C16.1343 2.60152 16.0512 2.55237 16.0013 2.48683L15.9348 2.37214C15.8683 2.27383 15.8184 2.19191 15.7519 2.0936C15.5025 1.68398 14.6546 0.422356 14.638 0.405971C14.5548 0.291278 14.5881 0.127431 14.7045 0.0455079C14.8209 -0.0364156 14.9871 -0.00364628 15.0702 0.111047C15.1035 0.160201 15.9514 1.40544 16.2008 1.81506C16.2507 1.89698 16.3172 1.9789 16.3671 2.06083L16.4502 2.17552C16.5333 2.29021 16.5001 2.45406 16.3671 2.53598C16.3172 2.56875 16.2673 2.58514 16.2174 2.58514" fill="#1F1F1F"/>
<path d="M18.016 6.32091C17.8664 6.32091 17.75 6.20622 17.75 6.05876V5.5836C17.75 5.22314 17.75 4.86268 17.75 4.48583C17.75 4.25644 17.75 3.96152 17.75 3.68298V3.28974C17.75 3.14228 17.8664 3.02759 18.016 3.02759C18.1657 3.02759 18.282 3.14228 18.282 3.28974V3.68298C18.282 3.96152 18.282 4.24006 18.282 4.46944C18.282 4.82991 18.282 5.20675 18.282 5.56722V6.04237C18.282 6.18984 18.1657 6.30453 18.016 6.30453V6.32091Z" fill="#1F1F1F"/>
<path d="M19.3127 5.07551C18.9137 5.05913 18.5147 5.04274 18.1157 5.04274C17.8829 5.04274 17.6335 5.04274 17.4008 5.04274H16.7357C16.5861 5.04274 16.4863 4.91167 16.4863 4.7642C16.4863 4.61674 16.6193 4.51843 16.7523 4.51843H17.4174C17.6501 4.53482 17.8995 4.53482 18.1323 4.53482C18.5313 4.53482 18.947 4.53482 19.346 4.56759C19.4956 4.56759 19.5954 4.69866 19.5954 4.82974C19.5954 4.96082 19.479 5.07551 19.3294 5.07551" fill="#1F1F1F"/>
<path d="M7.57266 5.22301C7.42303 5.22301 7.30664 5.10832 7.30664 4.96086V4.4857C7.30664 4.12524 7.30664 3.76478 7.30664 3.38793C7.30664 3.14216 7.30664 2.84723 7.30664 2.55231V2.19184C7.30664 2.04438 7.42303 1.92969 7.57266 1.92969C7.72229 1.92969 7.83868 2.04438 7.83868 2.19184V2.55231C7.83868 2.84723 7.83868 3.14216 7.83868 3.38793C7.83868 3.74839 7.83868 4.12524 7.83868 4.4857V4.96086C7.83868 5.10832 7.72229 5.22301 7.57266 5.22301Z" fill="#1F1F1F"/>
<path d="M8.87096 3.97768C8.47193 3.9613 8.08955 3.94491 7.69053 3.94491C7.44114 3.94491 7.19175 3.94491 6.95898 3.94491H6.29393C6.1443 3.94491 6.02793 3.81383 6.04455 3.66637C6.04455 3.51891 6.14431 3.38783 6.31057 3.4206H6.9756C7.22499 3.43699 7.45776 3.43699 7.70715 3.43699C8.10617 3.43699 8.50519 3.43699 8.90421 3.46976C9.05385 3.46976 9.15359 3.60083 9.15359 3.73191C9.15359 3.86299 9.03723 3.97768 8.8876 3.97768" fill="#1F1F1F"/>
<path d="M4.38126 7.04162C4.23162 7.04162 4.11523 6.92692 4.11523 6.77946V5.40315C4.11523 5.25568 4.23163 5.14099 4.36464 5.14099C4.49765 5.14099 4.63063 5.25568 4.63063 5.40315V5.59976V6.77946C4.63063 6.92692 4.51427 7.04162 4.36464 7.04162H4.38126Z" fill="#1F1F1F"/>
<path d="M4.38437 6.40282C4.38437 6.40282 4.06848 6.40282 3.86897 6.40282H3.56969C3.42006 6.40282 3.32031 6.28813 3.32031 6.14067C3.32031 5.99321 3.4367 5.8949 3.58633 5.8949H3.88559C4.10173 5.8949 4.3345 5.8949 4.41763 5.8949C4.56726 5.8949 4.66701 6.00959 4.66701 6.15705C4.66701 6.30452 4.55062 6.40282 4.40099 6.40282" fill="#1F1F1F"/>
<path d="M18.0983 7.86097C16.3859 7.86097 14.9727 6.48465 14.9727 4.78064C14.9727 3.07663 16.3692 1.70032 18.0983 1.70032C19.8274 1.70032 21.224 3.07663 21.224 4.78064C21.224 6.48465 19.8274 7.86097 18.0983 7.86097ZM18.0983 2.22463C16.6685 2.22463 15.5047 3.37156 15.5047 4.78064C15.5047 6.18973 16.6685 7.33666 18.0983 7.33666C19.5282 7.33666 20.692 6.18973 20.692 4.78064C20.692 3.37156 19.5282 2.22463 18.0983 2.22463Z" fill="#1F1F1F"/>
<path d="M23.4838 8.90969H19.477C19.3273 8.90969 19.2109 8.79499 19.2109 8.64753C19.2109 8.50007 19.3273 8.38538 19.477 8.38538H23.4838C23.6334 8.38538 23.7498 8.50007 23.7498 8.64753C23.7498 8.79499 23.6334 8.90969 23.4838 8.90969Z" fill="#1F1F1F"/>
</svg>
