<svg width="24" height="24" viewBox="0 0 24 24" fill="none" xmlns="http://www.w3.org/2000/svg">
<path fill-rule="evenodd" clip-rule="evenodd" d="M17.9093 8.18834C16.3956 6.67465 14.2983 5.74456 12.0004 5.74456C9.70256 5.74456 7.60529 6.67465 6.0916 8.18834C4.57791 9.70203 3.64782 11.7993 3.64782 14.0972C3.64782 16.3951 4.57791 18.4923 6.0916 20.006C7.60529 21.5197 9.70256 22.4498 12.0004 22.4498C14.2983 22.4498 16.3956 21.5197 17.9093 20.006C19.423 18.4923 20.3531 16.3951 20.3531 14.0972C20.3531 11.7993 19.423 9.70203 17.9093 8.18834ZM12.0004 4.1944C14.736 4.1944 17.2163 5.30686 19.0035 7.09411C20.7908 8.88135 21.9032 11.3616 21.9032 14.0972C21.9032 16.8328 20.7908 19.313 19.0035 21.1003C17.2163 22.8875 14.736 24 12.0004 24C9.26487 24 6.78461 22.8875 4.99737 21.1003C3.21012 19.313 2.09766 16.8328 2.09766 14.0972C2.09766 11.3616 3.21012 8.88135 4.99737 7.09411C6.78461 5.30686 9.26487 4.1944 12.0004 4.1944Z" fill="#1F1F1F"/>
<path fill-rule="evenodd" clip-rule="evenodd" d="M12.0017 13.1307C12.5306 13.1307 12.9683 13.5684 12.9683 14.0972C12.9683 14.6261 12.5306 15.0638 12.0017 15.0638C11.4728 15.0638 11.0352 14.6261 11.0352 14.0972C11.0352 13.5684 11.4728 13.1307 12.0017 13.1307Z" fill="#1F1F1F"/>
<path fill-rule="evenodd" clip-rule="evenodd" d="M12.9148 11.5804L15.541 8.71714C15.924 8.29769 16.5805 8.26121 17 8.64419C17.4194 9.02717 17.4377 9.68371 17.0729 10.1032L14.4468 12.9664C14.0638 13.3859 13.4072 13.4041 12.9878 13.0394C12.5683 12.6564 12.5501 11.9998 12.9148 11.5804Z" fill="#1F1F1F"/>
<path fill-rule="evenodd" clip-rule="evenodd" d="M11.3438 11.6717V9.2097C11.3438 8.84496 11.6355 8.55316 12.0003 8.55316C12.365 8.55316 12.6568 8.84496 12.6568 9.2097V11.6717C12.6568 12.0365 12.365 12.3283 12.0003 12.3283C11.6355 12.3283 11.3438 12.0365 11.3438 11.6717Z" fill="#1F1F1F"/>
<path d="M14.2083 2.07886H9.79492V3.88434H14.2083V2.07886Z" fill="#1F1F1F"/>
<path fill-rule="evenodd" clip-rule="evenodd" d="M8.07722 0H15.901C16.3934 0 16.7946 0.401218 16.7946 0.893622C16.7946 1.38603 16.3934 1.78724 15.901 1.78724H8.07722C7.58481 1.78724 7.18359 1.38603 7.18359 0.893622C7.18359 0.401218 7.58481 0 8.07722 0Z" fill="#1F1F1F"/>
</svg>
