<svg width="24" height="24" viewBox="0 0 24 24" fill="none" xmlns="http://www.w3.org/2000/svg">
<path d="M23.6946 4.06136C23.9573 4.09586 24.0974 4.38906 23.9223 4.59603C23.3618 5.30316 23.0116 6.21727 22.7839 7.11412C22.4336 8.5284 22.3285 10.0117 21.6806 11.3224C20.98 12.7712 19.649 13.9095 18.0903 14.3925C16.6717 14.8236 14.8503 14.4442 13.5018 13.8061C14.6051 10.5981 16.4966 7.61429 19.1236 6.28626C16.6717 7.30384 14.7978 9.4425 13.4142 11.7881C12.2058 13.8405 10.9974 16.6691 10.0692 19.6701C9.92908 20.1013 9.31611 20.1185 9.176 19.6701C8.26531 17.083 6.58402 14.6857 4.21972 13.1334C5.58576 14.5477 6.67159 16.2552 7.35461 18.0834C5.81344 18.2903 4.21972 18.1179 2.67854 16.3931C1.52266 15.0823 1.64525 11.9434 0.104077 10.5118C-0.0885697 10.3394 -0.00100288 10.0117 0.261698 9.94267C2.25822 9.4425 4.44739 9.64947 6.2863 10.5463C8.19525 11.4777 9.57881 14.1682 9.63135 17.1175C10.507 13.4956 11.803 10.5463 13.747 7.97649C15.8311 5.21693 19.8241 3.66467 23.6946 4.06136Z" fill="#1F1F1F"/>
</svg>
