<svg width="24" height="24" viewBox="0 0 24 24" fill="none" xmlns="http://www.w3.org/2000/svg">
<g clip-path="url(#clip0_1426_1775)">
<path fill-rule="evenodd" clip-rule="evenodd" d="M11.198 1.0255C11.0071 1.05097 10.7524 1.08919 10.5869 1.10193C10.0777 1.14015 9.6448 1.26753 9.161 1.36945C9.07188 1.39492 8.98276 1.4204 8.89364 1.44588C8.20614 1.62422 7.55683 1.91722 6.93299 2.23569C6.6147 2.40129 6.34734 2.55416 6.06725 2.74524L4.88322 3.61148C4.31031 4.13378 3.72466 4.69429 3.25359 5.33123C3.24086 5.34397 3.22813 5.35671 3.2154 5.38218L2.65521 6.19747C2.55336 6.35034 2.50244 6.46499 2.40058 6.61785L2.31146 6.78346C2.31146 6.78346 2.29873 6.80894 2.286 6.83441L1.73855 8.01913C1.52211 8.52868 1.38207 9.06371 1.26748 9.59874L1.1529 10.1847C1.1147 10.3886 1.1147 10.5669 1.07651 10.7707C0.987389 11.2548 0.987389 12.3376 1.03832 12.7962C1.10197 13.4204 1.17836 13.9554 1.30568 14.5542C1.33114 14.6688 1.3566 14.707 1.38207 14.8344C1.40753 14.9236 1.43299 15.0128 1.45845 15.1019L1.62396 15.6115C1.68762 15.7898 1.76401 15.9682 1.81494 16.121L2.4897 17.4968C2.57882 17.6624 2.65521 17.7771 2.75707 17.93L3.92836 19.4331L4.65406 20.172C4.65406 20.172 4.76864 20.2612 4.8323 20.3249L6.10544 21.2803C6.10544 21.2803 6.13091 21.3057 6.15637 21.3185C6.15637 21.3185 6.15637 21.3185 6.1691 21.3185L7.08577 21.828C7.49318 22.0319 7.84966 22.1975 8.2698 22.3376C8.74086 22.4905 9.4029 22.7198 9.89943 22.7962C10.4214 22.8726 10.9179 22.9745 11.4399 22.9873C11.8473 22.9873 12.4075 23.0128 12.8022 22.9873L13.9862 22.8217C14.1008 22.8089 14.139 22.8089 14.2663 22.7707C14.7119 22.6561 15.1703 22.5542 15.6159 22.3886L16.3543 22.1083C16.3543 22.1083 16.4179 22.0828 16.4689 22.0573C16.9527 21.828 17.4874 21.5605 17.933 21.2675L19.4862 20.0573C19.9318 19.6115 20.4029 19.1401 20.7848 18.6306L21.5997 17.3949C21.5997 17.3949 21.6378 17.3312 21.6633 17.2803C21.6633 17.2548 21.6888 17.2421 21.6888 17.2293C22.0835 16.5159 22.3763 15.7389 22.6054 14.9491C22.6309 14.8599 22.6436 14.7707 22.6691 14.6815C22.7073 14.5669 22.7073 14.5159 22.7328 14.3886C22.7455 14.2994 22.7837 14.2102 22.7964 14.1083C22.8728 13.5987 22.9747 13.0892 22.9874 12.5669C22.9874 12.1593 23.0129 11.5987 22.9874 11.2038C22.9237 10.5796 22.8473 10.0446 22.72 9.44588C22.58 8.84715 22.3635 8.21021 22.1216 7.6497C22.1089 7.61148 22.0962 7.57327 22.0707 7.53505L21.7779 6.93632C21.5487 6.45225 21.0649 5.67518 20.6957 5.2548L19.3716 3.82804L18.6332 3.21658C18.4677 3.08919 18.4041 3.05097 18.2385 2.93632C18.1876 2.91085 18.1749 2.88537 18.1367 2.85989C17.7547 2.59238 17.3601 2.36308 16.9399 2.15925C16.5325 1.95543 16.176 1.78983 15.7559 1.6497C15.705 1.63696 15.6541 1.62422 15.6159 1.59874L14.1263 1.1911C13.617 1.11467 13.1078 1.01276 12.5858 1.00002C12.1911 1.00002 11.5927 0.974541 11.2235 1.01276M4.47582 19.0637C4.27211 18.9618 4.27211 18.8981 4.15753 18.7452L3.67373 18.1338C3.67373 18.1338 3.67373 18.1338 3.661 18.121C3.2154 17.535 2.96077 17.051 2.64248 16.414C2.64248 16.414 2.62975 16.3886 2.61702 16.3758L2.26054 15.5223C2.19688 15.3567 2.15869 15.2038 2.09503 15.0382C1.99318 14.758 1.92952 14.3376 1.8404 14.0319C1.75128 13.7134 1.72582 13.2675 1.66216 12.9108C1.56031 12.3121 1.66216 10.9491 1.76401 10.3503C1.90406 9.58601 2.0441 8.93632 2.34966 8.21021C2.36239 8.17199 2.37512 8.14651 2.38785 8.1083C2.45151 7.95543 2.50244 7.82804 2.56609 7.67518C3.06262 6.5669 3.82651 5.50957 4.69225 4.64333L4.73044 4.60511C5.06146 4.2739 5.69804 3.73887 6.02906 3.52231L7.07304 2.87263C8.43531 2.15925 9.96308 1.66244 11.7455 1.62422C12.5603 1.61148 13.6043 1.72613 14.3427 1.90448C14.8392 2.01913 15.2339 2.15925 15.705 2.32486L16.367 2.60511C16.6853 2.75798 17.0036 2.92359 17.2964 3.10193C17.7547 3.39492 18.0094 3.54779 18.4932 3.92995C18.4932 3.92995 18.4932 3.92995 18.5059 3.94269C18.5314 3.96817 18.5568 3.99365 18.5823 4.01913L19.0661 4.45225L15.3994 8.12104C14.7756 8.74524 14.1899 9.33123 13.5661 9.95543L8.10429 15.4204C7.48044 16.0446 6.8948 16.6306 6.27095 17.2548C5.9654 17.5605 5.67257 17.8535 5.36702 18.1593C5.06146 18.465 5.04873 18.5542 4.80683 18.7325C4.75591 18.7707 4.73044 18.7962 4.67952 18.8472C4.5904 18.9363 4.5522 18.9873 4.46308 19.0637H4.47582ZM4.93415 19.5478C5.01054 19.4841 5.08693 19.3949 5.16332 19.3185L7.22581 17.2548C7.31494 17.1656 7.37859 17.1147 7.45498 17.0128L12.1274 12.3376C12.3439 12.0701 12.1911 12.2612 12.3439 12.121L18.6332 5.84078C18.9006 5.53505 19.2571 5.21658 19.5499 4.93632C19.5881 5.00002 19.5881 4.9618 19.6263 5.00002C19.8554 5.24206 20.1483 5.62422 20.352 5.89174C20.6448 6.2739 21.0267 6.87263 21.2432 7.31849L21.5615 7.99365C21.727 8.36308 21.9561 9.03823 22.0453 9.44588C22.3635 10.8472 22.2999 10.8344 22.3763 12.2484C22.389 12.5542 22.3381 12.5924 22.3253 12.8344C22.2999 13.3694 22.198 14.0064 22.0707 14.4905C21.8543 15.2421 21.7779 15.586 21.4214 16.3631C21.2814 16.6561 21.1668 16.9108 20.9758 17.2166L20.4793 17.9809C20.3138 18.2357 20.1355 18.4522 19.9318 18.6943L19.4735 19.2038C19.4735 19.2038 19.4735 19.2038 19.4608 19.2166L19.3716 19.3057C19.3716 19.3057 19.3716 19.3057 19.3589 19.3185L19.1934 19.4841C19.1934 19.4841 19.1934 19.4841 19.1807 19.4968C18.8624 19.8026 18.2895 20.2866 17.933 20.5159L17.551 20.7707C16.2142 21.7007 13.948 22.3758 12.2038 22.4013C11.1344 22.414 9.6448 22.2102 8.63901 21.828C8.54989 21.7898 8.48623 21.7771 8.40984 21.7389L7.44225 21.3312H7.42952C6.60197 20.9108 6.29642 20.707 5.53253 20.121C5.31609 19.9554 5.01054 19.6497 4.92142 19.586L4.93415 19.5478Z" fill="#1F1F1F"/>
<path fill-rule="evenodd" clip-rule="evenodd" d="M15.3485 14.9108C15.8705 14.8726 18.1113 14.949 18.2768 14.8726C18.5059 14.7707 18.4805 14.3503 18.1749 14.2866H16.2143C14.0754 14.2866 14.2791 14.07 14.2791 15.2802C14.2791 15.7898 14.2409 18.0191 14.2918 18.1974C14.3682 18.4904 14.8138 18.4904 14.8775 18.2229V15.3312L18.8751 19.293C18.9643 19.2675 18.9261 19.293 19.0025 19.2038C19.0279 19.1783 19.0661 19.1401 19.1043 19.1019C19.1425 19.0637 19.1807 19.0255 19.2062 19C19.2826 18.9235 19.2571 18.9618 19.2953 18.8726C19.1934 18.7325 18.4805 18.0446 18.3022 17.8662L16.8126 16.3758C16.4307 15.9936 15.6413 15.242 15.3485 14.8981M13.4388 13.4458C13.3624 13.4841 13.2351 13.4713 13.0569 13.4713H11.8219C11.3763 13.4713 11.4527 13.4076 11.1981 13.6751C11.1217 13.7516 11.0707 13.8025 10.9944 13.879C10.6888 14.1847 10.6506 14.0955 12.4457 14.0955C14.2409 14.0955 14.0881 14.2484 14.0881 13.2802C14.0881 12.9363 14.1136 10.8981 14.0626 10.8471C14.0372 10.8216 14.0499 10.8216 13.9735 10.8981C13.4006 11.4968 13.4643 11.2548 13.4643 11.8407L13.4388 13.4586V13.4458ZM9.96311 13.1656C9.96311 13.1656 9.93764 13.2165 10.0395 13.1146C10.6251 12.5286 10.5488 12.707 10.5488 12.172C10.5488 11.9427 10.4851 10.6433 10.5742 10.5541C10.6124 10.5159 10.5997 10.5286 10.7525 10.5286C10.8161 10.5286 10.8925 10.5286 10.9562 10.5286H12.1911C12.6367 10.5286 12.5603 10.5923 12.815 10.3248C12.8913 10.2484 12.9423 10.1974 13.0187 10.121C13.3242 9.81527 13.3624 9.90444 11.5673 9.90444C11.2872 9.90444 10.1795 9.84075 10.0268 9.99361C9.88672 10.1337 9.93764 10.4904 9.93764 10.7197C9.93764 11.1146 9.89945 13.0382 9.96311 13.1528V13.1656ZM8.83001 14.2993C8.60084 14.2611 6.42376 14.2739 5.93996 14.2993C5.78718 14.2993 5.6726 14.3503 5.60894 14.4649C5.55801 14.5796 5.58348 14.7579 5.65987 14.8344C5.81264 14.9872 6.29644 14.9108 6.55107 14.9108H7.51866C7.98973 14.9108 8.1807 14.9745 8.35894 14.7962C8.48626 14.6688 8.75362 14.4395 8.81727 14.3121L8.83001 14.2993ZM9.70848 15.1783C9.59389 15.242 9.352 15.5223 9.22468 15.6369C9.08464 15.7643 9.09737 15.7898 9.09737 16.0191V17.4586C9.09737 17.7134 9.02098 18.1974 9.17376 18.3503C9.352 18.5414 9.70848 18.4267 9.70848 18.07C9.72121 17.586 9.73394 15.4204 9.70848 15.1783ZM14.3045 8.82164C14.4064 8.77068 14.5337 8.61782 14.6228 8.5159C14.7119 8.42673 14.9029 8.28661 14.9029 8.15922V5.81527C14.9029 5.50954 14.2918 5.45858 14.2918 5.90444C14.2918 6.54138 14.2663 8.31208 14.2918 8.82164H14.3045ZM15.183 9.70062C15.4631 9.7261 17.6402 9.70062 18.0985 9.70062C18.5569 9.70062 18.4805 9.08915 18.1876 9.08915H15.8451C15.7177 9.08915 15.5777 9.28024 15.4886 9.36941C15.3867 9.47132 15.2467 9.58597 15.183 9.68788V9.70062ZM7.18764 7.62418L8.6645 9.10189C8.14251 9.14011 5.90176 9.06368 5.73626 9.14011C5.50709 9.24202 5.53255 9.6624 5.83811 9.7261H7.79876C9.93764 9.7261 9.73394 9.94266 9.73394 8.73247C9.73394 8.22291 9.77214 5.99361 9.73394 5.81527C9.65755 5.52227 9.21195 5.52227 9.14829 5.78979V8.68151L5.15061 4.71973C5.06149 4.7452 5.09968 4.71973 5.02329 4.8089C4.92144 4.89807 4.76866 5.02546 4.73047 5.14011C4.84505 5.29297 6.53834 6.96177 6.71658 7.14011C6.88209 7.30571 7.0476 7.47132 7.21311 7.63692L7.18764 7.62418Z" fill="#1F1F1F"/>
</g>
<defs>
<clipPath id="clip0_1426_1775">
<rect width="22" height="22" fill="white" transform="translate(1 1)"/>
</clipPath>
</defs>
</svg>
