<svg width="24" height="24" viewBox="0 0 24 24" fill="none" xmlns="http://www.w3.org/2000/svg">
<path fill-rule="evenodd" clip-rule="evenodd" d="M24 12C24 5.375 18.625 0 12 0C5.375 0 0 5.375 0 12C0 18.625 5.375 24 12 24C18.625 24 24 18.625 24 12ZM12 0.666667C18.2639 0.666667 23.3333 5.73611 23.3333 12C23.3333 18.2639 18.2639 23.3333 12 23.3333C5.73611 23.3333 0.666661 18.2639 0.666661 12C0.666661 5.73611 5.73611 0.666667 12 0.666667Z" fill="#1F1F1F"/>
<path fill-rule="evenodd" clip-rule="evenodd" d="M20.2925 5.11112V10.9167C17.1953 14.0417 14.0981 17.1528 11.0009 20.2778H5.07031V20.0972L5.79254 19.375V19.5417H10.6953L19.5564 10.6111V5.81946L20.2787 5.09724L20.2925 5.11112ZM5.43144 5.06946H17.737L17.0009 5.79168H5.79254V16.8333L5.07031 17.5556V5.06946H5.43144Z" fill="#1F1F1F"/>
<path fill-rule="evenodd" clip-rule="evenodd" d="M10.3867 12.3194V10.4305H12.3034L10.3867 12.3194ZM10.3867 20.1111V14.8611L14.9006 10.4166H20.0812L10.3867 20.1111Z" fill="#1F1F1F"/>
<path fill-rule="evenodd" clip-rule="evenodd" d="M3.97135 20.5557L3.30469 19.8612L19.8602 3.55566L20.5408 4.23622L3.97135 20.5557Z" fill="#1F1F1F"/>
</svg>
