<svg width="24" height="24" viewBox="0 0 24 24" fill="none" xmlns="http://www.w3.org/2000/svg">
<path d="M7.64697 18.1242C7.64697 18.1242 7.5057 18.0875 7.45273 18.0326C7.36443 17.9228 7.36443 17.7581 7.45273 17.6665C8.90072 16.312 11.7261 13.6395 12.0086 13.31C12.2735 12.9988 12.3971 12.6693 12.3794 12.3764C12.3618 12.1385 12.2382 11.9371 12.0439 11.7907C11.8673 11.6625 11.5495 11.6076 11.1963 11.6808C11.055 11.7175 10.6136 12.0103 10.2957 12.2666L6.04005 16.5865C5.9341 16.6964 5.77518 16.6964 5.68688 16.5865C5.58093 16.4767 5.58093 16.312 5.68688 16.2204L9.96022 11.8822C10.1545 11.7175 10.7725 11.2415 11.108 11.1683C11.3376 11.1134 11.938 11.0402 12.3618 11.3697C12.662 11.6076 12.8562 11.9554 12.8915 12.3215C12.9268 12.6327 12.8562 13.1269 12.3971 13.6578C12.0086 14.0971 7.98248 17.8862 7.8059 18.0509C7.75292 18.1059 7.69995 18.1242 7.62931 18.1242" fill="#1F1F1F"/>
<path d="M8.44106 20.3025C8.44106 20.3025 8.29979 20.2659 8.24682 20.211C8.14087 20.1012 8.15853 19.9364 8.24682 19.8449L12.8204 15.3602C12.8204 15.3602 13.3854 14.5548 12.838 14.1338C12.3083 13.7128 11.9904 14.0789 11.9727 14.0972C11.8845 14.207 11.7255 14.2253 11.6196 14.1155C11.5136 14.0239 11.496 13.8592 11.6019 13.7494C11.8138 13.4931 12.4319 13.1453 13.1559 13.7128C13.4031 13.8958 13.5443 14.1521 13.5797 14.4449C13.668 15.0673 13.2265 15.6897 13.1912 15.708L8.58233 20.211C8.58233 20.211 8.47638 20.2842 8.40575 20.2842" fill="#1F1F1F"/>
<path d="M7.94745 23.9817C7.94745 23.9817 7.82384 23.9634 7.77087 23.9085C7.66492 23.7986 7.66492 23.6339 7.77087 23.5424L12.8388 18.2889C12.8388 18.2889 13.3509 17.5201 12.8388 17.0808C12.415 16.7147 11.7793 17.1906 11.7793 17.1906C11.6557 17.2821 11.4968 17.2455 11.4262 17.1357C11.3379 17.0258 11.3732 16.8611 11.4791 16.7696C11.5145 16.733 12.4327 16.0374 13.1743 16.6781C13.863 17.2821 13.5099 18.234 13.2273 18.6367L8.12404 23.9268C8.12404 23.9268 8.01809 24 7.94745 24" fill="#1F1F1F"/>
<path d="M1.30589 12.3765C1.16462 12.3765 1.04102 12.2484 1.04102 12.1019V5.18268C1.04102 5.18268 1.07633 2.43695 3.76041 2.43695H19.0526C19.1939 2.43695 19.2998 2.56508 19.2998 2.69322C19.2998 2.82135 19.1939 2.94949 19.0526 2.94949H3.77807C1.60609 2.94949 1.57077 5.07285 1.57077 5.16438V12.0836C1.57077 12.2301 1.44716 12.3582 1.30589 12.3582" fill="#1F1F1F"/>
<path d="M19.0006 23.9269C19.0006 23.9269 18.9476 23.9269 18.93 23.9269C16.1223 23.872 8.03473 23.9269 7.94644 23.9269C7.80517 23.9269 7.69922 23.8171 7.69922 23.6707C7.69922 23.5242 7.80517 23.4144 7.94644 23.3961C8.03473 23.3961 16.1399 23.3412 18.9476 23.3961C19.9542 23.4327 20.7135 22.9019 21.0666 21.9866C21.3668 21.1812 21.2962 20.0646 21.2962 20.0463V5.3109C21.2962 5.16446 21.4022 5.05463 21.5434 5.05463C21.6847 5.05463 21.8083 5.16446 21.8083 5.3109V20.0463C21.8083 20.0463 21.8966 21.291 21.5434 22.2063C21.1196 23.3046 20.1837 23.9452 19.0006 23.9452" fill="#1F1F1F"/>
<path d="M19.7606 9.00833C19.637 9.00833 19.5311 8.9168 19.5134 8.78867C19.5134 8.75206 19.4781 8.5507 19.4781 8.23952C19.4075 7.56224 19.1956 6.39073 18.6482 5.76837C17.9948 5.03617 16.1936 4.96295 15.5403 4.98126C15.4167 5.01787 15.293 4.88973 15.2754 4.74329C15.2754 4.59685 15.3637 4.46872 15.4873 4.45042C15.4873 4.45042 17.2002 4.17584 18.3303 3.38873C19.0896 2.8762 19.3192 1.53994 19.4075 0.789442C19.4075 0.441649 19.4428 0.221991 19.4604 0.203686C19.4958 0.0755518 19.6194 -0.0159725 19.743 0.00233235C19.8666 0.00233235 19.9725 0.130466 19.9725 0.276905C19.9725 0.313515 19.9725 0.514868 19.9372 0.807746C19.9372 1.24706 20.0608 1.97926 20.5376 2.85789C21.138 3.95618 22.5153 4.23076 23.2393 4.28567C23.5572 4.28567 23.7514 4.28567 23.7868 4.30398C23.9104 4.32228 24.0163 4.45042 23.9987 4.57855C23.9987 4.70668 23.8927 4.81651 23.7514 4.83482C23.7161 4.83482 23.5219 4.83482 23.2217 4.83482C22.7272 4.85312 21.915 4.99956 21.032 5.5304C20.0608 6.13446 19.9549 7.47072 19.9725 8.20291C20.0079 8.49579 20.0078 8.67884 20.0078 8.71545C20.0078 8.86189 19.9019 8.97172 19.7783 8.99002C19.7783 8.99002 19.7783 8.99002 19.7606 8.99002M17.1472 4.56024C17.8359 4.68838 18.5775 4.92634 19.0013 5.40227C19.2839 5.73176 19.4958 6.17107 19.637 6.62869C19.8136 6.04294 20.1491 5.45718 20.7672 5.09108C21.1556 4.85312 21.5265 4.68838 21.862 4.57855C21.191 4.34059 20.5023 3.91957 20.0785 3.15077C19.8842 2.80298 19.7606 2.49179 19.6547 2.19892C19.4604 2.83959 19.1426 3.49856 18.6128 3.86466C18.1537 4.17584 17.6416 4.41381 17.1472 4.57855V4.56024Z" fill="#1F1F1F"/>
<path d="M11.585 9.57575C11.4438 9.57575 11.3378 9.46592 11.3378 9.33779C11.3378 9.33779 11.2495 8.20289 10.7904 7.67205C10.4196 7.25103 9.37773 7.15951 9.02456 7.14121C8.88329 7.14121 8.77734 7.03138 8.77734 6.90324C8.77734 6.77511 8.86564 6.64697 8.98925 6.62867C8.98925 6.62867 10.0134 6.46393 10.6668 6.0063C11.1436 5.67682 11.2848 4.65174 11.3025 4.24904C11.3025 4.21243 11.3025 4.19412 11.3025 4.19412C11.3025 4.04768 11.4084 3.93785 11.5674 3.95616C11.7086 3.95616 11.8146 4.08429 11.8146 4.23073C11.8146 4.23073 11.8146 4.23073 11.8146 4.26734C11.8146 4.35887 11.8499 4.79818 12.2737 5.56699C12.7681 6.46393 14.0219 6.57376 14.0219 6.57376C14.1632 6.57376 14.2691 6.70189 14.2515 6.84833C14.2515 6.99477 14.1278 7.1229 13.9866 7.1046C13.9866 7.1046 13.1213 7.06799 12.5739 7.489C11.8323 8.05645 11.8323 9.33779 11.8323 9.33779C11.8323 9.48423 11.7263 9.59406 11.585 9.61236V9.57575ZM10.2607 6.79341C10.5962 6.90324 10.9317 7.04968 11.1612 7.30595C11.3378 7.5073 11.4614 7.76357 11.5674 8.01984C11.7086 7.65374 11.9205 7.28764 12.2737 7.03138C12.4503 6.90324 12.6269 6.79341 12.8211 6.7385C12.4503 6.55545 12.0618 6.26257 11.8146 5.80495C11.744 5.65851 11.6733 5.53038 11.6204 5.40224C11.4967 5.80495 11.2848 6.20766 10.9493 6.44562C10.7374 6.59206 10.4902 6.72019 10.2607 6.81172V6.79341Z" fill="#1F1F1F"/>
<path d="M0.264876 20.0279C0.123609 20.0279 0 19.9181 0 19.7717V13.4931C0.0353169 12.9623 0.370827 11.9921 1.46565 11.864C1.90711 11.8091 2.2956 11.9372 2.59579 12.2118C3.03725 12.6145 3.16086 13.2734 3.16086 13.5846V15.7629L6.74552 11.9006C6.74552 11.9006 7.45186 11.1501 7.84034 10.9487C8.05224 10.8572 8.7939 10.546 9.30599 10.9487C9.58853 11.1501 9.74745 11.4247 9.80043 11.7541C9.90638 12.468 9.39428 13.2002 9.35897 13.2185C9.27067 13.3284 9.11175 13.365 9.0058 13.2734C8.89985 13.1819 8.86453 13.0172 8.95282 12.9073C8.95282 12.9073 9.35897 12.3216 9.28833 11.8274C9.25302 11.6443 9.16472 11.4979 9.0058 11.3697C8.77624 11.1867 8.35244 11.2965 8.05224 11.443C7.80502 11.5528 7.34591 12.0104 7.09869 12.2667L3.07257 16.6049C3.07257 16.6049 2.89598 16.7148 2.79003 16.6598C2.68408 16.6232 2.63111 16.5134 2.63111 16.4219V13.6029C2.63111 13.3833 2.54281 12.9073 2.24262 12.6145C2.04838 12.4314 1.81882 12.3765 1.50097 12.4131C0.582728 12.5229 0.494436 13.4931 0.494436 13.5297V19.79C0.494436 19.9364 0.388485 20.0462 0.247218 20.0462" fill="#1F1F1F"/>
</svg>
