<svg width="24" height="24" viewBox="0 0 24 24" fill="none" xmlns="http://www.w3.org/2000/svg">
<path fill-rule="evenodd" clip-rule="evenodd" d="M10.9407 18.3744C10.6474 18.5436 10.403 18.8962 10.077 19.0231C9.52296 19.2346 9.16444 18.7269 9.16444 18.5295C9.16444 18.1769 9.8 17.7397 10.2237 17.3872C10.4356 17.2038 10.5985 17.0628 10.8104 16.8795C11.4948 16.2872 11.6578 16.259 12.3585 16.8513C12.6681 17.1192 14.037 18.1628 14.037 18.4872C14.037 18.8962 13.5807 19.1782 13.157 19.0372C12.8148 18.9244 12.5541 18.5577 12.2444 18.3744V22.2244C12.2444 22.6333 12.1956 23 11.5274 23C10.7126 23 10.9407 21.8013 10.9407 20.941V18.3744ZM1.4237 14.6936C1.19556 14.6936 1 14.5385 1 14.3269C1 14.1154 1.17926 13.9603 1.4237 13.9603H22.5763C22.8044 13.9603 23 14.1154 23 14.3269C23 14.5385 22.8207 14.6936 22.5763 14.6936H1.4237ZM1.4237 10.0256C1.19556 10.0256 1 9.87051 1 9.65897C1 9.44744 1.17926 9.29231 1.4237 9.29231H22.5763C22.8044 9.29231 23 9.44744 23 9.65897C23 9.87051 22.8207 10.0256 22.5763 10.0256H1.4237ZM4.87852 10.5192C4.99259 10.35 5.23704 10.2795 5.44889 10.3641C5.64444 10.4628 5.72593 10.6744 5.62815 10.8577L4.01481 13.4949C3.90074 13.6641 3.6563 13.7346 3.44444 13.65C3.24889 13.5513 3.16741 13.3397 3.26519 13.1564L4.89481 10.5192H4.87852ZM6.49185 10.5192C6.60593 10.35 6.85037 10.2795 7.06222 10.3641C7.25778 10.4628 7.33926 10.6744 7.24148 10.8577L5.62815 13.4949C5.51407 13.6641 5.26963 13.7346 5.05778 13.65C4.86222 13.5513 4.78074 13.3397 4.87852 13.1564L6.49185 10.5192ZM8.12148 10.5192C8.23556 10.35 8.48 10.2795 8.69185 10.3641C8.88741 10.4628 8.96889 10.6744 8.87111 10.8577L7.25778 13.4949C7.1437 13.6641 6.89926 13.7346 6.68741 13.65C6.49185 13.5513 6.41037 13.3397 6.50815 13.1564L8.12148 10.5192ZM9.73481 10.5192C9.84889 10.35 10.0933 10.2795 10.3052 10.3641C10.5007 10.4628 10.5822 10.6744 10.4844 10.8577L8.87111 13.4949C8.75704 13.6641 8.51259 13.7346 8.30074 13.65C8.10519 13.5513 8.0237 13.3397 8.12148 13.1564L9.75111 10.5192H9.73481ZM11.3644 10.5192C11.4785 10.35 11.723 10.2795 11.9348 10.3641C12.1304 10.4628 12.2119 10.6744 12.1141 10.8577L10.5007 13.4949C10.3867 13.6641 10.1422 13.7346 9.93037 13.65C9.73481 13.5513 9.65333 13.3397 9.75111 13.1564L11.3644 10.5192ZM12.9778 10.5192C13.0919 10.35 13.3363 10.2795 13.5481 10.3641C13.7437 10.4628 13.8252 10.6744 13.7274 10.8577L12.0978 13.4949C11.9837 13.6641 11.7393 13.7346 11.5274 13.65C11.3319 13.5513 11.2504 13.3397 11.3481 13.1564L12.9615 10.5192H12.9778ZM14.6074 10.5192C14.7215 10.35 14.9659 10.2795 15.1778 10.3641C15.3733 10.4628 15.4548 10.6744 15.357 10.8577L13.7437 13.4949C13.6296 13.6641 13.3852 13.7346 13.1733 13.65C12.9778 13.5513 12.8963 13.3397 12.9941 13.1564L14.6074 10.5192ZM16.2207 10.5192C16.3348 10.35 16.5793 10.2795 16.7911 10.3641C16.9867 10.4628 17.0681 10.6744 16.9704 10.8577L15.357 13.4949C15.243 13.6641 14.9985 13.7346 14.7867 13.65C14.5911 13.5513 14.5096 13.3397 14.6074 13.1564L16.237 10.5192H16.2207ZM17.8504 10.5192C17.9644 10.35 18.2089 10.2795 18.4207 10.3641C18.6163 10.4628 18.6978 10.6744 18.6 10.8577L16.9704 13.4949C16.8563 13.6641 16.6119 13.7346 16.4 13.65C16.2044 13.5513 16.123 13.3397 16.2207 13.1564L17.8341 10.5192H17.8504ZM19.4637 10.5192C19.5778 10.35 19.8222 10.2795 20.0341 10.3641C20.2296 10.4628 20.3111 10.6744 20.2133 10.8577L18.6 13.4949C18.4859 13.6641 18.2415 13.7346 18.0296 13.65C17.8341 13.5513 17.7526 13.3397 17.8504 13.1564L19.4637 10.5192ZM21.0933 10.5192C21.2074 10.35 21.4519 10.2795 21.6637 10.3641C21.8593 10.4628 21.9407 10.6744 21.843 10.8577L20.2296 13.4949C20.1156 13.6641 19.8711 13.7346 19.6593 13.65C19.4637 13.5513 19.3822 13.3397 19.48 13.1564L21.0933 10.5192ZM3.24889 10.5192C3.36296 10.35 3.60741 10.2795 3.81926 10.3641C4.01481 10.4628 4.0963 10.6744 3.99852 10.8577L2.38519 13.4949C2.27111 13.6641 2.02667 13.7346 1.81481 13.65C1.61926 13.5513 1.53778 13.3397 1.63556 13.1564L3.24889 10.5192ZM10.9407 5.62564C10.6474 5.45641 10.403 5.10385 10.077 4.97692C9.52296 4.76538 9.16444 5.27308 9.16444 5.47051C9.16444 5.82308 9.8 6.26026 10.2237 6.61282C10.4356 6.79615 10.5985 6.93718 10.8104 7.12051C11.4948 7.71282 11.6578 7.74103 12.3585 7.14872C12.6681 6.88077 14.037 5.83718 14.037 5.51282C14.037 5.10385 13.5807 4.82179 13.157 4.96282C12.8148 5.07564 12.5541 5.44231 12.2444 5.62564V1.77564C12.2444 1.36667 12.1956 1 11.5274 1C10.7126 1 10.9407 2.19872 10.9407 3.05897V5.62564Z" fill="#1F1F1F"/>
</svg>
