<svg width="24" height="24" viewBox="0 0 24 24" fill="none" xmlns="http://www.w3.org/2000/svg">
<g clip-path="url(#clip0_1427_2819)">
<path d="M21.4965 18.6332L20.7265 17.9095L18.1383 20.3417C18.1383 20.3417 17.903 20.4824 17.7532 20.4221C17.6891 20.402 17.6035 20.3819 17.5393 20.3015C17.4965 20.2613 17.4752 20.2412 17.4538 20.1608L14.1383 12.5226C14.0741 12.3216 14.1596 12.1005 14.3522 12C14.5447 11.8995 14.8014 12.0201 14.9083 12.201L18.0099 19.3166L20.149 17.3065L19.3789 16.5829C19.3789 16.5829 19.2078 16.3417 19.2506 16.201C19.2933 16.0603 19.4217 15.9598 19.55 15.9196L22.4163 15.196C22.6944 15.0955 23.0153 15.397 22.9511 15.6985L22.181 18.392C22.1383 18.5327 22.0099 18.6332 21.8602 18.6734C21.7532 18.7337 21.5821 18.6734 21.4752 18.593" fill="#1F1F1F"/>
<path d="M1.81744 14.1105L4.5554 15.1558C4.70514 15.196 4.7907 15.3367 4.7907 15.4774C4.81209 15.6382 4.74792 15.7387 4.61957 15.8593L3.78535 16.4623L3.87091 16.5427L6.13829 19.4372L9.34685 12.3417C9.41102 12.1407 9.71048 12.0402 9.903 12.1407C10.1169 12.201 10.2239 12.4824 10.1169 12.6633L6.63027 20.4221C6.63027 20.4221 6.58749 20.4623 6.60888 20.4824C12.2773 19.3166 18.3736 19.9799 23.5287 22.5326C23.9351 22.7337 24.1062 23.196 23.8923 23.5779C23.6784 23.9598 23.1864 24.1206 22.78 23.9196C16.2132 20.7035 7.95647 20.7035 1.28268 23.9196C0.91904 24.0804 0.512623 24 0.255939 23.7588C0.191767 23.6985 0.148987 23.6382 0.0848156 23.5578C-0.129088 23.1759 0.0420348 22.7135 0.448452 22.5125C2.20246 21.6683 4.08482 21.005 6.03134 20.5829C6.00995 20.5628 5.96717 20.5628 5.92439 20.5427L5.88161 20.5025L3.20781 17.0452C3.20781 17.0452 3.18642 16.9849 3.16503 16.9648L2.28802 17.608C2.15968 17.6683 2.03134 17.7286 1.86022 17.6482C1.79605 17.6281 1.77466 17.608 1.71048 17.5678C1.64631 17.5075 1.62492 17.4271 1.58214 17.3266L1.17572 14.5728C1.15433 14.412 1.21851 14.3115 1.34685 14.1909C1.4538 14.0703 1.64631 14.0703 1.79605 14.1306" fill="#1F1F1F"/>
<path d="M2.16016 15.1156L2.37406 16.5226L3.55053 15.6583L2.16016 15.1156Z" fill="#1F1F1F"/>
<path d="M20.5137 16.5829L21.5832 17.608L21.9682 16.201L20.5137 16.5829Z" fill="#1F1F1F"/>
<path d="M8.44831 10.4522C6.37344 8.72359 6.18093 5.72862 7.99911 3.75877C8.91889 2.79394 10.2023 2.23113 11.4643 2.17083C12.7478 2.09043 14.0954 2.49244 15.1221 3.35676C17.197 5.0854 17.3895 8.08038 15.5499 10.0502C13.6889 12 10.4804 12.1809 8.42692 10.4723" fill="#1F1F1F"/>
<path d="M14.5666 3.89952C12.8126 2.45228 10.1601 2.59299 8.62004 4.24123C7.07994 5.88947 7.25106 8.38193 8.98368 9.82917C9.83929 10.5528 10.9302 10.8543 12.0211 10.794C13.0906 10.7337 14.1388 10.3116 14.9088 9.48746C16.4489 7.83922 16.2992 5.34676 14.5666 3.87942" fill="#1F1F1F"/>
<path d="M18.5452 8.08038C18.2671 8.02008 17.9891 8.16078 17.9249 8.42209C17.8607 8.6834 18.0105 8.9447 18.2885 9.005C18.5666 9.06531 18.8447 8.9246 18.9089 8.6633C18.973 8.40199 18.8233 8.14068 18.5452 8.08038Z" fill="#1F1F1F"/>
<path d="M17.3265 10.4925C17.0484 10.4322 16.7703 10.5729 16.7061 10.8342C16.642 11.0955 16.7917 11.3568 17.0698 11.4171C17.3479 11.4774 17.6259 11.3367 17.6901 11.0754C17.7543 10.8141 17.6045 10.5528 17.3265 10.4925Z" fill="#1F1F1F"/>
<path d="M18.3751 5.10555C18.097 5.16586 17.9259 5.40706 17.99 5.66837C18.0542 5.92967 18.3109 6.09048 18.589 6.03018C18.867 5.96988 19.0382 5.72867 18.974 5.46736C18.9098 5.20606 18.6531 5.04525 18.3751 5.10555Z" fill="#1F1F1F"/>
<path d="M16.8122 2.51255C16.5983 2.67336 16.5556 2.97487 16.7267 3.17587C16.8978 3.37688 17.2187 3.41708 17.4326 3.25627C17.6465 3.09547 17.6892 2.79396 17.5181 2.59296C17.347 2.39195 17.0261 2.35175 16.8122 2.51255Z" fill="#1F1F1F"/>
<path d="M14.1597 0.864342C14.0314 1.10555 14.1597 1.38696 14.4164 1.50756C14.6731 1.60806 14.9726 1.50756 15.1009 1.28645C15.2292 1.04525 15.1009 0.76384 14.8656 0.643237C14.6089 0.542734 14.3095 0.643237 14.1811 0.864342" fill="#1F1F1F"/>
<path d="M11.017 0.482412C11.017 0.743719 11.2523 0.964824 11.5303 0.944724C11.8084 0.944724 12.0437 0.723618 12.0223 0.462312C12.0223 0.201005 11.787 0 11.509 0C11.2309 0 10.9956 0.221106 11.017 0.482412Z" fill="#1F1F1F"/>
<path d="M8.02186 1.48744C8.1502 1.72865 8.47105 1.80905 8.70635 1.68845C8.96303 1.56785 9.04859 1.26634 8.92025 1.04523C8.79191 0.804026 8.47105 0.723624 8.23576 0.844227C7.97907 0.96483 7.89351 1.26634 8.02186 1.48744Z" fill="#1F1F1F"/>
<path d="M5.81877 3.6382C6.05407 3.799 6.37492 3.7387 6.52466 3.5176C6.69578 3.29649 6.63161 2.99498 6.39631 2.85428C6.16102 2.69347 5.84016 2.75378 5.69043 2.97488C5.51931 3.19599 5.58348 3.49749 5.81877 3.6382Z" fill="#1F1F1F"/>
<path d="M4.87712 6.47235C5.15519 6.51255 5.41188 6.33165 5.45466 6.07034C5.49744 5.80903 5.30493 5.56783 5.02685 5.52763C4.74878 5.48743 4.49209 5.66833 4.44931 5.92964C4.40653 6.19094 4.59904 6.43215 4.87712 6.47235Z" fill="#1F1F1F"/>
<path d="M5.39049 9.42711C5.66857 9.34671 5.79691 9.0854 5.71135 8.8241C5.62579 8.58289 5.34771 8.44219 5.06963 8.52259C4.81295 8.60299 4.66322 8.8643 4.74878 9.12561C4.83434 9.36681 5.11242 9.50752 5.39049 9.42711Z" fill="#1F1F1F"/>
<path d="M7.03698 11.6583C7.31505 11.5779 7.44339 11.3166 7.35783 11.0553C7.27227 10.8141 6.9728 10.6734 6.71612 10.7538C6.45944 10.8342 6.3097 11.0955 6.39526 11.3568C6.48083 11.598 6.7589 11.7387 7.03698 11.6583Z" fill="#1F1F1F"/>
</g>
<defs>
<clipPath id="clip0_1427_2819">
<rect width="24" height="24" fill="white"/>
</clipPath>
</defs>
</svg>
