<svg width="24" height="24" viewBox="0 0 24 24" fill="none" xmlns="http://www.w3.org/2000/svg">
<mask id="mask0_1426_1732" style="mask-type:luminance" maskUnits="userSpaceOnUse" x="1" y="1" width="22" height="22">
<path d="M23 12C23 18.0729 18.0729 23 12 23C5.92708 23 1 18.0729 1 12C1 5.92708 5.92708 1 12 1C18.0729 1 23 5.92708 23 12Z" fill="white"/>
</mask>
<g mask="url(#mask0_1426_1732)">
<path fill-rule="evenodd" clip-rule="evenodd" d="M7.97736 18.3148H8.20652L12.2679 28.0416H12.8662C12.5225 27.1504 8.94495 18.5185 8.8431 18.3148H9.51787C9.54333 18.5949 13.0572 26.7812 13.5665 28.0416H14.2031C13.732 26.8576 10.2308 18.5694 10.1672 18.3148H10.8037C10.8292 18.4293 14.394 27.0613 14.7887 28.0416H15.4125C15.1579 27.4432 11.4785 18.4548 11.4403 18.3148H12.0769C12.1024 18.4421 15.769 27.3923 16.0237 28.0416H16.7239L12.7135 18.3148H13.35L17.3859 28.0416H17.997L13.9866 18.3148H14.6232L18.6591 28.0416H19.3466C18.8373 26.7812 15.3234 18.5949 15.298 18.3148H15.9345C15.9855 18.5312 19.4993 26.9212 19.945 28.0416H20.6452C20.1614 26.7939 16.6348 18.6203 16.5584 18.3148H17.195C17.2331 18.493 20.7598 26.8958 21.2181 28.0416H21.8801C21.4218 26.8576 18.0098 18.6203 17.8443 18.3148H18.4808L22.5422 28.0416H23.1406C22.7968 27.1504 19.2193 18.5185 19.1174 18.3148H19.7922C19.8176 18.5949 23.3315 26.7812 23.8408 28.0416H24.4774C24.0063 26.8576 20.5051 18.5694 20.4415 18.3148H21.0781C21.1035 18.4293 24.6683 27.0613 25.063 28.0416H25.6868C25.4322 27.4432 21.7528 18.4548 21.7146 18.3148H25.5977V17.4745H-2.27148V18.3148H1.80259C1.82805 18.4421 5.49472 27.3923 5.74935 28.0416H6.44958L2.43916 18.3148H3.07574L7.11162 28.0416H7.72273L3.71231 18.3148H4.34889L8.38477 28.0416H9.07227C8.56301 26.7812 5.04912 18.5949 5.02365 18.3148H5.66023C5.71115 18.5312 9.22504 26.9212 9.67065 28.0416H10.3709C9.88708 26.7939 6.36046 18.6203 6.28407 18.3148H6.92064C6.95884 18.493 10.4855 26.8958 10.9438 28.0416H11.6058C11.1475 26.8576 7.73546 18.6203 7.56995 18.3148H7.97736Z" fill="#1F1F1F"/>
<path fill-rule="evenodd" clip-rule="evenodd" d="M12.4714 17.5507H13.5153L13.0061 17.0287L12.4714 17.5507ZM7.3151 14.5843L7.70978 14.2151L11.0582 17.5507H3.99219V17.5762H21.5616L14.9413 17.5635L17.7676 14.7116L17.3602 14.3424C17.1438 14.457 16.8764 14.8135 16.6727 15.0044L14.2665 17.4361L13.388 16.5704C13.5917 16.5067 14.5848 15.4246 14.8139 15.1954C14.9413 15.0681 15.2086 14.8644 15.2595 14.6861C15.1704 14.5588 15.0304 14.3679 14.8649 14.3297L13.0061 16.163L10.5998 13.7822L11.02 13.3875C10.8545 13.3875 10.7271 13.3239 10.5998 13.2729L9.77228 13.0692C9.60677 13.0311 9.55584 12.9801 9.39034 12.9419C9.39034 13.5148 9.74682 14.0241 9.78501 14.5716C9.95052 14.5334 10.0906 14.3424 10.1797 14.2151L12.5732 16.5831L11.7329 17.4361C11.4146 16.9651 8.21904 14.0368 8.15538 13.7695L8.52459 13.3748L6.88223 12.9292C6.9077 13.1584 7.22598 14.3551 7.3151 14.5588V14.5843Z" fill="#1F1F1F"/>
</g>
<path d="M11.8851 11.7072C12.318 11.7072 12.4707 11.7072 12.8909 11.5671C13.7566 11.2743 14.355 10.5868 14.6096 9.72107C14.7751 9.17361 14.6987 8.37153 14.4823 7.82407C14.2531 7.23843 14.164 7.13657 13.8839 6.64005C13.8203 6.53819 13.7821 6.44907 13.7184 6.34722L13.0691 5.21412C12.9036 4.89583 12.7763 4.65394 12.6362 4.32292C12.5853 4.20833 12.5471 4.11921 12.4962 4.00463L12.2416 3.36806C12.2161 3.3044 12.0379 2.75694 11.9869 2.71875C11.9487 2.74421 11.936 2.80787 11.9105 2.8588L11.6177 3.67361C11.4777 4.04282 11.0957 4.90856 10.9175 5.21412C10.8538 5.31597 10.8156 5.40509 10.7647 5.50694C10.7011 5.6088 10.6629 5.69792 10.6119 5.78704C10.2809 6.33449 9.7462 7.21296 9.52976 7.82407C9.44064 8.0787 9.33879 8.44792 9.31332 8.72801C9.23694 9.79745 9.66981 10.7269 10.5101 11.287C10.8284 11.4907 11.3504 11.7326 11.8724 11.7326M13.12 6.75463C13.12 6.75463 13.171 6.81829 13.1964 6.86921L13.5529 7.49306C13.6038 7.58218 13.642 7.65857 13.6802 7.74769C13.973 8.46065 14.1386 9.02083 13.8203 9.81019C13.7311 10.0394 13.5911 10.2303 13.4256 10.3831C13.3365 10.4722 13.2728 10.5359 13.171 10.6123C12.8399 10.8414 12.5089 10.9815 12.0633 10.9815C12.0633 10.9051 12.127 10.8796 12.2161 10.765C12.458 10.4595 12.6999 10.1921 12.8781 9.82292C13.0055 9.55556 13.0818 9.41551 13.1582 9.12269C13.3237 8.48611 13.2728 7.72222 13.1582 7.08565C13.1582 7.00926 13.12 6.78009 13.0946 6.7419L13.12 6.75463Z" fill="#1F1F1F"/>
</svg>
