<svg width="24" height="24" viewBox="0 0 24 24" fill="none" xmlns="http://www.w3.org/2000/svg">
<g clip-path="url(#clip0_1426_2690)">
<path d="M13.205 23.6257L0.945312 14.2045L1.74284 12.8943L13.1493 21.6708L23.1091 12.5408L23.9994 13.7678L13.205 23.6257Z" fill="#1F1F1F"/>
<path d="M20.9948 22.4194H3.33789V24H20.9948V22.4194Z" fill="#1F1F1F"/>
<path d="M12.5002 12.5407C10.1076 12.5407 8.16016 10.357 8.16016 7.67417C8.16016 4.99133 10.1076 2.80762 12.5002 2.80762C14.8928 2.80762 16.8402 4.99133 16.8402 7.67417C16.8402 10.357 14.8928 12.5407 12.5002 12.5407ZM12.5002 4.34661C10.868 4.34661 9.55119 5.82321 9.55119 7.65337C9.55119 9.48353 10.868 10.9601 12.5002 10.9601C14.1323 10.9601 15.4492 9.48353 15.4492 7.65337C15.4492 5.82321 14.1138 4.34661 12.5002 4.34661Z" fill="#1F1F1F"/>
<path d="M13.1879 0H11.7969V3.57712H13.1879V0Z" fill="#1F1F1F"/>
<path d="M16.7659 1.72212L14.5117 4.2533L15.496 5.35547L17.7502 2.82429L16.7659 1.72212Z" fill="#1F1F1F"/>
<path d="M19.2702 6.88391H16.0801V8.4437H19.2702V6.88391Z" fill="#1F1F1F"/>
<path d="M8.84636 6.88391H5.65625V8.4437H8.84636V6.88391Z" fill="#1F1F1F"/>
<path d="M8.21603 1.76046L7.23242 2.8634L9.48817 5.39281L10.4718 4.28987L8.21603 1.76046Z" fill="#1F1F1F"/>
<path d="M9.34131 10.03L7.08398 12.5576L8.06691 13.6613L10.3242 11.1337L9.34131 10.03Z" fill="#1F1F1F"/>
<path d="M15.5871 10.0171L14.6035 11.12L16.8593 13.6494L17.8429 12.5465L15.5871 10.0171Z" fill="#1F1F1F"/>
<path d="M4.04328 11.688L0 12.1455V12.3119L0.352396 16.5961L1.72488 16.4506L1.52087 13.5389L4.17311 13.2478L4.04328 11.688Z" fill="#1F1F1F"/>
<path d="M12.4085 18.4887C11.9634 18.4887 11.5553 18.3639 11.1658 18.156C10.4239 17.74 9.7006 16.7209 9.7377 15.4315C9.75624 14.4125 10.2385 13.4558 10.6465 12.6031L10.8134 12.2703C11.1102 11.6256 11.4626 10.9601 11.9077 10.2114L12.5012 9.15076L13.0947 10.2322C13.4842 10.9185 13.7995 11.6048 14.1519 12.3535C14.2076 12.4783 14.2632 12.6031 14.3374 12.7279L14.3745 12.8111C14.7825 13.6222 15.2462 14.558 15.2091 15.6603C15.1535 17.1993 13.8737 18.5095 12.4085 18.5095M12.4641 12.1664C12.3157 12.4575 12.1674 12.7279 12.0375 13.019L11.8706 13.3518C11.5368 14.0589 11.1473 14.8492 11.1287 15.4731C11.1287 16.1178 11.5182 16.5962 11.7964 16.7417C11.9819 16.8457 12.1859 16.9081 12.4085 16.9081C13.1318 16.9081 13.781 16.2842 13.7995 15.5771C13.7995 14.9116 13.4842 14.2669 13.1318 13.5598L13.0947 13.4766C13.0205 13.331 12.9649 13.2062 12.8907 13.0814C12.7423 12.7695 12.594 12.4575 12.4456 12.1664H12.4641Z" fill="#1F1F1F"/>
<path d="M12.4073 18.7175C11.9437 18.7175 11.48 18.5927 11.0719 18.364C10.2744 17.9064 9.49543 16.825 9.53252 15.4316C9.55107 14.3709 10.0333 13.3934 10.4599 12.52L10.6454 12.1664C10.9792 11.4801 11.313 10.8146 11.7396 10.0867L12.5001 8.73486L13.2605 10.1075C13.6314 10.7938 13.9653 11.4593 14.3362 12.2496C14.3919 12.3744 14.4475 12.4784 14.5217 12.6031L14.5773 12.6863C15.0039 13.539 15.4862 14.4957 15.4491 15.6395C15.3934 17.3033 14.0209 18.7175 12.4444 18.7175M12.4815 9.54596L12.0549 10.3155C11.6469 11.0226 11.3131 11.6881 10.9792 12.3536L10.8123 12.6863C10.4042 13.539 9.94056 14.4749 9.92201 15.4108C9.88492 16.617 10.5712 17.5321 11.2574 17.9272C11.6098 18.1352 11.9993 18.2392 12.4073 18.2392C13.7798 18.2392 14.9668 17.033 15.0039 15.5979C15.041 14.5789 14.5959 13.6846 14.1879 12.8735L14.1322 12.7695C14.0766 12.6447 14.0024 12.52 13.9467 12.3952C13.5758 11.6049 13.2605 10.9602 12.8896 10.2739L12.463 9.50436L12.4815 9.54596ZM12.4073 17.1369C12.1662 17.1369 11.9437 17.0746 11.7211 16.9498H11.6654C11.3316 16.7002 10.9236 16.1803 10.9421 15.4732C10.9421 14.7869 11.3501 13.9758 11.684 13.2687L11.8695 12.8943C11.9993 12.6239 12.1477 12.3328 12.296 12.0416L12.463 11.7089L12.6299 12.0416C12.7783 12.3328 12.9267 12.6447 13.075 12.9567C13.1492 13.1023 13.2049 13.2271 13.279 13.3726L13.3161 13.4558C13.6871 14.1837 14.0209 14.87 14.0024 15.5772C13.9838 16.4298 13.242 17.1369 12.4073 17.1369ZM11.9251 16.5754C12.0735 16.6586 12.2404 16.7002 12.4073 16.7002C13.0194 16.7002 13.5758 16.1803 13.5943 15.5772C13.5943 14.9948 13.2976 14.3501 12.9637 13.6846L12.9267 13.6014C12.8525 13.4558 12.7968 13.3311 12.7226 13.1855C12.6299 12.9983 12.5372 12.8111 12.4444 12.6239C12.3702 12.7903 12.2775 12.9567 12.2033 13.1231L12.0364 13.4558C11.7025 14.1421 11.3316 14.9116 11.313 15.4732C11.313 16.0139 11.6469 16.409 11.8695 16.5546H11.9066L11.9251 16.5754Z" fill="#1F1F1F"/>
</g>
<defs>
<clipPath id="clip0_1426_2690">
<rect width="24" height="24" fill="white"/>
</clipPath>
</defs>
</svg>
